<?xml version="1.0" standalone="no"?>
<!DOCTYPE svg PUBLIC "-//W3C//DTD SVG 1.1//EN" "http://www.w3.org/Graphics/SVG/1.1/DTD/svg11.dtd" >
<svg>
<metadata>
Created by FontForge 20090914 at Mon Dec  4 04:32:00 2017
 By www-data
Copyright 2012 The Encode Project Authors (impallari@gmail.com), with Reserved Font Name "Encode Sans".
</metadata>
<defs>
<font id="EncodeSans-Regular" horiz-adv-x="1157" >
  <font-face 
    font-family="Encode Sans"
    font-weight="400"
    font-stretch="normal"
    units-per-em="2000"
    panose-1="0 0 5 0 0 0 0 0 0 0"
    ascent="1600"
    descent="-400"
    x-height="1085"
    cap-height="1480"
    bbox="-911 -466.004 2596 2143"
    underline-thickness="50"
    underline-position="-50"
    unicode-range="U+000D-U+FB02"
  />
<missing-glyph horiz-adv-x="1028" 
d="M843 1616v-2056h-652v2056h652zM685 1478h-340v-68h134v-76h-136v-68h342v68h-136v76h136v68zM549 1213h-206v-214h342v70h-136v144zM479 1143v-74h-68v74h68zM685 944h-342v-68h136v-76h-136v-68h206v144h136v68zM685 820h-68v-135h-274v-70h342v205zM685 569h-206v-115
h70v48h68v-97h-206v164h-68v-232h342v232zM685 214h-342v-233h342v233zM617 146v-97h-206v97h206zM685 -66h-342v-68h144l-144 -96v-68h342v68h-210l144 96h66v68z" />
    <glyph glyph-name="fi" unicode="fi" horiz-adv-x="1180" 
d="M321.5 1538c65.667 65.333 160.833 98.001 285.5 98.001c52.667 0 101 -4.33301 145 -13v-135c-41.333 8.66699 -84.333 13 -129 13c-82 0 -142.667 -19 -182 -57s-59 -99.333 -59 -184v-175h341v-132h-341v-953h-159v953h-205v132h205v167
c0 125.333 32.833 220.666 98.5 285.999zM1030 1496c19.333 -18 29 -43 29 -75s-9.66699 -56.833 -29 -74.5s-46.666 -26.5 -81.999 -26.5c-36 0 -63.667 8.83301 -83 26.5s-29 42.5 -29 74.5s9.83301 57 29.5 75s47.167 27 82.5 27s62.666 -9 81.999 -27z
M867.999 0.000976562v1085h160v-1085h-160z" />
    <glyph glyph-name="fl" unicode="fl" horiz-adv-x="1179" 
d="M321.5 1538c65.667 65.333 160.833 98.001 285.5 98.001c52.667 0 101 -4.33301 145 -13v-135c-41.333 8.66699 -84.333 13 -129 13c-82 0 -142.667 -19 -182 -57s-59 -99.333 -59 -184v-175h341v-132h-341v-953h-159v953h-205v132h205v167
c0 125.333 32.833 220.666 98.5 285.999zM867.999 1616h160v-1616h-160v1616z" />
    <glyph glyph-name="f_j" unicode="fj" horiz-adv-x="1180" 
d="M382 953l-0.000976562 -952.999h-159v953h-205v132h205v167c0 125.333 32.833 220.666 98.5 285.999s160.834 98 285.501 98c52.667 0 101 -4.33301 145 -13v-135c-41.333 8.66699 -84.333 13 -129 13c-82 0 -142.667 -19 -182 -57s-59 -99.333 -59 -184v-175h341v-132
h-341zM1029 1501c19.333 -18 29 -43 29 -75s-9.66699 -56.833 -29 -74.5s-46.666 -26.5 -81.999 -26.5c-36 0 -63.667 8.83301 -83 26.5s-29 42.5 -29 74.5s9.83301 57 29.5 75s47.167 27 82.5 27s62.666 -9 81.999 -27zM867.999 1085l160 0.000976562v-906
c0 -128.667 -18 -242.5 -54 -341.5s-95.333 -199.5 -178 -301.5l-107 72c64 86.667 109.833 173.167 137.5 259.5s41.5 187.166 41.5 302.499v915z" />
    <glyph glyph-name=".notdef" horiz-adv-x="1028" 
d="M843 1616v-2056h-652v2056h652zM685 1478h-340v-68h134v-76h-136v-68h342v68h-136v76h136v68zM549 1213h-206v-214h342v70h-136v144zM479 1143v-74h-68v74h68zM685 944h-342v-68h136v-76h-136v-68h206v144h136v68zM685 820h-68v-135h-274v-70h342v205zM685 569h-206v-115
h70v48h68v-97h-206v164h-68v-232h342v232zM685 214h-342v-233h342v233zM617 146v-97h-206v97h206zM685 -66h-342v-68h144l-144 -96v-68h342v68h-210l144 96h66v68z" />
    <glyph glyph-name="NULL" horiz-adv-x="0" 
 />
    <glyph glyph-name="NULL" horiz-adv-x="0" 
 />
    <glyph glyph-name="nonmarkingreturn" unicode="&#xd;" horiz-adv-x="489" 
 />
    <glyph glyph-name="space" unicode=" " horiz-adv-x="489" 
 />
    <glyph glyph-name="exclam" unicode="!" horiz-adv-x="501" 
d="M200 372l-35 546v562h171v-562l-34 -546h-102zM167 16.5c-21.333 19.667 -32 45.834 -32 78.501s10.5 59 31.5 79s48.833 30 83.5 30s62.667 -10 84 -30s32 -46.333 32 -79s-10.667 -58.834 -32 -78.501s-49.333 -29.5 -84 -29.5c-34 0 -61.667 9.83301 -83 29.5z" />
    <glyph glyph-name="quotedbl" unicode="&#x22;" horiz-adv-x="756" 
d="M161 915l-35 701h167l-35 -701h-97zM498 915l-35 701h167l-35 -701h-97z" />
    <glyph glyph-name="numbersign" unicode="#" 
d="M1057 892h-208l-32 -304h240v-131h-253l-48 -457h-131l48 457h-247l-48 -457h-132l48 457h-194v131h207l32 304h-239v131h252l48 457h132l-48 -457h247l48 457h131l-48 -457h195v-131zM686 588l32 304h-247l-32 -304h247z" />
    <glyph glyph-name="dollar" unicode="$" horiz-adv-x="1063" 
d="M890 127.5c-66 -70.333 -160.332 -115.5 -282.999 -135.5v-232h-150v221c-58.667 0 -119.334 5 -182.001 15s-122 24.667 -178 44v140c60 -20 121.5 -35 184.5 -45s122.5 -15 178.5 -15c243.333 0 365 90.333 365 271c0 50 -9.83301 91.833 -29.5 125.5
s-50.667 62 -93 85s-99.833 43.833 -172.5 62.5l-80 21c-126.667 32.667 -221 81.5 -283 146.5s-93 150.5 -93 256.5c0 110 32.333 199.5 97 268.5s160 113.167 286 132.5v231h150v-221c54.667 0 109.834 -3.83301 165.501 -11.5s106.167 -18.5 151.5 -32.5v-140
c-98 30 -202.667 45 -314 45c-126.667 0 -220.334 -22.5 -281.001 -67.5s-91 -109.833 -91 -194.5c0 -48.667 8.83301 -89.667 26.5 -123s46.167 -61.5 85.5 -84.5s93 -43.5 161 -61.5l80 -20c137.333 -34.667 238 -84.667 302 -150s96 -151.333 96 -258
c0 -112 -33 -203.167 -99 -273.5z" />
    <glyph glyph-name="percent" unicode="%" horiz-adv-x="1845" 
d="M195 687.5c-60.667 75 -91 191.5 -91 349.5s30.167 274.5 90.5 349.5s143.5 112.5 249.5 112.5s189.167 -37.5 249.5 -112.5s90.5 -191.5 90.5 -349.5s-30.333 -274.5 -91 -349.5s-143.667 -112.5 -249 -112.5s-188.333 37.5 -249 112.5zM526 0l652 1480h141l-652 -1480
h-141zM596 768.5c36 53.667 54 142.5 54 266.5c0 125.333 -18 215 -54 269s-86.667 81 -152 81s-115.833 -26.833 -151.5 -80.5s-53.5 -142.5 -53.5 -266.5c0 -124.667 17.833 -214.167 53.5 -268.5s86.167 -81.5 151.5 -81.5s116 26.833 152 80.5zM1151.5 94.5
c-60.333 75 -90.5 191.5 -90.5 349.5s30.167 274.5 90.5 349.5s143.5 112.5 249.5 112.5s189.167 -37.5 249.5 -112.5s90.5 -191.5 90.5 -349.5s-30.333 -274.5 -91 -349.5s-143.667 -112.5 -249 -112.5c-106 0 -189.167 37.5 -249.5 112.5zM1552.5 175.5
c35.667 53.667 53.5 142.5 53.5 266.5c0 125.333 -18 215 -54 269s-86.333 81 -151 81c-65.333 0 -116 -26.833 -152 -80.5s-54 -142.5 -54 -266.5c0 -124.667 18.167 -214.167 54.5 -268.5s86.833 -81.5 151.5 -81.5c65.333 0 115.833 26.833 151.5 80.5z" />
    <glyph glyph-name="ampersand" unicode="&#x26;" horiz-adv-x="1497" 
d="M1416 -20l-258.998 196c-48.667 -64 -113.5 -112.333 -194.5 -145s-175.833 -49 -284.5 -49c-117.333 0 -216.333 17.5 -297 52.5s-141.334 84 -182.001 147s-61 136.833 -61 221.5c0 88.667 21.833 167 65.5 235s105.167 121.667 184.5 161
c-34.667 44 -59.334 88.167 -74.001 132.5s-22 92.5 -22 144.5c0 136 44.167 240.5 132.5 313.5s219.833 109.5 394.5 109.5c86 0 167.333 -9.33301 244 -28v-140c-71.333 19.333 -150.333 29 -237 29c-128 0 -221.667 -24.167 -281 -72.5s-89 -119.5 -89 -213.5
c0 -44.667 7 -85 21 -121s38.333 -73.5 73 -112.5s84.667 -84.167 150 -135.5l411 -312c9.33301 41.333 14 86.333 14 135c0 42.667 -3.66699 87.5 -11 134.5s-18 92.167 -32 135.5h139c26 -84 39 -173.667 39 -269c0 -82 -11.333 -156.333 -34 -223l271 -206zM1052 256
l-433 328.001c-64.667 50 -115 92.333 -151 127c-111.333 -66.667 -167 -163.667 -167 -291c0 -96.667 32.833 -172.834 98.5 -228.501s163.5 -83.5 293.5 -83.5c170 0 289.667 49.333 359 148z" />
    <glyph glyph-name="quotesingle" unicode="'" horiz-adv-x="419" 
d="M161 915l-35 701h167l-35 -701h-97z" />
    <glyph glyph-name="parenleft" unicode="(" horiz-adv-x="659" 
d="M125 588c0 405.333 113.667 748 341 1028h172c-120 -150.667 -207.833 -311.167 -263.5 -481.5s-83.5 -352.5 -83.5 -546.5s27.833 -376.167 83.5 -546.5s143.5 -330.833 263.5 -481.5h-172c-227.333 280 -341 622.667 -341 1028z" />
    <glyph glyph-name="parenright" unicode=")" horiz-adv-x="659" 
d="M284.5 41c55.667 170 83.5 352.335 83.5 547.002s-27.833 377 -83.5 547s-143.5 330.333 -263.5 481h172c227.333 -278.667 341 -621.334 341 -1028s-113.667 -749.334 -341 -1028h-172c120 150.667 207.833 311 263.5 481z" />
    <glyph glyph-name="asterisk" unicode="*" horiz-adv-x="919" 
d="M519 1182l135 -147l102 -139l-96 -70l-102 139l-99 177l-98 -177l-102 -139l-96 70l102 139l134 147l-194 40l-175 56l37 112l173 -56l184 -84l-24 200v166h119v-166l-24 -200l183 84l174 56l37 -112l-175 -56z" />
    <glyph glyph-name="plus" unicode="+" horiz-adv-x="1075" 
d="M469 357v338h-320v130h320v338h137v-338h320v-130h-320v-338h-137z" />
    <glyph glyph-name="comma" unicode="," horiz-adv-x="461" 
d="M314.5 174c20.333 -24 30.5 -60.666 30.5 -109.999c0 -66 -9 -131.667 -27 -197s-42.333 -126.333 -73 -183h-95c22.667 60 40 114 52 162s19.333 95 22 141c-32.667 1.33301 -59 12.166 -79 32.499s-30 46.833 -30 79.5c0 34 10.167 61 30.5 81s47.5 30 81.5 30
c38 0 67.167 -12 87.5 -36z" />
    <glyph glyph-name="hyphen" unicode="-" horiz-adv-x="837" 
d="M149 495v135h540v-135h-540z" />
    <glyph glyph-name="period" unicode="." horiz-adv-x="461" 
d="M147 17c-21.333 20 -32 46.999 -32 80.999s10.5 61.167 31.5 81.5s48.833 30.5 83.5 30.5s62.667 -10.333 84 -31s32 -47.667 32 -81s-10.667 -60.166 -32 -80.499s-49.333 -30.5 -84 -30.5c-34 0 -61.667 10 -83 30z" />
    <glyph glyph-name="slash" unicode="/" horiz-adv-x="616" 
d="M0 -240l457 1856h159l-457 -1856h-159z" />
    <glyph glyph-name="zero" unicode="0" horiz-adv-x="1249" 
d="M247.5 162c-88.333 120.667 -132.502 313.334 -132.502 578.001c0 265.333 43.833 458.166 131.5 578.499s213.834 180.5 378.501 180.5s290.667 -60.167 378 -180.5s131 -313.166 131 -578.499c0 -264.667 -44 -457.334 -132 -578.001s-213.667 -181 -377 -181
s-289.166 60.333 -377.499 181zM811.998 178c50.667 38 89.834 102.333 117.501 193s41.5 212.667 41.5 366c0 155.333 -13.833 278.666 -41.5 369.999s-66.834 156.166 -117.501 194.499s-113 57.5 -187 57.5c-74.667 0 -137.334 -19 -188.001 -57
s-89.834 -102.333 -117.501 -193s-41.5 -212.667 -41.5 -366c0 -155.333 13.833 -278.666 41.5 -369.999s66.834 -156.166 117.501 -194.499s113.334 -57.5 188.001 -57.5c74 0 136.333 19 187 57z" />
    <glyph glyph-name="one" unicode="1" horiz-adv-x="730" 
d="M448 1485h103v-1485h-162v1281l-365 -261v160z" />
    <glyph glyph-name="two" unicode="2" horiz-adv-x="987" 
d="M923 140l-0.000976562 -139.998h-863v90l423 562c72 94.667 123 175.667 153 243s45 132.666 45 195.999c0 94 -26 162.333 -78 205s-131.667 64 -239 64c-115.333 0 -222.333 -19.333 -321 -58v140c43.333 17.333 94.833 31.166 154.5 41.499s119.5 15.5 179.5 15.5
c310.667 0 466 -131.333 466 -394c0 -54 -7.16699 -106.333 -21.5 -157s-37.666 -104.667 -69.999 -162s-76.833 -123 -133.5 -197l-341 -449h646z" />
    <glyph glyph-name="three" unicode="3" horiz-adv-x="1012" 
d="M859 643.5c54.667 -63 82 -144.165 82 -243.498c0 -133.333 -45.333 -236.5 -136 -309.5s-223 -109.5 -397 -109.5c-125.333 0 -244.333 19 -357 57v132c57.333 -18.667 116.5 -32.834 177.5 -42.501s119.5 -14.5 175.5 -14.5c126 0 220.833 24.833 284.5 74.5
s95.5 122.834 95.5 219.501c0 92 -30.333 162.667 -91 212s-153.667 74 -279 74h-177v133h97c131.333 0 230.833 24.5 298.5 73.5s101.5 119.833 101.5 212.5c0 83.333 -27.333 146.666 -82 189.999s-135 65 -241 65c-112.667 0 -220.667 -18.333 -324 -55v132
c46 17.333 98.833 30.833 158.5 40.5s119.167 14.5 178.5 14.5c151.333 0 267.166 -32.667 347.499 -98s120.5 -158 120.5 -278c0 -86 -23.833 -159.833 -71.5 -221.5s-114.5 -105.834 -200.5 -132.501c104.667 -20.667 184.334 -62.5 239.001 -125.5z" />
    <glyph glyph-name="four" unicode="4" horiz-adv-x="1181" 
d="M1140 487v-132h-209v-355h-150v355h-733v90l575 1035h162l-550 -993h546l21 493h129v-493h209z" />
    <glyph glyph-name="five" unicode="5" horiz-adv-x="1022" 
d="M713.5 790c87 -34 151.001 -81.499 192.001 -142.499s61.167 -137.167 60.5 -228.5c0 -142.667 -45 -251.334 -135 -326.001s-222 -112 -396 -112c-62 0 -123.5 5 -184.5 15s-118.5 24.333 -172.5 43v133c55.333 -18.667 113.666 -33 174.999 -43s121 -15 179 -15
c126.667 0 221.167 25 283.5 75s93.5 125.333 93.5 226c0 66 -15.5 120.167 -46.5 162.5s-82.333 75.333 -154 99s-168.5 39.167 -290.5 46.5l-185 11l50 746h722v-133h-577l-33 -489l79 -5c139.333 -8 252.5 -29 339.5 -63z" />
    <glyph glyph-name="six" unicode="6" horiz-adv-x="1151" 
d="M874 803.5c68.667 -31.667 122.001 -79.665 160.001 -143.998s57 -144.166 57 -239.499c0 -94 -19 -173.833 -57 -239.5s-90.833 -115.334 -158.5 -149.001s-145.834 -50.5 -234.501 -50.5c-343.333 0 -515 237 -515 711c0 538 209 807 627 807
c107.333 0 197.333 -14.667 270 -44v-135c-38 15.333 -80 26.666 -126 33.999s-92.333 11 -139 11c-158 0 -276 -49.833 -354 -149.5s-117.333 -257.834 -118 -474.501c43.333 34.667 95.833 61.667 157.5 81s125.167 29 190.5 29c91.333 0 171.333 -15.833 240 -47.5z
M858.001 185.502c54 50.333 81 126.5 81 228.5c0 104 -29.167 181.5 -87.5 232.5s-139.5 76.5 -243.5 76.5c-57.333 0 -114.833 -9.33301 -172.5 -28s-107.167 -47 -148.5 -85c6 -181.333 39.333 -310 100 -386s146 -114 256 -114c89.333 0 161 25.167 215 75.5z" />
    <glyph glyph-name="seven" unicode="7" horiz-adv-x="939" 
d="M12 1480h869v-90l-543 -1390h-169l532 1340h-689v140z" />
    <glyph glyph-name="eight" unicode="8" horiz-adv-x="1249" 
d="M1079 603c46.667 -59.333 69.999 -133.332 69.999 -221.999c0 -80 -20 -150.167 -60 -210.5s-98.667 -107 -176 -140s-170.666 -49.5 -279.999 -49.5c-116 0 -213.833 15.5 -293.5 46.5s-139.667 75.667 -180 134s-60.5 128.166 -60.5 209.499
c0 88.667 24.667 166.334 74 233.001s119 118.334 209 155.001c-82.667 40.667 -142.5 89.667 -179.5 147s-55.5 126.333 -55.5 207c0 78 18.833 146.167 56.5 204.5s92.667 103.166 165 134.499s158.833 47 259.5 47c98 0 182.5 -15 253.5 -45s125.333 -73.167 163 -129.5
s56.5 -122.833 56.5 -199.5c0 -82.667 -21.167 -155.334 -63.5 -218.001s-105.5 -114 -189.5 -154c107.333 -40.667 184.333 -90.667 231 -150zM338.999 980.001c22.667 -37.333 61.1689 -70.1689 115.502 -98.502s130.166 -54.166 227.499 -77.499l33 -9
c84 38.667 145 83 183 133s57 111.667 57 185c0 84.667 -28.5 149.334 -85.5 194.001s-138.167 67 -243.5 67c-104.667 0 -184.334 -22.667 -239.001 -68s-82 -108 -82 -188c0 -54.667 11.333 -100.667 34 -138zM900.501 174.998c61.667 46 92.501 111.662 92.501 196.995
c0 54.667 -11.667 100.334 -35 137.001s-62 68.334 -116 95.001s-128.667 51.334 -224 74.001c-42.667 10.667 -80.334 21 -113.001 31c-80.667 -29.333 -142.5 -72.166 -185.5 -128.499s-64.5 -121.166 -64.5 -194.499c0 -91.333 32 -160.833 96 -208.5
s158.333 -71.5 283 -71.5c116 0 204.833 23 266.5 69z" />
    <glyph glyph-name="nine" unicode="9" horiz-adv-x="1151" 
d="M1025 788c0 -538 -209.001 -807.002 -627.001 -807.002c-107.333 0 -197.333 14.667 -270 44v135c38 -15.333 80 -26.666 126 -33.999s92.333 -11 139 -11c158 0 276 49.833 354 149.5s117.333 257.834 118 474.501c-43.333 -34.667 -95.833 -61.667 -157.5 -81
s-125.167 -29 -190.5 -29c-91.333 0 -171.333 15.833 -240 47.5s-122 79.667 -160 144s-57 144.166 -57 239.499c0 94 19 173.833 57 239.5s90.833 115.334 158.5 149.001s145.834 50.5 234.501 50.5c343.333 0 515 -237 515 -711zM299.499 833.498
c58.333 -51 139.5 -76.5 243.5 -76.5c57.333 0 114.833 9.33301 172.5 28s107.167 47 148.5 85c-6 181.333 -39.333 310 -100 386s-146 114 -256 114c-89.333 0 -161 -25.167 -215 -75.5s-81 -126.5 -81 -228.5c0 -104 29.167 -181.5 87.5 -232.5z" />
    <glyph glyph-name="colon" unicode=":" horiz-adv-x="461" 
d="M147 17c-21.333 20 -32 46.999 -32 80.999s10.5 61.167 31.5 81.5s48.833 30.5 83.5 30.5s62.667 -10.333 84 -31s32 -47.667 32 -81s-10.667 -60.166 -32 -80.499s-49.333 -30.5 -84 -30.5c-34 0 -61.667 10 -83 30zM147 904.999c-21.333 20 -32 46.999 -32 80.999
s10.5 61.167 31.5 81.5s48.833 30.5 83.5 30.5s62.667 -10.333 84 -31s32 -47.667 32 -81s-10.667 -60.166 -32 -80.499s-49.333 -30.5 -84 -30.5c-34 0 -61.667 10 -83 30z" />
    <glyph glyph-name="semicolon" unicode=";" horiz-adv-x="461" 
d="M314.5 174c20.333 -24 30.5 -60.666 30.5 -109.999c0 -66 -9 -131.667 -27 -197s-42.333 -126.333 -73 -183h-95c22.667 60 40 114 52 162s19.333 95 22 141c-32.667 1.33301 -59 12.166 -79 32.499s-30 46.833 -30 79.5c0 34 10.167 61 30.5 81s47.5 30 81.5 30
c38 0 67.167 -12 87.5 -36zM147 905.001c-21.333 20 -32 46.999 -32 80.999s10.5 61.167 31.5 81.5s48.833 30.5 83.5 30.5s62.667 -10.333 84 -31s32 -47.667 32 -81s-10.667 -60.166 -32 -80.499s-49.333 -30.5 -84 -30.5c-34 0 -61.667 10 -83 30z" />
    <glyph glyph-name="less" unicode="&#x3c;" horiz-adv-x="1075" 
d="M926 1161v-136l-637 -264l637 -266v-136l-777 329v144z" />
    <glyph glyph-name="equal" unicode="=" horiz-adv-x="1075" 
d="M149 892v130h777v-130h-777zM149 498v130h777v-130h-777z" />
    <glyph glyph-name="greater" unicode="&#x3e;" horiz-adv-x="1075" 
d="M149 1161l777 -329v-144l-777 -329v136l637 266l-637 264v136z" />
    <glyph glyph-name="question" unicode="?" horiz-adv-x="903" 
d="M327 767c90.667 28 162 58.167 214 90.5s89.167 68.833 111.5 109.5s33.5 89 33.5 145c0 82.667 -27.333 145.5 -82 188.5s-135.334 64.5 -242.001 64.5c-112 0 -219.667 -18.333 -323 -55v134c46.667 17.333 99.834 30.833 159.501 40.5s119.167 14.5 178.5 14.5
c151.333 0 267 -32.833 347 -98.5s120 -158.5 120 -278.5c0 -71.333 -12.5 -133.5 -37.5 -186.5s-64.667 -100 -119 -141s-126.5 -78.167 -216.5 -111.5l-15 -322h-102zM322 16.5c-21.333 19.667 -32 45.833 -32 78.5s10.5 59 31.5 79s49.167 30 84.5 30
c34.667 0 62.5 -10 83.5 -30s31.5 -46.333 31.5 -79c0 -32 -10.5 -58 -31.5 -78s-48.833 -30 -83.5 -30s-62.667 9.83301 -84 29.5z" />
    <glyph glyph-name="at" unicode="@" horiz-adv-x="1919" 
d="M1596.5 1267c144.333 -154 216.5 -386.33 216.5 -696.997c0 -136 -15.333 -247.667 -46 -335s-72.667 -151.333 -126 -192s-115.333 -61 -186 -61c-61.333 0 -111.833 12.667 -151.5 38s-67.834 61.333 -84.501 108h-12c-32.667 -47.333 -77 -83.5 -133 -108.5
s-117 -37.5 -183 -37.5c-67.333 0 -125.666 11.833 -174.999 35.5s-87.333 57.667 -114 102s-40 97.166 -40 158.499c0 95.333 31.167 169.166 93.5 221.499s159.833 85.166 292.5 98.499l256 28v91c0 63.333 -10 113.166 -30 149.499s-50 61.833 -90 76.5
s-91.667 22 -155 22c-44 0 -91.333 -4.16699 -142 -12.5s-100 -21.166 -148 -38.499v132c44.667 16 94.834 28.5 150.501 37.5s109.167 13.5 160.5 13.5c92.667 0 169 -12.333 229 -37s105.333 -65.167 136 -121.5s46 -131.833 46 -226.5v-455c0 -55.333 10 -95.333 30 -120
s50.667 -37 92 -37c60.667 0 110.167 36.167 148.5 108.5s57.166 189.833 56.499 352.5c0 191.333 -27.167 347.333 -81.5 468s-134.666 209.334 -240.999 266.001s-239.5 85 -399.5 85c-160.667 0 -294.5 -29.167 -401.5 -87.5s-187.833 -150.666 -242.5 -276.999
s-82 -290.5 -82 -492.5c0 -206.667 28 -373.334 84 -500.001s140.333 -219.167 253 -277.5s256 -87.5 430 -87.5c67.333 0 132.833 4.66699 196.5 14s130.167 23.666 199.5 42.999v-120c-129.333 -36.667 -261.333 -55 -396 -55c-297.333 0.666992 -522 80.5 -674 239.5
s-228 405.833 -228 740.5c0 332 73.667 578 221 738s360.666 240 639.999 240c276 0 486.167 -77 630.5 -231zM1079 139.503c48 21.667 89.668 55.167 125.001 100.5v280l-245 -27c-81.333 -9.33301 -140.833 -30 -178.5 -62s-56.5 -77.667 -56.5 -137
c0 -61.333 17.667 -107.833 53 -139.5s86.666 -47.5 153.999 -47.5c50.667 0 100 10.833 148 32.5z" />
    <glyph glyph-name="A" unicode="A" horiz-adv-x="1348" 
d="M1154 0l-169 479h-625l-169 -479h-163l531 1480h229l531 -1480h-165zM408 616h528l-264 746z" />
    <glyph glyph-name="B" unicode="B" horiz-adv-x="1259" 
d="M1110.5 643c51 -62.667 76.5 -142.667 76.5 -240c0 -92.667 -22 -169.5 -66 -230.5s-114 -107.167 -210 -138.5s-221.333 -47 -376 -47c-118 0 -240 8 -366 24v1444c133.333 27.333 269 41 407 41c197.333 0 341.333 -32.167 432 -96.5s136 -163.833 136 -298.5
c0 -84 -21.5 -155.833 -64.5 -215.5s-108.5 -100.167 -196.5 -121.5c100.667 -18 176.5 -58.333 227.5 -121zM328 1345v-519.998h291c130.667 0 225 22 283 66s87 112 87 204c0 65.333 -13.333 117.666 -40 156.999s-69 68.166 -127 86.499s-135 27.5 -231 27.5
c-100 0 -187.667 -7 -263 -21zM842.5 148.502c67.667 21 116.167 52.668 145.5 95.001s44 97.166 44 164.499c0 98 -31 170 -93 216s-159.333 69 -292 69h-319v-563c68.667 -8.66699 148.667 -13 240 -13c115.333 0 206.833 10.5 274.5 31.5z" />
    <glyph glyph-name="C" unicode="C" horiz-adv-x="1151" 
d="M279 159.5c-116 119 -174.002 311.501 -174.002 577.501c0 260.667 59 452.834 177 576.501s287.667 185.5 509 185.5c108 0 214.667 -14.333 320 -43v-142c-102 29.333 -206.667 44 -314 44c-115.333 0 -211.166 -20.333 -287.499 -61s-134.333 -106.334 -174 -197.001
s-59.5 -210.334 -59.5 -359.001c0 -152.667 20 -274.5 60 -365.5s97.333 -156 172 -195s167.667 -58.5 279 -58.5c54.667 0 107.834 4.33301 159.501 13s106.5 23 164.5 43v-142c-104 -36.667 -216 -55 -336 -55c-214.667 0 -380 59.5 -496 178.5z" />
    <glyph glyph-name="D" unicode="D" horiz-adv-x="1400" 
d="M169 9l0.000976562 1447c61.333 12 125.666 21.5 192.999 28.5s132 10.5 194 10.5c245.333 0 429.666 -62.167 552.999 -186.5s185 -313.833 185 -568.5c0 -258 -64.167 -447.833 -192.5 -569.5s-322.166 -182.5 -581.499 -182.5c-110.667 0 -227.667 7 -351 21z
M873.001 190c84.667 42 148.166 108.167 190.499 198.5s63.5 207.5 63.5 351.5c0 213.333 -46.333 369.333 -139 468s-235 148 -427 148c-70 0 -146.667 -6.33301 -230 -19v-1197c66.667 -8.66699 140.334 -13 221.001 -13c129.333 0 236.333 21 321 63z" />
    <glyph glyph-name="E" unicode="E" horiz-adv-x="1166" 
d="M330 138h764v-138h-925v1480h915v-138h-754v-514h657v-137h-657v-553z" />
    <glyph glyph-name="F" unicode="F" horiz-adv-x="1125" 
d="M1077 1341h-746v-524h648v-140h-648v-677h-162v1480h908v-139z" />
    <glyph glyph-name="G" unicode="G" horiz-adv-x="1347" 
d="M1196 720l0.000976562 -703.999c-62 -10.667 -119 -18.167 -171 -22.5s-105.667 -6.5 -161 -6.5c-253.333 0 -443 60.667 -569 182s-189.333 311 -190 569c0 260 63.333 451.833 190 575.5s305 185.5 535 185.5c110 0 220.667 -14.667 332 -44v-142
c-57.333 16 -112 27.5 -164 34.5s-104.667 10.5 -158 10.5c-184.667 0 -325 -48.333 -421 -145s-144 -255.334 -144 -476.001c0 -143.333 21.5 -260 64.5 -350s107.167 -155.833 192.5 -197.5s193 -62.5 323 -62.5c67.333 0 129.666 4 186.999 12v581h154z" />
    <glyph glyph-name="H" unicode="H" horiz-adv-x="1444" 
d="M169 0v1480h162v-647h782v647h162v-1480h-162v686h-782v-686h-162z" />
    <glyph glyph-name="I" unicode="I" horiz-adv-x="500" 
d="M169 0v1480h162v-1480h-162z" />
    <glyph glyph-name="J" unicode="J" horiz-adv-x="500" 
d="M-9 -271c64 86.667 109.667 173.168 137 259.501s41 187.166 41 302.499v1189h162v-1210c-4 -120 -23.667 -227.333 -59 -322s-93.333 -192 -174 -292z" />
    <glyph glyph-name="K" unicode="K" horiz-adv-x="1237" 
d="M1077 0l-527 686h-219v-686h-162v1480h162v-648h222l487 648h178l-542 -718l584 -762h-183z" />
    <glyph glyph-name="L" unicode="L" horiz-adv-x="1071" 
d="M169 0v1480h162v-1338h728v-142h-890z" />
    <glyph glyph-name="M" unicode="M" horiz-adv-x="1760" 
d="M1394 1480h193v-1480h-153v1239l-481 -1034h-146l-481 1022v-1227h-153v1480h193l517 -1111z" />
    <glyph glyph-name="N" unicode="N" horiz-adv-x="1469" 
d="M1146 1480h154v-1480h-167l-810 1232v-1232h-154v1480h167l810 -1232v1232z" />
    <glyph glyph-name="O" unicode="O" horiz-adv-x="1439" 
d="M267.5 167c-108.333 124 -162.501 315 -162.501 573c0 174 25.167 317.333 75.5 430s121.333 195.667 213 249s200.167 80 325.5 80c192.667 0 343.167 -62 451.5 -186s162.5 -315 162.5 -573c0 -173.333 -25.167 -316.5 -75.5 -429.5s-121.166 -196.167 -212.499 -249.5
s-200 -80 -326 -80c-192.667 0 -343.167 62 -451.5 186zM1049 265.5c77.333 96.333 116 252.833 116 469.5c0 221.333 -38.667 380.666 -116 477.999s-187.333 146 -330 146c-142 0 -251.833 -48.167 -329.5 -144.5s-116.5 -252.833 -116.5 -469.5
c0 -221.333 38.667 -380.666 116 -477.999s187.333 -146 330 -146s252.667 48.167 330 144.5z" />
    <glyph glyph-name="P" unicode="P" horiz-adv-x="1233" 
d="M169 1458c135.333 25.333 262.001 38 380.001 38c197.333 0 345.666 -41 444.999 -123s149 -209.333 149 -382c0 -166.667 -50.667 -292.667 -152 -378s-256.333 -128 -465 -128c-61.333 0 -126.333 3 -195 9v-494h-162v1458zM874.001 707c72 60 108 153.667 108 281
c0 130 -34.5 225 -103.5 285s-175.167 90 -318.5 90c-82.667 0 -159 -6 -229 -18v-716c64 -8 130 -12 198 -12c158 0 273 30 345 90z" />
    <glyph glyph-name="Q" unicode="Q" horiz-adv-x="1439" 
d="M1198 205c-90 -126.667 -222.333 -196.335 -397 -209.002c142.667 -42 312 -72.333 508 -91l-26 -135c-303.333 37.333 -540 93.833 -710 169.5s-290.5 176.834 -361.5 303.501s-106.5 291.667 -106.5 495c0 258.667 54.5 450.167 163.5 574.5s259.167 186.5 450.5 186.5
c192.667 0 343.167 -61.667 451.5 -185s162.5 -314.666 162.5 -573.999c0 -230 -45 -408.333 -135 -535zM388.5 266.499c77 -97 187.167 -145.499 330.5 -145.499c142.667 0 252.667 48.167 330 144.5s116 252.833 116 469.5c0 221.333 -38.667 380.666 -116 477.999
s-187.333 146 -330 146c-142 0 -251.833 -48.167 -329.5 -144.5s-116.5 -252.833 -116.5 -469.5c0 -222 38.5 -381.5 115.5 -478.5z" />
    <glyph glyph-name="R" unicode="R" horiz-adv-x="1307" 
d="M1074 0l-460 613.001c-33.333 -1.33301 -59.666 -2 -78.999 -2c-66.667 0 -135.334 2.66699 -206.001 8v-619h-160v1456c136.667 26.667 268.334 40 395.001 40c196 0 341.333 -35.667 436 -107s142 -182 142 -332c0.666992 -114 -29.833 -206.333 -91.5 -277
s-152.834 -119.334 -273.501 -146.001l479 -634h-182zM433.5 743.001c29 -1.33301 63.168 -2.00098 102.501 -2.00098c157.333 0 272 25.333 344 76s108 130 108 238c0 74 -14.333 133.667 -43 179s-73.334 78.5 -134.001 99.5s-139.667 31.5 -237 31.5
c-48 0 -90.5 -1.66699 -127.5 -5s-76.167 -8.66602 -117.5 -15.999v-593c40.667 -4 75.5 -6.66699 104.5 -8z" />
    <glyph glyph-name="S" unicode="S" horiz-adv-x="1063" 
d="M277 -3.5c-63.333 10.333 -123.332 25.168 -179.999 44.501v140c60 -20.667 121.5 -36 184.5 -46s123.833 -15 182.5 -15c240.667 0 361 90.333 361 271c0 50 -9.83301 91.833 -29.5 125.5s-50.667 62 -93 85s-99.833 43.833 -172.5 62.5l-80 21
c-126.667 32.667 -221 81.5 -283 146.5s-93 150.5 -93 256.5c0 85.333 19.833 158.833 59.5 220.5s98.667 108.834 177 141.501s175.166 49 290.499 49c57.333 0 114 -3.83301 170 -11.5s107 -18.834 153 -33.501v-140c-100 30.667 -206 46 -318 46
c-124.667 0 -217.167 -22.5 -277.5 -67.5s-90.5 -109.833 -90.5 -194.5c0 -48.667 8.83301 -89.667 26.5 -123s46.167 -61.5 85.5 -84.5s93 -43.5 161 -61.5l80 -20c137.333 -34.667 238 -84.667 302 -150s96 -151.333 96 -258c0 -88.667 -20.667 -164.334 -62 -227.001
s-101.333 -110.5 -180 -143.5s-173.667 -49.5 -285 -49.5c-60 0 -121.667 5.16699 -185 15.5z" />
    <glyph glyph-name="T" unicode="T" horiz-adv-x="1175" 
d="M506 0v1338h-492v142h1148v-142h-493v-1338h-163z" />
    <glyph glyph-name="U" unicode="U" horiz-adv-x="1417" 
d="M400 43c-80.667 41.333 -140.5 104.5 -179.5 189.5s-58.5 194.167 -58.5 327.5v920h162v-938c0 -146 31 -252.667 93 -320s159.667 -101 293 -101s231 33.667 293 101s93 174 93 320v938h159v-920c0 -133.333 -19.333 -242.5 -58 -327.5s-98 -148.167 -178 -189.5
s-183 -62 -309 -62s-229.333 20.667 -310 62z" />
    <glyph glyph-name="V" unicode="V" horiz-adv-x="1313" 
d="M1141 1480h161l-528 -1480h-236l-527 1480h172l478 -1355z" />
    <glyph glyph-name="W" unicode="W" horiz-adv-x="2114" 
d="M1902 1480h156l-416 -1480h-213l-370 1303l-375 -1303h-212l-417 1480h166l366 -1331l378 1331h191l375 -1335z" />
    <glyph glyph-name="X" unicode="X" horiz-adv-x="1279" 
d="M735 756l531 -756h-186l-442 630l-444 -630h-183l532 754l-513 726h186l424 -600l424 600h181z" />
    <glyph glyph-name="Y" unicode="Y" horiz-adv-x="1175" 
d="M1197 1480l-528 -822v-658h-162v658l-538 822h179l443 -679l438 679h168z" />
    <glyph glyph-name="Z" unicode="Z" horiz-adv-x="1153" 
d="M275 140h817v-140h-1031v91l805 1249h-793v140h1007v-91z" />
    <glyph glyph-name="bracketleft" unicode="[" horiz-adv-x="659" 
d="M189 -440v2056h507v-133h-347v-1790h345v-133h-505z" />
    <glyph glyph-name="backslash" unicode="\" horiz-adv-x="619" 
d="M459 -240l-459 1856h160l459 -1856h-160z" />
    <glyph glyph-name="bracketright" unicode="]" horiz-adv-x="659" 
d="M-34 -440v133h344v1790h-346v133h506v-2056h-504z" />
    <glyph glyph-name="asciicircum" unicode="^" 
d="M1061 740h-164l-319 604l-319 -604h-163l397 740h169z" />
    <glyph glyph-name="underscore" unicode="_" horiz-adv-x="1122" 
d="M92 -133v133h938v-133h-938z" />
    <glyph glyph-name="grave" unicode="`" horiz-adv-x="1058" 
d="M455 1253l-241 363h173l216 -363h-148z" />
    <glyph glyph-name="a" unicode="a" horiz-adv-x="1029" 
d="M707 1065c60.667 -24.667 106.326 -65.668 136.993 -123.001s46 -134.333 46 -231v-711h-134l-12 121h-11c-34.667 -44 -79.5 -78.167 -134.5 -102.5s-114.5 -36.5 -178.5 -36.5c-67.333 0 -125.666 11.833 -174.999 35.5s-87.166 57.834 -113.499 102.501
s-39.5 97.334 -39.5 158.001c0 96 31.333 170.167 94 222.5s162.334 85.166 299.001 98.499l248 27v93c0 64.667 -10.167 115.334 -30.5 152.001s-50.666 62.5 -90.999 77.5s-93.166 22.5 -158.499 22.5c-44.667 0 -92.5 -4 -143.5 -12s-100.833 -20.333 -149.5 -37v132
c44.667 15.333 95.334 27.166 152.001 35.499s110.667 12.5 162 12.5c94.667 0 172.334 -12.333 233.001 -37zM607.992 137.999c47.333 21.333 89.001 54.6689 125.001 100.002v280l-237 -26c-84.667 -8.66699 -146.167 -29.334 -184.5 -62.001
s-57.5 -78.334 -57.5 -137.001c0 -61.333 17.333 -107.833 52 -139.5s86 -47.5 154 -47.5c51.333 0 100.666 10.667 147.999 32z" />
    <glyph glyph-name="b" unicode="b" horiz-adv-x="1129" 
d="M313 -6.5c-58 8.33301 -111.999 20.499 -161.999 36.499v1586h160v-643h10c34 40 76.667 71.5 128 94.5s108.666 34.5 171.999 34.5c79.333 0 150 -18.167 212 -54.5s111.167 -94.666 147.5 -174.999s54.5 -183.5 54.5 -309.5c0 -388 -183 -582 -549 -582
c-57.333 0 -115 4.16699 -173 12.5zM779.001 215.999c62 69.333 92.999 180.332 92.999 332.999c0 151.333 -26.333 258.333 -79 321s-126 94 -220 94c-51.333 0 -100.166 -10.667 -146.499 -32s-84.833 -52.666 -115.5 -93.999v-701c54.667 -16.667 117 -25 187 -25
c125.333 0 219 34.667 281 104z" />
    <glyph glyph-name="c" unicode="c" horiz-adv-x="875" 
d="M216 117c-81.333 90.667 -122.002 232.332 -122.002 424.999s43.833 334.167 131.5 424.5s217.167 135.5 388.5 135.5c80.667 0 155 -9.33301 223 -28v-136c-71.333 18 -139.666 27 -204.999 27c-85.333 0 -155.166 -13.667 -209.499 -41s-95 -71.666 -122 -132.999
s-40.5 -143 -40.5 -245c0 -103.333 12.5 -186.5 37.5 -249.5s62.167 -108.667 111.5 -137s112 -42.5 188 -42.5c70 0 150 15 240 45v-136c-84.667 -30 -172.334 -45 -263.001 -45c-157.333 0 -276.666 45.333 -357.999 136z" />
    <glyph glyph-name="d" unicode="d" horiz-adv-x="1129" 
d="M301 36c-64 36.667 -114.5 95.168 -151.5 175.501s-55.5 183.166 -55.5 308.499c0 194 46.167 339.5 138.5 436.5s228.833 145.5 409.5 145.5c52 0 110.667 -5 176 -15v529h160v-1616h-137l-11 118h-10c-34 -42 -76.667 -75.333 -128 -100s-108.333 -37 -171 -37
c-82.667 0 -156 18.333 -220 55zM703 152.501c46 22.333 84.333 55.833 115 100.5v699c-25.333 5.33301 -54 9.83301 -86 13.5s-63 5.5 -93 5.5c-128.667 0 -224.5 -34.5 -287.5 -103.5s-94.5 -179.833 -94.5 -332.5c0 -151.333 26.167 -258.5 78.5 -321.5
s126.5 -94.5 222.5 -94.5c50.667 0 99 11.167 145 33.5z" />
    <glyph glyph-name="e" unicode="e" horiz-adv-x="1030" 
d="M951 489l-695.001 -0.000976562c2.66699 -91.333 17.834 -164.666 45.501 -219.999s68.167 -95.333 121.5 -120s121.333 -37 204 -37c78.667 0 168.667 14.667 270 44v-131c-98.667 -29.333 -195 -44 -289 -44c-172.667 0 -301.5 44.667 -386.5 134
s-127.5 232 -127.5 428c0 186 38.5 325.667 115.5 419s184.833 140 323.5 140c135.333 0 238.833 -46.5 310.5 -139.5s107.5 -234.167 107.5 -423.5v-50zM329.999 894.999c-46.667 -60 -71.333 -158.667 -74 -296h541c-2.66699 138 -26.167 236.833 -70.5 296.5
s-109.5 89.5 -195.5 89.5c-87.333 0 -154.333 -30 -201 -90z" />
    <glyph glyph-name="f" unicode="f" horiz-adv-x="717" 
d="M442.5 1443.5c-40.333 -38.333 -60.5 -101.167 -60.5 -188.5v-170h341v-132h-341v-953h-159v953h-205v132h205v162c0 128 33.333 224.833 100 290.5s165 98.5 295 98.5c50 0 99 -4 147 -12v-135c-44.667 8 -88.667 12 -132 12c-86.667 0 -150.167 -19.167 -190.5 -57.5z
" />
    <glyph glyph-name="g" unicode="g" horiz-adv-x="1129" 
d="M319 -447.5c-56.667 8.33301 -108.668 20.499 -156.001 36.499v134c108.667 -34 212.334 -51 311.001 -51c80 0 145 11 195 33s87.333 57.667 112 107s37 115.333 37 198v105h-10c-34 -40 -76.667 -71.5 -128 -94.5s-108.666 -34.5 -171.999 -34.5
c-78.667 0 -149 18.167 -211 54.5s-111.333 94.333 -148 174s-55 181.834 -55 306.501c0 193.333 46.167 338.333 138.5 435s229.5 145.334 411.5 146.001c56 0 113.5 -4.33301 172.5 -13s112.833 -20.667 161.5 -36v-1018c0 -117.333 -18.333 -212.333 -55 -285
s-91.334 -125.834 -164.001 -159.501s-165 -50.5 -277 -50.5c-52 0 -106.333 4.16699 -163 12.5zM701.999 154.499c46.667 21 85.332 52.166 115.999 93.499v701c-60 14.667 -122.333 22 -187 22c-124.667 0 -218.167 -34.667 -280.5 -104s-93.5 -179.666 -93.5 -330.999
s26.167 -258 78.5 -320s125.833 -93 220.5 -93c50.667 0 99.334 10.5 146.001 31.5z" />
    <glyph glyph-name="h" unicode="h" horiz-adv-x="1137" 
d="M151 1616h160.001v-652h10c43.333 45.333 93.333 79.666 150 102.999s118 35 184 35c106 0 189.5 -30.5 250.5 -91.5s91.5 -158.5 91.5 -292.5v-718h-160v711c0 88.667 -19.5 151.834 -58.5 189.501s-95.167 56.5 -168.5 56.5c-55.333 0 -109.833 -11.667 -163.5 -35
s-98.834 -59.333 -135.501 -108v-814h-160v1616z" />
    <glyph glyph-name="i" unicode="i" horiz-adv-x="463" 
d="M151 0v1085h160v-1085h-160zM148 1346.5c-19.333 17.667 -29 42.5 -29 74.5s9.83301 57 29.5 75s47.167 27 82.5 27s62.666 -9 81.999 -27s29 -43 29 -75s-9.66699 -56.833 -29 -74.5s-46.666 -26.5 -81.999 -26.5c-36 0 -63.667 8.83301 -83 26.5z" />
    <glyph glyph-name="j" unicode="j" horiz-adv-x="463" 
d="M-28 -392c64 86.667 109.833 173.168 137.5 259.501s41.5 187.166 41.5 302.499v915h160v-906c0 -128.667 -18 -242.5 -54 -341.5s-95.333 -199.5 -178 -301.5zM147 1351.5c-19.333 17.667 -29 42.5 -29 74.5s9.83301 57 29.5 75s47.167 27 82.5 27s62.666 -9 81.999 -27
s29 -43 29 -75s-9.66699 -56.833 -29 -74.5s-46.666 -26.5 -81.999 -26.5c-36 0 -63.667 8.83301 -83 26.5z" />
    <glyph glyph-name="k" unicode="k" horiz-adv-x="1038" 
d="M878 0l-383 489h-184v-489h-160v1616h160v-993h183l354 462h178l-399 -527l432 -558h-181z" />
    <glyph glyph-name="l" unicode="l" horiz-adv-x="462" 
d="M151 0v1616h160v-1616h-160z" />
    <glyph glyph-name="m" unicode="m" horiz-adv-x="1694" 
d="M1467.5 1010.5c58.333 -61 87.5039 -158.5 87.5039 -292.5v-718h-160v711c0 88 -18 151.333 -54 190s-86.333 58 -151 58c-46.667 0 -93.5 -11.167 -140.5 -33.5s-87.167 -57.5 -120.5 -105.5c4 -30 6 -62.667 6 -98v-722h-158v711c0 88.667 -17.333 152.167 -52 190.5
s-84 57.5 -148 57.5c-48.667 0 -97 -12.333 -145 -37s-88.333 -62 -121 -112v-810h-160v1085h135l11 -123h11c41.333 46 88.666 80.833 141.999 104.5s110.666 35.5 171.999 35.5c131.333 0 221.666 -52 270.999 -156c47.333 54 100 93.5 158 118.5s117 37.5 177 37.5
c101.333 0 181.166 -30.5 239.499 -91.5z" />
    <glyph glyph-name="n" unicode="n" horiz-adv-x="1137" 
d="M151 1085l134.999 -0.00195312l11 -123h11c44.667 45.333 96.167 80 154.5 104s120.5 36 186.5 36c108.667 0 193.834 -30.5 255.501 -91.5s92.5 -158.833 92.5 -293.5v-717h-160v710c0 88.667 -19.5 152.334 -58.5 191.001s-95.167 58 -168.5 58
c-54 0 -108 -11.667 -162 -35s-99.667 -59.666 -137 -108.999v-815h-160v1085z" />
    <glyph glyph-name="o" unicode="o" horiz-adv-x="1111" 
d="M215.5 118.5c-81 91.667 -121.502 232.499 -121.502 422.499s40.333 331 121 423s194 138 340 138c146.667 0 260.334 -45.667 341.001 -137s121 -232.333 121 -423c0 -189.333 -40.667 -330.166 -122 -422.499s-194.666 -138.5 -339.999 -138.5
s-258.5 45.833 -339.5 137.5zM776.998 209.499c50.667 65.667 76 175.499 76 329.499c0 156.667 -25.333 267.834 -76 333.501s-124.667 98.5 -222 98.5c-96.667 0 -170.5 -32.667 -221.5 -98s-76.5 -175 -76.5 -329c0 -156 25.333 -267.167 76 -333.5
s124.667 -99.5 222 -99.5s171.333 32.833 222 98.5z" />
    <glyph glyph-name="p" unicode="p" horiz-adv-x="1129" 
d="M151 1085l137 0.000976562l11 -120h10c34 42 76.667 75.333 128 100s108.333 37 171 37c82 0 155 -18 219 -54s114.667 -94.167 152 -174.5s56 -183.833 56 -310.5c0 -194.667 -46 -340.334 -138 -437.001s-228.667 -145 -410 -145c-48 0 -106.667 4.66699 -176 14v-435
h-160v1525zM777.5 215.501c63 69 94.5 179.833 94.5 332.5s-26.333 260.167 -79 322.5s-126.667 93.5 -222 93.5c-50.667 0 -99 -11.167 -145 -33.5s-84.333 -55.833 -115 -100.5v-699c25.333 -5.33301 54 -9.83301 86 -13.5s63 -5.5 93 -5.5
c128.667 0 224.5 34.5 287.5 103.5z" />
    <glyph glyph-name="q" unicode="q" horiz-adv-x="1129" 
d="M818 110l-10.001 0.000976562c-34 -40 -76.667 -71.5 -128 -94.5s-108.666 -34.5 -171.999 -34.5c-79.333 0 -150 18.167 -212 54.5s-111.167 94.666 -147.5 174.999s-54.5 183.5 -54.5 309.5c0 388 183 582 549 582c56.667 0 114.5 -4.33301 173.5 -13
s112.833 -20.667 161.5 -36v-1493h-160v550zM701.999 150.501c46.667 21 85.332 52.167 115.999 93.5v705c-60 14.667 -122.667 22 -188 22c-124 0 -217.167 -34.833 -279.5 -104.5s-93.5 -180.5 -93.5 -332.5c0 -151.333 26.333 -258.333 79 -321s126 -94 220 -94
c50.667 0 99.334 10.5 146.001 31.5z" />
    <glyph glyph-name="r" unicode="r" horiz-adv-x="724" 
d="M151 1085l134 -0.000976562l13 -145h10c36 50 82.167 88.5 138.5 115.5s115.833 40.5 178.5 40.5c29.333 0 58.333 -2.66699 87 -8v-149c-28.667 4.66699 -60 7 -94 7c-56.667 0 -113.5 -13.167 -170.5 -39.5s-102.5 -64.166 -136.5 -113.499v-793h-160v1085z" />
    <glyph glyph-name="s" unicode="s" horiz-adv-x="900" 
d="M109 25l0.00195312 129c99.333 -30 199.666 -45 300.999 -45c178.667 0 268 60.667 268 182c0 49.333 -12.833 87 -38.5 113s-68.5 45.667 -128.5 59l-147 30c-96.667 20.667 -166.667 55 -210 103s-65 112 -65 192c0 62 15.667 116.667 47 164
s79.166 84.166 143.499 110.499s143.833 39.5 238.5 39.5c87.333 0 172.666 -10.667 255.999 -32v-130c-44 12 -86 20.667 -126 26s-82 8 -126 8c-98 0 -169.167 -16.5 -213.5 -49.5s-66.5 -77.167 -66.5 -132.5c0 -44.667 12.333 -80.667 37 -108
s66.334 -47.333 125.001 -60l147 -30c98.667 -20.667 170.167 -54.667 214.5 -102s66.5 -111.666 66.5 -192.999c0 -100 -36.333 -178 -109 -234s-177 -84 -313 -84c-110 0 -210.333 14.667 -301 44z" />
    <glyph glyph-name="t" unicode="t" horiz-adv-x="749" 
d="M733 136l0.00195312 -134.999c-56.667 -13.333 -112.334 -20 -167.001 -20c-234 0 -351 120 -351 360v612h-205v132h205l26 395h134v-395h341v-132h-341v-587c0 -88.667 18.167 -151.834 54.5 -189.501s93.166 -56.5 170.499 -56.5c38 0 82.333 5.33301 133 16z" />
    <glyph glyph-name="u" unicode="u" horiz-adv-x="1127" 
d="M231.5 73c-61.667 60.667 -92.5 157.667 -92.5 291v721h160v-713c0 -88 19.5 -151.167 58.5 -189.5s93.5 -57.5 163.5 -57.5c53.333 0 106.833 12 160.5 36s98.5 60 134.5 108v816h160v-1085h-135l-12 119h-10c-44.667 -45.333 -95.5 -79.5 -152.5 -102.5
s-117.5 -34.5 -181.5 -34.5c-107.333 0 -191.833 30.333 -253.5 91z" />
    <glyph glyph-name="v" unicode="v" horiz-adv-x="1057" 
d="M880 1085h161l-410 -1085h-206l-409 1085h170l347 -942z" />
    <glyph glyph-name="w" unicode="w" horiz-adv-x="1691" 
d="M1480 1085h151l-316 -1085h-189l-279 927l-281 -927h-188l-318 1085h157l263 -919l275 919h188l274 -914z" />
    <glyph glyph-name="x" unicode="x" horiz-adv-x="1010" 
d="M600 549l397 -549h-183l-310 432l-309 -432h-180l394 547l-386 538h183l301 -419l302 419h177z" />
    <glyph glyph-name="y" unicode="y" horiz-adv-x="1057" 
d="M880 1085h161l-576 -1525h-160l167 440h-47l-409 1085h170l344 -951z" />
    <glyph glyph-name="z" unicode="z" horiz-adv-x="918" 
d="M264 133h600v-133h-802v99l589 854h-577v132h778v-99z" />
    <glyph glyph-name="braceleft" unicode="{" horiz-adv-x="699" 
d="M351.5 707c-25 -40 -64.5 -67.333 -118.5 -82c54 -15.333 93.5 -42.833 118.5 -82.5s37.5 -93.167 37.5 -160.5v-494c0 -74 18.333 -127.833 55 -161.5s93 -50.5 169 -50.5h123v-125c-45.333 -7.33301 -92 -11 -140 -11c-121.333 0 -212.833 29.167 -274.5 87.5
s-92.5 145.833 -92.5 262.5v502c0 56.667 -13.667 98.5 -41 125.5s-68.333 40.5 -123 40.5h-29v133h29c54.667 0 95.667 13.5 123 40.5s41 68.833 41 125.5v429c0 116.667 30.833 204.167 92.5 262.5s153.167 87.5 274.5 87.5c48 0 94.667 -3.66699 140 -11v-125h-123
c-76 0 -132.333 -16.833 -169 -50.5s-55 -87.5 -55 -161.5v-421c0 -66.667 -12.5 -120 -37.5 -160z" />
    <glyph glyph-name="bar" unicode="|" horiz-adv-x="486" 
d="M169 -440v2056h148v-2056h-148z" />
    <glyph glyph-name="braceright" unicode="}" horiz-adv-x="699" 
d="M664 691v-133h-29c-110 0 -165 -55.333 -165 -166v-502c0 -116.667 -30.833 -204.167 -92.5 -262.5s-153.167 -87.5 -274.5 -87.5c-48.667 0 -95 3.66699 -139 11v125h122c76 0 132.333 16.833 169 50.5s55 87.5 55 161.5v494c0 67.333 12.667 120.833 38 160.5
s65 67.167 119 82.5c-54 14.667 -93.667 42 -119 82s-38 93.333 -38 160v421c0 74 -18.333 127.833 -55 161.5s-93 50.5 -169 50.5h-122v125c44 7.33301 90.333 11 139 11c121.333 0 212.833 -29.167 274.5 -87.5s92.5 -145.833 92.5 -262.5v-429
c0 -110.667 55 -166 165 -166h29z" />
    <glyph glyph-name="asciitilde" unicode="~" horiz-adv-x="1075" 
d="M626 648.5c-28.667 10.333 -64.998 26.166 -108.998 47.499c-35.333 18 -64.833 31.5 -88.5 40.5s-47.5 13.5 -71.5 13.5c-40.667 0 -77.834 -8.83301 -111.501 -26.5s-65.834 -45.167 -96.501 -82.5v144c24.667 30.667 54.667 53.834 90 69.501
s74.666 23.5 117.999 23.5c32.667 0 64.334 -5.33301 95.001 -16s66.334 -26.334 107.001 -47.001c36.667 -18 66.5 -31.333 89.5 -40s46.167 -13 69.5 -13c40 0 77 8.83301 111 26.5s66.333 44.834 97 81.501v-144c-50 -62 -119.333 -93 -208 -93
c-32.667 0 -63.334 5.16699 -92.001 15.5z" />
    <glyph glyph-name="uni00A0" unicode="&#xa0;" horiz-adv-x="489" 
 />
    <glyph glyph-name="exclamdown" unicode="&#xa1;" horiz-adv-x="501" 
d="M334 1067.5c21.333 -20.333 32 -47.167 32 -80.5s-10.667 -60.333 -32 -81s-49.333 -31 -84 -31s-62.5 10.167 -83.5 30.5s-31.5 47.5 -31.5 81.5s10.667 61 32 81s49 30 83 30c34.667 0 62.667 -10.167 84 -30.5zM200 705.999h102l34 -542v-544h-171v544z" />
    <glyph glyph-name="cent" unicode="&#xa2;" horiz-adv-x="880" 
d="M420.5 924c-53.667 -27.333 -93.833 -71.6699 -120.5 -133.003s-40 -143 -40 -245c0 -103.333 12.5 -186.5 37.5 -249.5s62.167 -108.667 111.5 -137s112 -42.5 188 -42.5c70 0 150 15 240 45v-136c-68 -24 -136.333 -38.333 -205 -43v-223h-140v225
c-130.667 14.667 -229.667 67.334 -297 158.001s-101 223.667 -101 399c0 168.667 33.5 297.834 100.5 387.501s166.167 144.167 297.5 163.5v232h140v-223c70.667 -1.33301 139 -10.666 205 -27.999v-136c-72 18 -141.333 27 -208 27
c-85.333 0 -154.833 -13.667 -208.5 -41z" />
    <glyph glyph-name="sterling" unicode="&#xa3;" horiz-adv-x="1267" 
d="M1194 136v-136h-1117v136h220v550h-220v128h220v229c0 152 45 266 135 342s223.667 114 401 114c56 0 111.833 -3.83301 167.5 -11.5s106.5 -18.5 152.5 -32.5v-140c-98 30 -202.333 45 -313 45c-132 0 -229 -24.333 -291 -73s-93 -128.667 -93 -240v-233h520v-128h-520
v-550h738z" />
    <glyph glyph-name="currency" unicode="&#xa4;" 
d="M950 458l104.999 -101l-93 -93l-102 104l-75 94c-58 -43.333 -127 -65 -207 -65c-80.667 0 -149.334 21.667 -206.001 65l-76 -94l-101 -104l-93 93l105 101l97 77c-38 56.667 -57 125 -57 205c0 79.333 19 147.333 57 204l-97 78l-106 101l93 93l101 -104l77 -96
c56.667 43.333 125.334 65 206.001 65s149.334 -21.667 206.001 -65l78 96l101 104l93 -93l-106 -101l-98 -78c38.667 -57.333 58 -125.333 58 -204s-19 -147 -57 -205zM739.999 564.5c40.667 42.333 60.999 100.833 60.999 175.5c0 46.667 -8.66699 88 -26 124
s-42.666 64.167 -75.999 84.5s-73 30.5 -119 30.5c-44 0 -83 -9.5 -117 -28.5s-60.333 -46.5 -79 -82.5s-28 -78.667 -28 -128s9.33301 -92 28 -128s44.667 -63.5 78 -82.5s72 -28.5 116 -28.5c67.333 0 121.333 21.167 162 63.5z" />
    <glyph glyph-name="yen" unicode="&#xa5;" horiz-adv-x="1213" 
d="M1219 1480l-472 -731h259v-110h-318v-230h318v-110h-318v-299h-162v299h-317v110h317v230h-317v110h258l-476 731h179l441 -679l440 679h168z" />
    <glyph glyph-name="brokenbar" unicode="&#xa6;" horiz-adv-x="486" 
d="M169 836v780h148v-780h-148zM169 -440v780h148v-780h-148z" />
    <glyph glyph-name="section" unicode="&#xa7;" horiz-adv-x="1014" 
d="M866 297c0 -99.333 -36.168 -176.83 -108.501 -232.497s-178.166 -83.5 -317.499 -83.5c-105.333 0 -203.333 13.667 -294 41v125c52.667 -15.333 102.5 -26.333 149.5 -33s95.167 -10 144.5 -10c95.333 0 165 15.667 209 47s66 76.666 66 135.999
c0 48.667 -12.833 86.167 -38.5 112.5s-68.5 46.166 -128.5 59.499l-161 34c-92 20.667 -159.667 54.667 -203 102s-65 110.333 -65 189c0 42.667 8.5 81.834 25.5 117.501s41.5 67.167 73.5 94.5c-48.667 46.667 -73 109 -73 187c0 62 15.667 116.5 47 163.5
s79.5 83.833 144.5 110.5s145.833 40 242.5 40c88 0 171 -10 249 -30v-124c-43.333 10.667 -83.833 18.334 -121.5 23.001s-77.5 7 -119.5 7c-102 0 -176 -16.5 -222 -49.5s-69 -77.167 -69 -132.5c0 -44.667 12.667 -80.834 38 -108.501s67 -47.834 125 -60.501l162 -33
c96 -20.667 165.667 -54.334 209 -101.001s65 -110 65 -190c0 -87.333 -32.667 -159 -98 -215c46 -46 69 -108 69 -186zM589.999 579.003c43.333 -10 78 -20.666 104 -31.999c42 36 63 82.667 63 140c0 51.333 -13.833 91.166 -41.5 119.499s-73.167 49.5 -136.5 63.5
l-160 33c-36.667 8 -69.667 18 -99 30c-42 -38 -63 -85 -63 -141c0 -46.667 13.333 -85 40 -115s70.667 -51.667 132 -65z" />
    <glyph glyph-name="dieresis" unicode="&#xa8;" horiz-adv-x="1058" 
d="M236.5 1348.5c-18.333 17.667 -27.5 41.834 -27.5 72.501s9.16699 55 27.5 73s43.5 27 75.5 27c31.333 0 56.166 -9 74.499 -27s27.5 -42.333 27.5 -73s-9.16699 -54.834 -27.5 -72.501s-43.166 -26.5 -74.499 -26.5c-32 0 -57.167 8.83301 -75.5 26.5zM671.5 1348.5
c-18.333 17.667 -27.5 41.834 -27.5 72.501s9.16699 55 27.5 73s43.166 27 74.499 27c32 0 57.167 -9 75.5 -27s27.5 -42.333 27.5 -73s-9.16699 -54.834 -27.5 -72.501s-43.5 -26.5 -75.5 -26.5c-31.333 0 -56.166 8.83301 -74.499 26.5z" />
    <glyph glyph-name="copyright" unicode="&#xa9;" horiz-adv-x="1702" 
d="M460 73c-112.667 63.333 -200 152.5 -262 267.5s-93 248.167 -93 399.5s31 284.5 93 399.5s149.333 204.167 262 267.5s243 95 391 95c147.333 0 277.333 -31.667 390 -95s200 -152.5 262 -267.5s93 -248.167 93 -399.5s-31 -284.5 -93 -399.5
s-149.333 -204.167 -262 -267.5s-242.667 -95 -390 -95c-148 0 -278.333 31.667 -391 95zM1187 165c96 54 170.167 130.5 222.5 229.5s78.5 214.167 78.5 345.5s-26.167 246.5 -78.5 345.5s-126.5 175.5 -222.5 229.5s-208 81 -336 81s-240 -27 -336 -81
s-170.167 -130.5 -222.5 -229.5s-78.5 -214.167 -78.5 -345.5s26.167 -246.5 78.5 -345.5s126.5 -175.5 222.5 -229.5s208 -81 336 -81s240 27 336 81zM683 371c-60 31.333 -106.501 77.499 -139.501 138.499s-49.5 135.5 -49.5 223.5
c0 130.667 36.833 231.834 110.5 303.501s177.834 107.5 312.501 107.5c68 0 132 -8.66699 192 -26v-114c-66 16 -127.333 24 -184 24c-199.333 0 -299 -97.333 -299 -292c0 -98.667 24.333 -172.667 73 -222s117.667 -74 207 -74c64 0 131.667 12.333 203 37v-114
c-61.333 -26 -133 -39 -215 -39c-80.667 0 -151 15.667 -211 47z" />
    <glyph glyph-name="ordfeminine" unicode="&#xaa;" horiz-adv-x="867" 
d="M597.5 1464c52.333 -20.667 91.666 -54.667 117.999 -102s39.5 -111 39.5 -191v-561h-125l-12 97h-9c-29.333 -35.333 -67.166 -62.833 -113.499 -82.5s-96.166 -29.5 -149.499 -29.5c-56.667 0 -105.834 9.83301 -147.501 29.5s-73.667 47.5 -96 83.5
s-33.5 78.333 -33.5 127c0 78 26.333 138.167 79 180.5s136.667 68.5 252 78.5l207 20v72c0 48 -8.33301 85.667 -25 113s-41.834 46.833 -75.501 58.5s-78.167 17.5 -133.5 17.5c-37.333 0 -77.166 -3.33301 -119.499 -10s-84.166 -16.667 -125.499 -30v120
c39.333 12.667 82.666 22.5 129.999 29.5s93 10.5 137 10.5c82.667 0 150.167 -10.333 202.5 -31zM506 731c38 16 71.666 40.668 100.999 74.001v218l-191 -19c-69.333 -6.66699 -119.666 -22.334 -150.999 -47.001s-47 -59.667 -47 -105c0 -47.333 14.5 -83.333 43.5 -108
s71.833 -37 128.5 -37c39.333 0 78 8 116 24z" />
    <glyph glyph-name="guillemotleft" unicode="&#xab;" horiz-adv-x="1008" 
d="M367 137l-255 426l255 425h165l-254 -425l254 -426h-165zM771 137l-255 426l255 425h165l-254 -425l254 -426h-165z" />
    <glyph glyph-name="logicalnot" unicode="&#xac;" horiz-adv-x="1334" 
d="M1058 194v501h-909v130h1045v-631h-136z" />
    <glyph glyph-name="uni00AD" unicode="&#xad;" horiz-adv-x="837" 
d="M149 495v135h540v-135h-540z" />
    <glyph glyph-name="registered" unicode="&#xae;" horiz-adv-x="1502" 
d="M1068.5 1420c92.333 -52 164.166 -124.667 215.499 -218s77 -200 77 -320s-25.667 -226.5 -77 -319.5s-123.166 -165.333 -215.499 -217s-198.166 -77.5 -317.499 -77.5s-225.166 25.833 -317.499 77.5s-164.166 124 -215.499 217s-77 199.5 -77 319.5
s25.667 226.667 77 320s123.166 166 215.499 218s198.166 78 317.499 78s225.166 -26 317.499 -78zM1023 422c78 43.333 138.166 104.499 180.499 183.499s63.5 171.167 63.5 276.5s-21.167 197.666 -63.5 276.999s-102.5 140.833 -180.5 184.5s-168.667 65.5 -272 65.5
c-102.667 0 -193 -21.833 -271 -65.5s-138.333 -105.167 -181 -184.5s-64 -171.666 -64 -276.999c0 -104.667 21.333 -196.667 64 -276s102.834 -140.666 180.501 -183.999s168.167 -65 271.5 -65s194 21.667 272 65zM954.999 893.499
c-22 -29 -54.666 -49.834 -97.999 -62.501l157 -231h-104l-148 216h-23h-106l-1 -216h-92v592h199c81.333 0 143.166 -16.167 185.499 -48.5s63.5 -79.166 63.5 -140.499c0 -44 -11 -80.5 -33 -109.5zM754 895.998c48.667 0 84.667 8.66699 108 26s35 44.333 35 81
c0 72.667 -47.667 109 -143 109h-121v-216h121z" />
    <glyph glyph-name="macron" unicode="&#xaf;" horiz-adv-x="1058" 
d="M219 1368v108h620v-108h-620z" />
    <glyph glyph-name="degree" unicode="&#xb0;" horiz-adv-x="980" 
d="M310.5 848c-53 30 -94.5 71.333 -124.5 124s-45 112 -45 178s15 125.5 45 178.5s71.5 94.333 124.5 124s112.833 44.5 179.5 44.5s126.5 -14.833 179.5 -44.5s94.5 -71 124.5 -124s45 -112.5 45 -178.5s-15 -125.333 -45 -178s-71.5 -94 -124.5 -124
s-112.833 -45 -179.5 -45s-126.5 15 -179.5 45zM611 941c35.333 19.333 62.834 47 82.501 83s29.5 78 29.5 126s-10 90 -30 126s-47.667 63.667 -83 83s-75.333 29 -120 29c-45.333 0 -85.666 -9.66699 -120.999 -29s-63 -47 -83 -83s-30 -78 -30 -126s10 -90 30 -126
s47.667 -63.667 83 -83s75.666 -29 120.999 -29s85.666 9.66699 120.999 29z" />
    <glyph glyph-name="plusminus" unicode="&#xb1;" horiz-adv-x="1075" 
d="M469 337v331h-320v130h320v332h137v-332h320v-130h-320v-331h-137zM149 0v130h777v-130h-777z" />
    <glyph glyph-name="uni00B2" unicode="&#xb2;" horiz-adv-x="788" 
d="M702 -21v-114.999h-612v73l293 373c50 62.667 85.5 115.5 106.5 158.5s31.5 84.5 31.5 124.5c0 59.333 -17.833 102.666 -53.5 129.999s-90.5 41 -164.5 41c-80.667 0 -156 -13 -226 -39v114c32 12 69.167 21.333 111.5 28s85.833 10 130.5 10
c224 0 336 -90.333 336 -271c0 -53.333 -12.167 -106 -36.5 -158s-65.5 -114.333 -123.5 -187l-224 -282h431z" />
    <glyph glyph-name="uni00B3" unicode="&#xb3;" horiz-adv-x="788" 
d="M649 299.5c37.333 -42.333 56 -96.832 56 -163.499c0 -91.333 -32.333 -161.666 -97 -210.999s-159.334 -74 -284.001 -74c-89.333 0 -173.666 12.667 -252.999 38v108c40 -12.667 81.5 -22.334 124.5 -29.001s84.5 -10 124.5 -10c86 0 150.333 15.667 193 47
s64 77.666 64 138.999c0 119.333 -82 179 -246 179h-135v108h84c86 0 151.167 15.333 195.5 46s66.5 74.667 66.5 132c0 52.667 -18.5 92.667 -55.5 120s-92.167 41 -165.5 41c-82 0 -157.667 -13 -227 -39v109c31.333 12 68.5 21.167 111.5 27.5s85.833 9.5 128.5 9.5
c109.333 0 193 -22.333 251 -67s87 -108 87 -190c0 -58 -16.333 -107.333 -49 -148s-78 -69.667 -136 -87c70.667 -14.667 124.667 -43.167 162 -85.5z" />
    <glyph glyph-name="acute" unicode="&#xb4;" horiz-adv-x="1058" 
d="M455 1253l216 363h173l-241 -363h-148z" />
    <glyph glyph-name="uni00B5" unicode="&#xb5;" horiz-adv-x="1127" 
d="M976 1085l0.000976562 -1085h-135l-12 119h-10c-40.667 -44.667 -87.667 -78.667 -141 -102s-109 -35 -167 -35c-92.667 0 -163.334 26.333 -212.001 79v-501h-160v1525h160v-713c0 -88 19.5 -151.167 58.5 -189.5s93.5 -57.5 163.5 -57.5c53.333 0 106.833 12 160.5 36
s98.5 60 134.5 108v816h160z" />
    <glyph glyph-name="paragraph" unicode="&#xb6;" horiz-adv-x="1233" 
d="M682 493c-40.667 -5.33301 -85.999 -8 -135.999 -8c-154.667 0 -269.5 42.667 -344.5 128s-112.5 211.333 -112.5 378c0 172.667 37.167 300 111.5 382s186.166 123 335.499 123c85.333 0 176 -5.33301 272 -16v-1480h-126v493zM938.001 0v1480h126v-1480h-126z" />
    <glyph glyph-name="periodcentered" unicode="&#xb7;" horiz-adv-x="461" 
d="M146.5 478c-21 20 -31.5 47 -31.5 81s10.5 61.167 31.5 81.5s48.833 30.5 83.5 30.5s62.667 -10.333 84 -31s32 -47.667 32 -81c0 -34 -10.667 -61 -32 -81s-49.333 -30 -84 -30s-62.5 10 -83.5 30z" />
    <glyph glyph-name="cedilla" unicode="&#xb8;" horiz-adv-x="1058" 
d="M695.5 -153c26.333 -26.667 39.5 -62 39.5 -106c0 -49.333 -17.667 -87.833 -53 -115.5s-86 -41.5 -152 -41.5c-30 0 -60.167 3.16699 -90.5 9.5s-56.5 14.833 -78.5 25.5v81c50 -24.667 105.333 -37 166 -37c38 0 66.167 6.83301 84.5 20.5s27.5 34.5 27.5 62.5
c0 57.333 -38 86 -114 86h-37v188h92v-124c50.667 -6 89.167 -22.333 115.5 -49z" />
    <glyph glyph-name="uni00B9" unicode="&#xb9;" horiz-adv-x="788" 
d="M503 -21h218v-115h-581v115h229v728l-231 -162v127l279 196h86v-889z" />
    <glyph glyph-name="ordmasculine" unicode="&#xba;" horiz-adv-x="942" 
d="M179.5 707.5c-69.667 75 -104.501 187.833 -104.501 338.5c0 150 34.833 262.333 104.5 337s166.834 112 291.501 112s221.834 -37.333 291.501 -112s104.5 -187 104.5 -337c0 -149.333 -35 -261.833 -105 -337.5s-167 -113.5 -291 -113.5
c-124.667 0 -221.834 37.5 -291.501 112.5zM651.999 791.5c42 51 63 135.833 63 254.5s-21 203.167 -63 253.5s-102.333 75.5 -181 75.5s-139 -25.167 -181 -75.5s-63 -134.833 -63 -253.5s21 -203.5 63 -254.5s102.333 -76.5 181 -76.5s139 25.5 181 76.5z" />
    <glyph glyph-name="guillemotright" unicode="&#xbb;" horiz-adv-x="1008" 
d="M72 137l255 426l-255 425h166l254 -425l-254 -426h-166zM476 137l255 426l-255 425h166l254 -425l-254 -426h-166z" />
    <glyph glyph-name="onequarter" unicode="&#xbc;" horiz-adv-x="1852" 
d="M503 731h218v-115h-581v115h229v728l-231 -162v127l279 196h86v-889zM460 -136l793 1752h139l-793 -1752h-139zM1827 204v-108h-138v-232h-120v232h-475v75l361 693h129l-341 -660h326l24 322h96v-322h138z" />
    <glyph glyph-name="onehalf" unicode="&#xbd;" horiz-adv-x="1852" 
d="M503 731h218v-115h-581v115h229v728l-231 -162v127l279 196h86v-889zM460 -136l793 1752h139l-793 -1752h-139zM1766 -21v-114.999h-612v73l293 373c50 62.667 85.5 115.5 106.5 158.5s31.5 84.5 31.5 124.5c0 59.333 -17.833 102.666 -53.5 129.999s-90.5 41 -164.5 41
c-80.667 0 -156 -13 -226 -39v114c32 12 69.167 21.333 111.5 28s85.833 10 130.5 10c224 0 336 -90.333 336 -271c0 -53.333 -12.167 -106 -36.5 -158s-65.5 -114.333 -123.5 -187l-224 -282h431z" />
    <glyph glyph-name="threequarters" unicode="&#xbe;" horiz-adv-x="1852" 
d="M649 1051.5c37.333 -42.333 56 -96.832 56 -163.499c0 -91.333 -32.333 -161.666 -97 -210.999s-159.334 -74 -284.001 -74c-89.333 0 -173.666 12.667 -252.999 38v108c40 -12.667 81.5 -22.334 124.5 -29.001s84.5 -10 124.5 -10c86 0 150.333 15.667 193 47
s64 77.666 64 138.999c0 119.333 -82 179 -246 179h-135v108h84c86 0 151.167 15.333 195.5 46s66.5 74.667 66.5 132c0 52.667 -18.5 92.667 -55.5 120s-92.167 41 -165.5 41c-82 0 -157.667 -13 -227 -39v109c31.333 12 68.5 21.167 111.5 27.5s85.833 9.5 128.5 9.5
c109.333 0 193 -22.333 251 -67s87 -108 87 -190c0 -58 -16.333 -107.333 -49 -148s-78 -69.667 -136 -87c70.667 -14.667 124.667 -43.167 162 -85.5zM460 -135.999l793 1752h139l-793 -1752h-139zM1827 204.001v-108h-138v-232h-120v232h-475v75l361 693h129l-341 -660
h326l24 322h96v-322h138z" />
    <glyph glyph-name="questiondown" unicode="&#xbf;" horiz-adv-x="903" 
d="M581 1068.5c21.333 -19.667 32 -45.832 32 -78.499s-10.5 -58.834 -31.5 -78.501s-48.833 -29.5 -83.5 -29.5s-62.667 10 -84 30s-32 46 -32 78s10.667 58 32 78s49.333 30 84 30c34 0 61.667 -9.83301 83 -29.5zM576 318.002c-90 -28 -161.168 -58.165 -213.501 -90.498
s-89.666 -68.333 -111.999 -108s-33.5 -86.5 -33.5 -140.5c0 -79.333 27.333 -140.166 82 -182.499s135.334 -63.5 242.001 -63.5c113.333 0 221 18.667 323 56v-135c-46.667 -16.667 -99.834 -29.834 -159.501 -39.501s-118.834 -14.5 -177.501 -14.5
c-151.333 0 -267.166 32.167 -347.499 96.5s-120.5 155.166 -120.5 272.499c0 69.333 12.5 130.166 37.5 182.499s64.833 98.833 119.5 139.5s126.667 78 216 112l15 322h102z" />
    <glyph glyph-name="Agrave" unicode="&#xc0;" horiz-adv-x="1348" 
d="M1154 0l-169 479h-625l-169 -479h-163l531 1480h229l531 -1480h-165zM408 616h528l-264 746zM601 1608l-205 284h173l178 -284h-146z" />
    <glyph glyph-name="Aacute" unicode="&#xc1;" horiz-adv-x="1348" 
d="M1154 0l-169 479h-625l-169 -479h-163l531 1480h229l531 -1480h-165zM408 616h528l-264 746zM600 1608l178 284h173l-204 -284h-147z" />
    <glyph glyph-name="Acircumflex" unicode="&#xc2;" horiz-adv-x="1348" 
d="M1154 0l-169 479h-625l-169 -479h-163l531 1480h229l531 -1480h-165zM408 616h528l-264 746zM993 1608h-140l-179 214l-179 -214h-140l245 284h148z" />
    <glyph glyph-name="Atilde" unicode="&#xc3;" horiz-adv-x="1348" 
d="M1154 0l-169 479h-625l-169 -479h-163l531 1480h229l531 -1480h-165zM408 616h528l-264 746zM750.5 1678c-23.667 6.66699 -54.167 16.667 -91.5 30c-30 12 -55.667 21 -77 27s-43 9 -65 9c-35.333 0 -66.333 -5.66699 -93 -17s-52.667 -29.333 -78 -54v111
c42 43.333 99.667 65 173 65c28.667 0 55.334 -3.5 80.001 -10.5s54.667 -17.167 90 -30.5c30 -12 55.667 -21 77 -27s42.666 -9 63.999 -9c35.333 0 66.333 5.66699 93 17s53 29.333 79 54v-110c-21.333 -22 -46 -38.333 -74 -49s-61.333 -16 -100 -16
c-28 0 -53.833 3.33301 -77.5 10z" />
    <glyph glyph-name="Adieresis" unicode="&#xc4;" horiz-adv-x="1348" 
d="M1154 0l-169 479h-625l-169 -479h-163l531 1480h229l531 -1480h-165zM408 616h528l-264 746zM364 1683.5c-18 16.333 -27 38.833 -27 67.5c0 29.333 9.16699 52.5 27.5 69.5s43.5 25.5 75.5 25.5s57 -8.5 75 -25.5s27 -40.167 27 -69.5c0 -28.667 -9 -51.167 -27 -67.5
s-43 -24.5 -75 -24.5c-32.667 0 -58 8.16699 -76 24.5zM833 1683.5c-18 16.333 -27 38.833 -27 67.5c0 29.333 9 52.5 27 69.5s43 25.5 75 25.5s57.167 -8.5 75.5 -25.5s27.5 -40.167 27.5 -69.5c0 -28.667 -9 -51.167 -27 -67.5s-43.333 -24.5 -76 -24.5
c-32 0 -57 8.16699 -75 24.5z" />
    <glyph glyph-name="Aring" unicode="&#xc5;" horiz-adv-x="1348" 
d="M985 479h-625.001l-169 -479h-163l531 1480h44c-37.333 13.333 -67 36.166 -89 68.499s-33 69.833 -33 112.5c0 36.667 8.5 69.667 25.5 99s40.333 52.333 70 69s63.167 25 100.5 25s70.833 -8.33301 100.5 -25s52.834 -39.667 69.501 -69s25 -62.333 25 -99
c0 -42.667 -11 -80.167 -33 -112.5s-51.333 -55.166 -88 -68.499h37l531 -1480h-165zM592.499 1574c21.667 -21.333 49.834 -32 84.501 -32s62.667 10.667 84 32s32 50.333 32 87c0 36 -10.667 64.833 -32 86.5s-49.333 32.5 -84 32.5s-62.834 -10.833 -84.501 -32.5
s-32.5 -50.5 -32.5 -86.5c0 -36.667 10.833 -65.667 32.5 -87zM407.999 616h528l-264 746z" />
    <glyph glyph-name="AE" unicode="&#xc6;" horiz-adv-x="1846" 
d="M1091 138h683v-138h-834l-33 479h-542l-173 -479h-164l540 1480h1196v-138h-758l36 -514h625v-137h-615zM415 616h483l-50 726h-171z" />
    <glyph glyph-name="Ccedilla" unicode="&#xc7;" horiz-adv-x="1151" 
d="M509.5 1297c-76.333 -40.667 -134.335 -106.334 -174.002 -197.001s-59.5 -210.334 -59.5 -359.001c0 -152.667 20 -274.5 60 -365.5s97.333 -156 172 -195s167.667 -58.5 279 -58.5c54.667 0 107.834 4.33301 159.501 13s106.5 23 164.5 43v-142
c-104 -36.667 -216 -55 -336 -55h-22v-83c56.667 -4.66699 100.5 -20.167 131.5 -46.5s46.5 -62.5 46.5 -108.5c0 -51.333 -19.167 -90.666 -57.5 -117.999s-92.833 -41 -163.5 -41c-33.333 0 -66.833 3.16699 -100.5 9.5s-64.5 15.5 -92.5 27.5v81
c62.667 -26 125 -39 187 -39c86.667 0 130 28 130 84c0 56.667 -44 85 -132 85h-41v155c-178.667 18.667 -316 88 -412 208s-144 300.667 -144 542c0 260.667 59 452.834 177 576.501s287.667 185.5 509 185.5c108 0 214.667 -14.333 320 -43v-142
c-102 29.333 -206.667 44 -314 44c-115.333 0 -211.166 -20.333 -287.499 -61z" />
    <glyph glyph-name="Egrave" unicode="&#xc8;" horiz-adv-x="1166" 
d="M330 138h764v-138h-925v1480h915v-138h-754v-514h657v-137h-657v-553zM576 1608l-205 284h173l178 -284h-146z" />
    <glyph glyph-name="Eacute" unicode="&#xc9;" horiz-adv-x="1166" 
d="M330 138h764v-138h-925v1480h915v-138h-754v-514h657v-137h-657v-553zM575 1608l178 284h173l-204 -284h-147z" />
    <glyph glyph-name="Ecircumflex" unicode="&#xca;" horiz-adv-x="1166" 
d="M330 138h764v-138h-925v1480h915v-138h-754v-514h657v-137h-657v-553zM968 1608h-140l-179 214l-179 -214h-140l245 284h148z" />
    <glyph glyph-name="Edieresis" unicode="&#xcb;" horiz-adv-x="1166" 
d="M330 138h764v-138h-925v1480h915v-138h-754v-514h657v-137h-657v-553zM339 1683.5c-18 16.333 -27 38.833 -27 67.5c0 29.333 9.16699 52.5 27.5 69.5s43.5 25.5 75.5 25.5s57 -8.5 75 -25.5s27 -40.167 27 -69.5c0 -28.667 -9 -51.167 -27 -67.5s-43 -24.5 -75 -24.5
c-32.667 0 -58 8.16699 -76 24.5zM808 1683.5c-18 16.333 -27 38.833 -27 67.5c0 29.333 9 52.5 27 69.5s43 25.5 75 25.5s57.167 -8.5 75.5 -25.5s27.5 -40.167 27.5 -69.5c0 -28.667 -9 -51.167 -27 -67.5s-43.333 -24.5 -76 -24.5c-32 0 -57 8.16699 -75 24.5z" />
    <glyph glyph-name="Igrave" unicode="&#xcc;" horiz-adv-x="500" 
d="M169 0v1480h162v-1480h-162zM177 1608l-205 284h173l178 -284h-146z" />
    <glyph glyph-name="Iacute" unicode="&#xcd;" horiz-adv-x="500" 
d="M169 0v1480h162v-1480h-162zM176 1608l178 284h173l-204 -284h-147z" />
    <glyph glyph-name="Icircumflex" unicode="&#xce;" horiz-adv-x="500" 
d="M169 0v1480h162v-1480h-162zM569 1608h-140l-179 214l-179 -214h-140l245 284h148z" />
    <glyph glyph-name="Idieresis" unicode="&#xcf;" horiz-adv-x="500" 
d="M169 0v1480h162v-1480h-162zM-60 1683.5c-18 16.333 -27 38.833 -27 67.5c0 29.333 9.16699 52.5 27.5 69.5s43.5 25.5 75.5 25.5s57 -8.5 75 -25.5s27 -40.167 27 -69.5c0 -28.667 -9 -51.167 -27 -67.5s-43 -24.5 -75 -24.5c-32.667 0 -58 8.16699 -76 24.5z
M409 1683.5c-18 16.333 -27 38.833 -27 67.5c0 29.333 9 52.5 27 69.5s43 25.5 75 25.5s57.167 -8.5 75.5 -25.5s27.5 -40.167 27.5 -69.5c0 -28.667 -9 -51.167 -27 -67.5s-43.333 -24.5 -76 -24.5c-32 0 -57 8.16699 -75 24.5z" />
    <glyph glyph-name="Eth" unicode="&#xd0;" horiz-adv-x="1400" 
d="M1109 1308.5c123.333 -124.333 185.001 -313.833 185.001 -568.5c0 -258 -64.167 -447.833 -192.5 -569.5s-322.166 -182.5 -581.499 -182.5c-110.667 0 -227.667 7 -351 21v696h-166v114h166v637c61.333 12 125.666 21.5 192.999 28.5s132 10.5 194 10.5
c245.333 0 429.666 -62.167 552.999 -186.5zM873.001 190c84.667 42 148.166 108.167 190.499 198.5s63.5 207.5 63.5 351.5c0 213.333 -46.333 369.333 -139 468s-235 148 -427 148c-70 0 -146.667 -6.33301 -230 -19v-518h331v-114h-331v-565
c66.667 -8.66699 140.334 -13 221.001 -13c129.333 0 236.333 21 321 63z" />
    <glyph glyph-name="Ntilde" unicode="&#xd1;" horiz-adv-x="1469" 
d="M1146 1480h154v-1480h-167l-810 1232v-1232h-154v1480h167l810 -1232v1232zM811.5 1678c-23.667 6.66699 -54.167 16.667 -91.5 30c-30 12 -55.667 21 -77 27s-43 9 -65 9c-35.333 0 -66.333 -5.66699 -93 -17s-52.667 -29.333 -78 -54v111c42 43.333 99.667 65 173 65
c28.667 0 55.334 -3.5 80.001 -10.5s54.667 -17.167 90 -30.5c30 -12 55.667 -21 77 -27s42.666 -9 63.999 -9c35.333 0 66.333 5.66699 93 17s53 29.333 79 54v-110c-21.333 -22 -46 -38.333 -74 -49s-61.333 -16 -100 -16c-28 0 -53.833 3.33301 -77.5 10z" />
    <glyph glyph-name="Ograve" unicode="&#xd2;" horiz-adv-x="1439" 
d="M267.5 167c-108.333 124 -162.501 315 -162.501 573c0 174 25.167 317.333 75.5 430s121.333 195.667 213 249s200.167 80 325.5 80c192.667 0 343.167 -62 451.5 -186s162.5 -315 162.5 -573c0 -173.333 -25.167 -316.5 -75.5 -429.5s-121.166 -196.167 -212.499 -249.5
s-200 -80 -326 -80c-192.667 0 -343.167 62 -451.5 186zM1049 265.5c77.333 96.333 116 252.833 116 469.5c0 221.333 -38.667 380.666 -116 477.999s-187.333 146 -330 146c-142 0 -251.833 -48.167 -329.5 -144.5s-116.5 -252.833 -116.5 -469.5
c0 -221.333 38.667 -380.666 116 -477.999s187.333 -146 330 -146s252.667 48.167 330 144.5zM645.999 1608l-205 284h173l178 -284h-146z" />
    <glyph glyph-name="Oacute" unicode="&#xd3;" horiz-adv-x="1439" 
d="M267.5 167c-108.333 124 -162.501 315 -162.501 573c0 174 25.167 317.333 75.5 430s121.333 195.667 213 249s200.167 80 325.5 80c192.667 0 343.167 -62 451.5 -186s162.5 -315 162.5 -573c0 -173.333 -25.167 -316.5 -75.5 -429.5s-121.166 -196.167 -212.499 -249.5
s-200 -80 -326 -80c-192.667 0 -343.167 62 -451.5 186zM1049 265.5c77.333 96.333 116 252.833 116 469.5c0 221.333 -38.667 380.666 -116 477.999s-187.333 146 -330 146c-142 0 -251.833 -48.167 -329.5 -144.5s-116.5 -252.833 -116.5 -469.5
c0 -221.333 38.667 -380.666 116 -477.999s187.333 -146 330 -146s252.667 48.167 330 144.5zM644.999 1608l178 284h173l-204 -284h-147z" />
    <glyph glyph-name="Ocircumflex" unicode="&#xd4;" horiz-adv-x="1439" 
d="M267.5 167c-108.333 124 -162.501 315 -162.501 573c0 174 25.167 317.333 75.5 430s121.333 195.667 213 249s200.167 80 325.5 80c192.667 0 343.167 -62 451.5 -186s162.5 -315 162.5 -573c0 -173.333 -25.167 -316.5 -75.5 -429.5s-121.166 -196.167 -212.499 -249.5
s-200 -80 -326 -80c-192.667 0 -343.167 62 -451.5 186zM1049 265.5c77.333 96.333 116 252.833 116 469.5c0 221.333 -38.667 380.666 -116 477.999s-187.333 146 -330 146c-142 0 -251.833 -48.167 -329.5 -144.5s-116.5 -252.833 -116.5 -469.5
c0 -221.333 38.667 -380.666 116 -477.999s187.333 -146 330 -146s252.667 48.167 330 144.5zM1038 1608h-140l-179 214l-179 -214h-140l245 284h148z" />
    <glyph glyph-name="Otilde" unicode="&#xd5;" horiz-adv-x="1439" 
d="M267.5 167c-108.333 124 -162.501 315 -162.501 573c0 174 25.167 317.333 75.5 430s121.333 195.667 213 249s200.167 80 325.5 80c192.667 0 343.167 -62 451.5 -186s162.5 -315 162.5 -573c0 -173.333 -25.167 -316.5 -75.5 -429.5s-121.166 -196.167 -212.499 -249.5
s-200 -80 -326 -80c-192.667 0 -343.167 62 -451.5 186zM1049 265.5c77.333 96.333 116 252.833 116 469.5c0 221.333 -38.667 380.666 -116 477.999s-187.333 146 -330 146c-142 0 -251.833 -48.167 -329.5 -144.5s-116.5 -252.833 -116.5 -469.5
c0 -221.333 38.667 -380.666 116 -477.999s187.333 -146 330 -146s252.667 48.167 330 144.5zM795.499 1678c-23.667 6.66699 -54.167 16.667 -91.5 30c-30 12 -55.667 21 -77 27s-43 9 -65 9c-35.333 0 -66.333 -5.66699 -93 -17s-52.667 -29.333 -78 -54v111
c42 43.333 99.667 65 173 65c28.667 0 55.334 -3.5 80.001 -10.5s54.667 -17.167 90 -30.5c30 -12 55.667 -21 77 -27s42.666 -9 63.999 -9c35.333 0 66.333 5.66699 93 17s53 29.333 79 54v-110c-21.333 -22 -46 -38.333 -74 -49s-61.333 -16 -100 -16
c-28 0 -53.833 3.33301 -77.5 10z" />
    <glyph glyph-name="Odieresis" unicode="&#xd6;" horiz-adv-x="1439" 
d="M267.5 167c-108.333 124 -162.501 315 -162.501 573c0 174 25.167 317.333 75.5 430s121.333 195.667 213 249s200.167 80 325.5 80c192.667 0 343.167 -62 451.5 -186s162.5 -315 162.5 -573c0 -173.333 -25.167 -316.5 -75.5 -429.5s-121.166 -196.167 -212.499 -249.5
s-200 -80 -326 -80c-192.667 0 -343.167 62 -451.5 186zM1049 265.5c77.333 96.333 116 252.833 116 469.5c0 221.333 -38.667 380.666 -116 477.999s-187.333 146 -330 146c-142 0 -251.833 -48.167 -329.5 -144.5s-116.5 -252.833 -116.5 -469.5
c0 -221.333 38.667 -380.666 116 -477.999s187.333 -146 330 -146s252.667 48.167 330 144.5zM408.999 1683.5c-18 16.333 -27 38.833 -27 67.5c0 29.333 9.16699 52.5 27.5 69.5s43.5 25.5 75.5 25.5s57 -8.5 75 -25.5s27 -40.167 27 -69.5c0 -28.667 -9 -51.167 -27 -67.5
s-43 -24.5 -75 -24.5c-32.667 0 -58 8.16699 -76 24.5zM877.999 1683.5c-18 16.333 -27 38.833 -27 67.5c0 29.333 9 52.5 27 69.5s43 25.5 75 25.5s57.167 -8.5 75.5 -25.5s27.5 -40.167 27.5 -69.5c0 -28.667 -9 -51.167 -27 -67.5s-43.333 -24.5 -76 -24.5
c-32 0 -57 8.16699 -75 24.5z" />
    <glyph glyph-name="multiply" unicode="&#xd7;" horiz-adv-x="999" 
d="M209 378l-91 91l290 291l-290 291l91 91l291 -291l290 291l91 -91l-290 -291l290 -291l-91 -91l-290 291z" />
    <glyph glyph-name="Oslash" unicode="&#xd8;" horiz-adv-x="1439" 
d="M1333 740c0 -173.333 -25.167 -316.501 -75.5 -429.501s-121.166 -196.167 -212.499 -249.5s-200 -80 -326 -80c-166.667 0 -300.334 44.667 -401.001 134l-106 -143l-82 61l118 159c-95.333 128.667 -143 311.334 -143 548.001c0 174 25.167 317.333 75.5 430
s121.333 195.667 213 249s200.167 80 325.5 80c166.667 0 300 -44.667 400 -134l106 143l82 -61l-118 -158c96 -128.667 144 -311.667 144 -549zM350 329.999l676 909.999c-72.667 79.333 -175 119 -307 119c-142 0 -251.833 -48.167 -329.5 -144.5
s-116.5 -252.833 -116.5 -469.5c0 -177.333 25.667 -315.666 77 -414.999zM1049 265.498c77.333 96.333 115.999 252.832 115.999 469.499c0 176.667 -26 315.334 -78 416.001l-676 -911c72.667 -79.333 175.334 -119 308.001 -119c142.667 0 252.667 48.167 330 144.5z" />
    <glyph glyph-name="Ugrave" unicode="&#xd9;" horiz-adv-x="1417" 
d="M400 43c-80.667 41.333 -140.5 104.5 -179.5 189.5s-58.5 194.167 -58.5 327.5v920h162v-938c0 -146 31 -252.667 93 -320s159.667 -101 293 -101s231 33.667 293 101s93 174 93 320v938h159v-920c0 -133.333 -19.333 -242.5 -58 -327.5s-98 -148.167 -178 -189.5
s-183 -62 -309 -62s-229.333 20.667 -310 62zM637 1608l-205 284h173l178 -284h-146z" />
    <glyph glyph-name="Uacute" unicode="&#xda;" horiz-adv-x="1417" 
d="M400 43c-80.667 41.333 -140.5 104.5 -179.5 189.5s-58.5 194.167 -58.5 327.5v920h162v-938c0 -146 31 -252.667 93 -320s159.667 -101 293 -101s231 33.667 293 101s93 174 93 320v938h159v-920c0 -133.333 -19.333 -242.5 -58 -327.5s-98 -148.167 -178 -189.5
s-183 -62 -309 -62s-229.333 20.667 -310 62zM636 1608l178 284h173l-204 -284h-147z" />
    <glyph glyph-name="Ucircumflex" unicode="&#xdb;" horiz-adv-x="1417" 
d="M400 43c-80.667 41.333 -140.5 104.5 -179.5 189.5s-58.5 194.167 -58.5 327.5v920h162v-938c0 -146 31 -252.667 93 -320s159.667 -101 293 -101s231 33.667 293 101s93 174 93 320v938h159v-920c0 -133.333 -19.333 -242.5 -58 -327.5s-98 -148.167 -178 -189.5
s-183 -62 -309 -62s-229.333 20.667 -310 62zM1029 1608h-140l-179 214l-179 -214h-140l245 284h148z" />
    <glyph glyph-name="Udieresis" unicode="&#xdc;" horiz-adv-x="1417" 
d="M400 43c-80.667 41.333 -140.5 104.5 -179.5 189.5s-58.5 194.167 -58.5 327.5v920h162v-938c0 -146 31 -252.667 93 -320s159.667 -101 293 -101s231 33.667 293 101s93 174 93 320v938h159v-920c0 -133.333 -19.333 -242.5 -58 -327.5s-98 -148.167 -178 -189.5
s-183 -62 -309 -62s-229.333 20.667 -310 62zM400 1683.5c-18 16.333 -27 38.833 -27 67.5c0 29.333 9.16699 52.5 27.5 69.5s43.5 25.5 75.5 25.5s57 -8.5 75 -25.5s27 -40.167 27 -69.5c0 -28.667 -9 -51.167 -27 -67.5s-43 -24.5 -75 -24.5
c-32.667 0 -58 8.16699 -76 24.5zM869 1683.5c-18 16.333 -27 38.833 -27 67.5c0 29.333 9 52.5 27 69.5s43 25.5 75 25.5s57.167 -8.5 75.5 -25.5s27.5 -40.167 27.5 -69.5c0 -28.667 -9 -51.167 -27 -67.5s-43.333 -24.5 -76 -24.5c-32 0 -57 8.16699 -75 24.5z" />
    <glyph glyph-name="Yacute" unicode="&#xdd;" horiz-adv-x="1175" 
d="M1197 1480l-528 -822v-658h-162v658l-538 822h179l443 -679l438 679h168zM514 1608l178 284h173l-204 -284h-147z" />
    <glyph glyph-name="Thorn" unicode="&#xde;" horiz-adv-x="1243" 
d="M169 1481h162v-233c73.333 11.333 146.666 17 219.999 17c197.333 0 345.333 -41 444 -123s148 -209 148 -381c0 -167.333 -50.5 -293.5 -151.5 -378.5s-255.833 -127.5 -464.5 -127.5c-61.333 0 -126.666 3 -195.999 9v-264h-162v1481zM874 477
c72 60 108 153.667 108 281c0 130 -34.5 225 -103.5 285s-175.167 90 -318.5 90c-82.667 0 -159 -6 -229 -18v-716c56.667 -8 122.667 -12 198 -12c158 0 273 30 345 90z" />
    <glyph glyph-name="germandbls" unicode="&#xdf;" horiz-adv-x="1389" 
d="M1255 492c44 -46.667 66.001 -110.999 66.001 -192.999c0 -100 -36.667 -178 -110 -234s-179.333 -84 -318 -84c-108 0 -206.333 13.333 -295 40v130c97.333 -28 195.666 -42 294.999 -42c94.667 0 164 15.5 208 46.5s66 76.167 66 135.5c0 49.333 -12.667 87 -38 113
s-68.333 45.667 -129 59l-147 30c-96.667 20 -166.667 54.167 -210 102.5s-65 111.833 -65 190.5c0 62.667 15.667 117.167 47 163.5s78.5 82.5 141.5 108.5s141.167 39 234.5 39c11.333 0 31.666 -0.666992 60.999 -2c4 30 6 59.333 6 88c0 116 -29.333 200 -88 252
s-138.667 78 -240 78c-118 0 -207 -32.333 -267 -97s-90 -167.334 -90 -308.001v-1108h-160v950h-205v135h205v26c0 172 44.333 302.5 133 391.5s214 133.5 376 133.5c91.333 0 171.5 -16.167 240.5 -48.5s123 -83 162 -152s58.5 -156.5 58.5 -262.5
c0 -34 -2.66699 -70.167 -8 -108.5s-12 -72.833 -20 -103.5c-49.333 8.66699 -98.666 13 -147.999 13c-100.667 0 -173.5 -16.5 -218.5 -49.5s-67.5 -77.167 -67.5 -132.5c0 -44.667 12.5 -80.667 37.5 -108s66.5 -47.333 124.5 -60l147 -30
c99.333 -21.333 171 -55.333 215 -102z" />
    <glyph glyph-name="agrave" unicode="&#xe0;" horiz-adv-x="1029" 
d="M707 1065c60.667 -24.667 106.326 -65.668 136.993 -123.001s46 -134.333 46 -231v-711h-134l-12 121h-11c-34.667 -44 -79.5 -78.167 -134.5 -102.5s-114.5 -36.5 -178.5 -36.5c-67.333 0 -125.666 11.833 -174.999 35.5s-87.166 57.834 -113.499 102.501
s-39.5 97.334 -39.5 158.001c0 96 31.333 170.167 94 222.5s162.334 85.166 299.001 98.499l248 27v93c0 64.667 -10.167 115.334 -30.5 152.001s-50.666 62.5 -90.999 77.5s-93.166 22.5 -158.499 22.5c-44.667 0 -92.5 -4 -143.5 -12s-100.833 -20.333 -149.5 -37v132
c44.667 15.333 95.334 27.166 152.001 35.499s110.667 12.5 162 12.5c94.667 0 172.334 -12.333 233.001 -37zM607.992 137.999c47.333 21.333 89.001 54.6689 125.001 100.002v280l-237 -26c-84.667 -8.66699 -146.167 -29.334 -184.5 -62.001
s-57.5 -78.334 -57.5 -137.001c0 -61.333 17.333 -107.833 52 -139.5s86 -47.5 154 -47.5c51.333 0 100.666 10.667 147.999 32zM436.993 1253l-241 363h173l216 -363h-148z" />
    <glyph glyph-name="aacute" unicode="&#xe1;" horiz-adv-x="1029" 
d="M707 1065c60.667 -24.667 106.326 -65.668 136.993 -123.001s46 -134.333 46 -231v-711h-134l-12 121h-11c-34.667 -44 -79.5 -78.167 -134.5 -102.5s-114.5 -36.5 -178.5 -36.5c-67.333 0 -125.666 11.833 -174.999 35.5s-87.166 57.834 -113.499 102.501
s-39.5 97.334 -39.5 158.001c0 96 31.333 170.167 94 222.5s162.334 85.166 299.001 98.499l248 27v93c0 64.667 -10.167 115.334 -30.5 152.001s-50.666 62.5 -90.999 77.5s-93.166 22.5 -158.499 22.5c-44.667 0 -92.5 -4 -143.5 -12s-100.833 -20.333 -149.5 -37v132
c44.667 15.333 95.334 27.166 152.001 35.499s110.667 12.5 162 12.5c94.667 0 172.334 -12.333 233.001 -37zM607.992 137.999c47.333 21.333 89.001 54.6689 125.001 100.002v280l-237 -26c-84.667 -8.66699 -146.167 -29.334 -184.5 -62.001
s-57.5 -78.334 -57.5 -137.001c0 -61.333 17.333 -107.833 52 -139.5s86 -47.5 154 -47.5c51.333 0 100.666 10.667 147.999 32zM436.993 1253l216 363h173l-241 -363h-148z" />
    <glyph glyph-name="acircumflex" unicode="&#xe2;" horiz-adv-x="1029" 
d="M707 1065c60.667 -24.667 106.326 -65.668 136.993 -123.001s46 -134.333 46 -231v-711h-134l-12 121h-11c-34.667 -44 -79.5 -78.167 -134.5 -102.5s-114.5 -36.5 -178.5 -36.5c-67.333 0 -125.666 11.833 -174.999 35.5s-87.166 57.834 -113.499 102.501
s-39.5 97.334 -39.5 158.001c0 96 31.333 170.167 94 222.5s162.334 85.166 299.001 98.499l248 27v93c0 64.667 -10.167 115.334 -30.5 152.001s-50.666 62.5 -90.999 77.5s-93.166 22.5 -158.499 22.5c-44.667 0 -92.5 -4 -143.5 -12s-100.833 -20.333 -149.5 -37v132
c44.667 15.333 95.334 27.166 152.001 35.499s110.667 12.5 162 12.5c94.667 0 172.334 -12.333 233.001 -37zM607.992 137.999c47.333 21.333 89.001 54.6689 125.001 100.002v280l-237 -26c-84.667 -8.66699 -146.167 -29.334 -184.5 -62.001
s-57.5 -78.334 -57.5 -137.001c0 -61.333 17.333 -107.833 52 -139.5s86 -47.5 154 -47.5c51.333 0 100.666 10.667 147.999 32zM805.993 1253h-128l-167 280l-167 -280h-129l224 363h144z" />
    <glyph glyph-name="atilde" unicode="&#xe3;" horiz-adv-x="1029" 
d="M707 1065c60.667 -24.667 106.326 -65.668 136.993 -123.001s46 -134.333 46 -231v-711h-134l-12 121h-11c-34.667 -44 -79.5 -78.167 -134.5 -102.5s-114.5 -36.5 -178.5 -36.5c-67.333 0 -125.666 11.833 -174.999 35.5s-87.166 57.834 -113.499 102.501
s-39.5 97.334 -39.5 158.001c0 96 31.333 170.167 94 222.5s162.334 85.166 299.001 98.499l248 27v93c0 64.667 -10.167 115.334 -30.5 152.001s-50.666 62.5 -90.999 77.5s-93.166 22.5 -158.499 22.5c-44.667 0 -92.5 -4 -143.5 -12s-100.833 -20.333 -149.5 -37v132
c44.667 15.333 95.334 27.166 152.001 35.499s110.667 12.5 162 12.5c94.667 0 172.334 -12.333 233.001 -37zM607.992 137.999c47.333 21.333 89.001 54.6689 125.001 100.002v280l-237 -26c-84.667 -8.66699 -146.167 -29.334 -184.5 -62.001
s-57.5 -78.334 -57.5 -137.001c0 -61.333 17.333 -107.833 52 -139.5s86 -47.5 154 -47.5c51.333 0 100.666 10.667 147.999 32zM582.493 1355.5c-22.333 7 -51.498 18.167 -87.498 33.5c-27.333 12.667 -50.833 22.167 -70.5 28.5s-39.167 9.5 -58.5 9.5
c-32.667 0 -62 -6 -88 -18s-51.667 -31.333 -77 -58v116c41.333 44.667 97 67 167 67c25.333 0 49.166 -3.5 71.499 -10.5s51.5 -18.167 87.5 -33.5c27.333 -12.667 50.833 -22.167 70.5 -28.5s39.167 -9.5 58.5 -9.5c32 0 61.167 6.16699 87.5 18.5
s52.166 31.5 77.499 57.5v-116c-42.667 -44.667 -98.334 -67 -167.001 -67c-25.333 0 -49.166 3.5 -71.499 10.5z" />
    <glyph glyph-name="adieresis" unicode="&#xe4;" horiz-adv-x="1029" 
d="M707 1065c60.667 -24.667 106.326 -65.668 136.993 -123.001s46 -134.333 46 -231v-711h-134l-12 121h-11c-34.667 -44 -79.5 -78.167 -134.5 -102.5s-114.5 -36.5 -178.5 -36.5c-67.333 0 -125.666 11.833 -174.999 35.5s-87.166 57.834 -113.499 102.501
s-39.5 97.334 -39.5 158.001c0 96 31.333 170.167 94 222.5s162.334 85.166 299.001 98.499l248 27v93c0 64.667 -10.167 115.334 -30.5 152.001s-50.666 62.5 -90.999 77.5s-93.166 22.5 -158.499 22.5c-44.667 0 -92.5 -4 -143.5 -12s-100.833 -20.333 -149.5 -37v132
c44.667 15.333 95.334 27.166 152.001 35.499s110.667 12.5 162 12.5c94.667 0 172.334 -12.333 233.001 -37zM607.992 137.999c47.333 21.333 89.001 54.6689 125.001 100.002v280l-237 -26c-84.667 -8.66699 -146.167 -29.334 -184.5 -62.001
s-57.5 -78.334 -57.5 -137.001c0 -61.333 17.333 -107.833 52 -139.5s86 -47.5 154 -47.5c51.333 0 100.666 10.667 147.999 32zM218.493 1348.5c-18.333 17.667 -27.5 41.834 -27.5 72.501s9.16699 55 27.5 73s43.5 27 75.5 27c31.333 0 56.166 -9 74.499 -27
s27.5 -42.333 27.5 -73s-9.16699 -54.834 -27.5 -72.501s-43.166 -26.5 -74.499 -26.5c-32 0 -57.167 8.83301 -75.5 26.5zM653.493 1348.5c-18.333 17.667 -27.5 41.834 -27.5 72.501s9.16699 55 27.5 73s43.166 27 74.499 27c32 0 57.167 -9 75.5 -27
s27.5 -42.333 27.5 -73s-9.16699 -54.834 -27.5 -72.501s-43.5 -26.5 -75.5 -26.5c-31.333 0 -56.166 8.83301 -74.499 26.5z" />
    <glyph glyph-name="aring" unicode="&#xe5;" horiz-adv-x="1029" 
d="M707 1065c60.667 -24.667 106.326 -65.668 136.993 -123.001s46 -134.333 46 -231v-711h-134l-12 121h-11c-34.667 -44 -79.5 -78.167 -134.5 -102.5s-114.5 -36.5 -178.5 -36.5c-67.333 0 -125.666 11.833 -174.999 35.5s-87.166 57.834 -113.499 102.501
s-39.5 97.334 -39.5 158.001c0 96 31.333 170.167 94 222.5s162.334 85.166 299.001 98.499l248 27v93c0 64.667 -10.167 115.334 -30.5 152.001s-50.666 62.5 -90.999 77.5s-93.166 22.5 -158.499 22.5c-44.667 0 -92.5 -4 -143.5 -12s-100.833 -20.333 -149.5 -37v132
c44.667 15.333 95.334 27.166 152.001 35.499s110.667 12.5 162 12.5c94.667 0 172.334 -12.333 233.001 -37zM607.992 137.999c47.333 21.333 89.001 54.6689 125.001 100.002v280l-237 -26c-84.667 -8.66699 -146.167 -29.334 -184.5 -62.001
s-57.5 -78.334 -57.5 -137.001c0 -61.333 17.333 -107.833 52 -139.5s86 -47.5 154 -47.5c51.333 0 100.666 10.667 147.999 32zM410.493 1273c-29.667 16.667 -53 39.667 -70 69s-25.5 62.333 -25.5 99s8.5 69.834 25.5 99.501s40.333 52.834 70 69.501s63.167 25 100.5 25
s70.833 -8.33301 100.5 -25s52.834 -39.834 69.501 -69.501s25 -62.834 25 -99.501s-8.33301 -69.667 -25 -99s-39.834 -52.333 -69.501 -69s-63.167 -25 -100.5 -25s-70.833 8.33301 -100.5 25zM594.993 1354.5c21.333 21.667 32 50.5 32 86.5
c0 36.667 -10.667 65.667 -32 87s-49.333 32 -84 32s-62.834 -10.667 -84.501 -32s-32.5 -50.333 -32.5 -87c0 -36 10.833 -64.833 32.5 -86.5s49.834 -32.5 84.501 -32.5s62.667 10.833 84 32.5z" />
    <glyph glyph-name="ae" unicode="&#xe6;" horiz-adv-x="1655" 
d="M1577 489l-686.992 0.00390625c2.66699 -91.333 17.667 -164.5 45 -219.5s67.166 -95 119.499 -120s119.166 -37.5 200.499 -37.5c79.333 0 168.666 14.667 267.999 44v-131c-97.333 -29.333 -192.666 -44 -285.999 -44c-100.667 0 -186 15.667 -256 47
s-125 79.666 -165 144.999c-56 -68.667 -115.833 -117.667 -179.5 -147s-131.834 -44 -204.501 -44c-70 0 -130.667 11.667 -182 35s-90.5 57.333 -117.5 102s-40.5 97.667 -40.5 159c0 99.333 33.667 177.666 101 234.999s173 86 317 86h224v121
c0 64.667 -10.333 115.167 -31 151.5s-51.334 62 -92.001 77s-93.334 22.5 -158.001 22.5c-44.667 0 -92.334 -4 -143.001 -12s-100.334 -20.333 -149.001 -37v132c46 15.333 96 27.166 150 35.499s106.667 12.5 158 12.5c96 0 174 -14.333 234 -43
s103.667 -74.667 131 -138c34.667 60.667 80 106 136 136s121.333 45 196 45c131.333 0 232.666 -46.333 303.999 -139s107 -233.334 107 -422.001v-52zM962.508 895.504c-45.667 -60.333 -69.833 -159.168 -72.5 -296.501h533
c-2.66699 138.667 -26.167 237.834 -70.5 297.501s-108.5 89.5 -192.5 89.5c-86 0 -151.833 -30.167 -197.5 -90.5zM628.509 146.502c52.333 27 98.833 71.168 139.5 132.501c-19.333 65.333 -30.333 136.333 -33 213h-217c-176 0 -264 -66.667 -264 -200
c0 -60.667 17.667 -106.834 53 -138.501s87.333 -47.5 156 -47.5c58 0 113.167 13.5 165.5 40.5z" />
    <glyph glyph-name="ccedilla" unicode="&#xe7;" horiz-adv-x="875" 
d="M422.5 924c-54.333 -27.333 -95.001 -71.667 -122.001 -133s-40.5 -143 -40.5 -245c0 -103.333 12.5 -186.5 37.5 -249.5s62.167 -108.667 111.5 -137s112 -42.5 188 -42.5c70 0 150 15 240 45v-136c-84.667 -30 -172.334 -45 -263.001 -45h-6v-85
c50.667 -6 89.167 -22.333 115.5 -49s39.5 -62 39.5 -106c0 -49.333 -17.667 -87.833 -53 -115.5s-86 -41.5 -152 -41.5c-30 0 -60.167 3.16699 -90.5 9.5s-56.5 14.833 -78.5 25.5v81c50 -24.667 105.333 -37 166 -37c38 0 66.167 6.83301 84.5 20.5s27.5 34.5 27.5 62.5
c0 57.333 -38 86 -114 86h-37v155c-125.333 17.333 -220.333 71.333 -285 162s-97 221.667 -97 393c0 192.667 43.833 334.167 131.5 424.5s217.167 135.5 388.5 135.5c80.667 0 155 -9.33301 223 -28v-136c-71.333 18 -139.666 27 -204.999 27
c-85.333 0 -155.166 -13.667 -209.499 -41z" />
    <glyph glyph-name="egrave" unicode="&#xe8;" horiz-adv-x="1030" 
d="M951 489l-695.001 -0.000976562c2.66699 -91.333 17.834 -164.666 45.501 -219.999s68.167 -95.333 121.5 -120s121.333 -37 204 -37c78.667 0 168.667 14.667 270 44v-131c-98.667 -29.333 -195 -44 -289 -44c-172.667 0 -301.5 44.667 -386.5 134
s-127.5 232 -127.5 428c0 186 38.5 325.667 115.5 419s184.833 140 323.5 140c135.333 0 238.833 -46.5 310.5 -139.5s107.5 -234.167 107.5 -423.5v-50zM329.999 894.999c-46.667 -60 -71.333 -158.667 -74 -296h541c-2.66699 138 -26.167 236.833 -70.5 296.5
s-109.5 89.5 -195.5 89.5c-87.333 0 -154.333 -30 -201 -90zM457 1253l-241 363h173l216 -363h-148z" />
    <glyph glyph-name="eacute" unicode="&#xe9;" horiz-adv-x="1030" 
d="M951 489l-695.001 -0.000976562c2.66699 -91.333 17.834 -164.666 45.501 -219.999s68.167 -95.333 121.5 -120s121.333 -37 204 -37c78.667 0 168.667 14.667 270 44v-131c-98.667 -29.333 -195 -44 -289 -44c-172.667 0 -301.5 44.667 -386.5 134
s-127.5 232 -127.5 428c0 186 38.5 325.667 115.5 419s184.833 140 323.5 140c135.333 0 238.833 -46.5 310.5 -139.5s107.5 -234.167 107.5 -423.5v-50zM329.999 894.999c-46.667 -60 -71.333 -158.667 -74 -296h541c-2.66699 138 -26.167 236.833 -70.5 296.5
s-109.5 89.5 -195.5 89.5c-87.333 0 -154.333 -30 -201 -90zM457 1253l216 363h173l-241 -363h-148z" />
    <glyph glyph-name="ecircumflex" unicode="&#xea;" horiz-adv-x="1030" 
d="M951 489l-695.001 -0.000976562c2.66699 -91.333 17.834 -164.666 45.501 -219.999s68.167 -95.333 121.5 -120s121.333 -37 204 -37c78.667 0 168.667 14.667 270 44v-131c-98.667 -29.333 -195 -44 -289 -44c-172.667 0 -301.5 44.667 -386.5 134
s-127.5 232 -127.5 428c0 186 38.5 325.667 115.5 419s184.833 140 323.5 140c135.333 0 238.833 -46.5 310.5 -139.5s107.5 -234.167 107.5 -423.5v-50zM329.999 894.999c-46.667 -60 -71.333 -158.667 -74 -296h541c-2.66699 138 -26.167 236.833 -70.5 296.5
s-109.5 89.5 -195.5 89.5c-87.333 0 -154.333 -30 -201 -90zM826 1253h-128l-167 280l-167 -280h-129l224 363h144z" />
    <glyph glyph-name="edieresis" unicode="&#xeb;" horiz-adv-x="1030" 
d="M951 489l-695.001 -0.000976562c2.66699 -91.333 17.834 -164.666 45.501 -219.999s68.167 -95.333 121.5 -120s121.333 -37 204 -37c78.667 0 168.667 14.667 270 44v-131c-98.667 -29.333 -195 -44 -289 -44c-172.667 0 -301.5 44.667 -386.5 134
s-127.5 232 -127.5 428c0 186 38.5 325.667 115.5 419s184.833 140 323.5 140c135.333 0 238.833 -46.5 310.5 -139.5s107.5 -234.167 107.5 -423.5v-50zM329.999 894.999c-46.667 -60 -71.333 -158.667 -74 -296h541c-2.66699 138 -26.167 236.833 -70.5 296.5
s-109.5 89.5 -195.5 89.5c-87.333 0 -154.333 -30 -201 -90zM238.5 1348.5c-18.333 17.667 -27.5 41.834 -27.5 72.501s9.16699 55 27.5 73s43.5 27 75.5 27c31.333 0 56.166 -9 74.499 -27s27.5 -42.333 27.5 -73s-9.16699 -54.834 -27.5 -72.501
s-43.166 -26.5 -74.499 -26.5c-32 0 -57.167 8.83301 -75.5 26.5zM673.5 1348.5c-18.333 17.667 -27.5 41.834 -27.5 72.501s9.16699 55 27.5 73s43.166 27 74.499 27c32 0 57.167 -9 75.5 -27s27.5 -42.333 27.5 -73s-9.16699 -54.834 -27.5 -72.501
s-43.5 -26.5 -75.5 -26.5c-31.333 0 -56.166 8.83301 -74.499 26.5z" />
    <glyph glyph-name="igrave" unicode="&#xec;" horiz-adv-x="463" 
d="M151 0v1085h160v-1085h-160zM157 1253l-241 363h173l216 -363h-148z" />
    <glyph glyph-name="iacute" unicode="&#xed;" horiz-adv-x="463" 
d="M151 0v1085h160v-1085h-160zM157 1253l216 363h173l-241 -363h-148z" />
    <glyph glyph-name="icircumflex" unicode="&#xee;" horiz-adv-x="463" 
d="M151 0v1085h160v-1085h-160zM526 1253h-128l-167 280l-167 -280h-129l224 363h144z" />
    <glyph glyph-name="idieresis" unicode="&#xef;" horiz-adv-x="463" 
d="M151 0v1085h160v-1085h-160zM-61.5 1348.5c-18.333 17.667 -27.5 41.834 -27.5 72.501s9.16699 55 27.5 73s43.5 27 75.5 27c31.333 0 56.166 -9 74.499 -27s27.5 -42.333 27.5 -73s-9.16699 -54.834 -27.5 -72.501s-43.166 -26.5 -74.499 -26.5
c-32 0 -57.167 8.83301 -75.5 26.5zM373.5 1348.5c-18.333 17.667 -27.5 41.834 -27.5 72.501s9.16699 55 27.5 73s43.166 27 74.499 27c32 0 57.167 -9 75.5 -27s27.5 -42.333 27.5 -73s-9.16699 -54.834 -27.5 -72.501s-43.5 -26.5 -75.5 -26.5
c-31.333 0 -56.166 8.83301 -74.499 26.5z" />
    <glyph glyph-name="eth" unicode="&#xf0;" horiz-adv-x="1111" 
d="M953.5 964c42.333 -128.667 63.166 -255.667 62.499 -381c0 -204 -40.167 -355.5 -120.5 -454.5s-193.166 -148.5 -338.499 -148.5c-146.667 0 -260.5 45.833 -341.5 137.5s-121.5 232.834 -121.5 423.501c0 189.333 39.833 329.666 119.5 420.999s190.167 137 331.5 137
c90 0 165.667 -23.333 227 -70c-36.667 93.333 -85.334 182.333 -146.001 267l-422 -72l-18 100l368 63c-71.333 82.667 -153.666 159 -246.999 229h198c75.333 -56 144.333 -123.333 207 -202l261 44l19 -100l-213 -36c74 -110 132.167 -229.333 174.5 -358zM776 212.5
c51.333 67.667 77 176.167 77 325.5c0 156.667 -25.333 268 -76 334s-124.667 99 -222 99s-171.333 -32.833 -222 -98.5s-76 -175.5 -76 -329.5c0 -156 25.5 -267 76.5 -333s125.5 -99 223.5 -99c94.667 0 167.667 33.833 219 101.5z" />
    <glyph glyph-name="ntilde" unicode="&#xf1;" horiz-adv-x="1137" 
d="M151 1085l134.999 -0.00195312l11 -123h11c44.667 45.333 96.167 80 154.5 104s120.5 36 186.5 36c108.667 0 193.834 -30.5 255.501 -91.5s92.5 -158.833 92.5 -293.5v-717h-160v710c0 88.667 -19.5 152.334 -58.5 191.001s-95.167 58 -168.5 58
c-54 0 -108 -11.667 -162 -35s-99.667 -59.666 -137 -108.999v-815h-160v1085zM646.499 1355.5c-22.333 7 -51.498 18.167 -87.498 33.5c-27.333 12.667 -50.833 22.167 -70.5 28.5s-39.167 9.5 -58.5 9.5c-32.667 0 -62 -6 -88 -18s-51.667 -31.333 -77 -58v116
c41.333 44.667 97 67 167 67c25.333 0 49.166 -3.5 71.499 -10.5s51.5 -18.167 87.5 -33.5c27.333 -12.667 50.833 -22.167 70.5 -28.5s39.167 -9.5 58.5 -9.5c32 0 61.167 6.16699 87.5 18.5s52.166 31.5 77.499 57.5v-116c-42.667 -44.667 -98.334 -67 -167.001 -67
c-25.333 0 -49.166 3.5 -71.499 10.5z" />
    <glyph glyph-name="ograve" unicode="&#xf2;" horiz-adv-x="1111" 
d="M215.5 118.5c-81 91.667 -121.502 232.499 -121.502 422.499s40.333 331 121 423s194 138 340 138c146.667 0 260.334 -45.667 341.001 -137s121 -232.333 121 -423c0 -189.333 -40.667 -330.166 -122 -422.499s-194.666 -138.5 -339.999 -138.5
s-258.5 45.833 -339.5 137.5zM776.998 209.499c50.667 65.667 76 175.499 76 329.499c0 156.667 -25.333 267.834 -76 333.501s-124.667 98.5 -222 98.5c-96.667 0 -170.5 -32.667 -221.5 -98s-76.5 -175 -76.5 -329c0 -156 25.333 -267.167 76 -333.5
s124.667 -99.5 222 -99.5s171.333 32.833 222 98.5zM480.998 1253l-241 363h173l216 -363h-148z" />
    <glyph glyph-name="oacute" unicode="&#xf3;" horiz-adv-x="1111" 
d="M215.5 118.5c-81 91.667 -121.502 232.499 -121.502 422.499s40.333 331 121 423s194 138 340 138c146.667 0 260.334 -45.667 341.001 -137s121 -232.333 121 -423c0 -189.333 -40.667 -330.166 -122 -422.499s-194.666 -138.5 -339.999 -138.5
s-258.5 45.833 -339.5 137.5zM776.998 209.499c50.667 65.667 76 175.499 76 329.499c0 156.667 -25.333 267.834 -76 333.501s-124.667 98.5 -222 98.5c-96.667 0 -170.5 -32.667 -221.5 -98s-76.5 -175 -76.5 -329c0 -156 25.333 -267.167 76 -333.5
s124.667 -99.5 222 -99.5s171.333 32.833 222 98.5zM480.998 1253l216 363h173l-241 -363h-148z" />
    <glyph glyph-name="ocircumflex" unicode="&#xf4;" horiz-adv-x="1111" 
d="M215.5 118.5c-81 91.667 -121.502 232.499 -121.502 422.499s40.333 331 121 423s194 138 340 138c146.667 0 260.334 -45.667 341.001 -137s121 -232.333 121 -423c0 -189.333 -40.667 -330.166 -122 -422.499s-194.666 -138.5 -339.999 -138.5
s-258.5 45.833 -339.5 137.5zM776.998 209.499c50.667 65.667 76 175.499 76 329.499c0 156.667 -25.333 267.834 -76 333.501s-124.667 98.5 -222 98.5c-96.667 0 -170.5 -32.667 -221.5 -98s-76.5 -175 -76.5 -329c0 -156 25.333 -267.167 76 -333.5
s124.667 -99.5 222 -99.5s171.333 32.833 222 98.5zM849.998 1253h-128l-167 280l-167 -280h-129l224 363h144z" />
    <glyph glyph-name="otilde" unicode="&#xf5;" horiz-adv-x="1111" 
d="M215.5 118.5c-81 91.667 -121.502 232.499 -121.502 422.499s40.333 331 121 423s194 138 340 138c146.667 0 260.334 -45.667 341.001 -137s121 -232.333 121 -423c0 -189.333 -40.667 -330.166 -122 -422.499s-194.666 -138.5 -339.999 -138.5
s-258.5 45.833 -339.5 137.5zM776.998 209.499c50.667 65.667 76 175.499 76 329.499c0 156.667 -25.333 267.834 -76 333.501s-124.667 98.5 -222 98.5c-96.667 0 -170.5 -32.667 -221.5 -98s-76.5 -175 -76.5 -329c0 -156 25.333 -267.167 76 -333.5
s124.667 -99.5 222 -99.5s171.333 32.833 222 98.5zM626.498 1355.5c-22.333 7 -51.498 18.167 -87.498 33.5c-27.333 12.667 -50.833 22.167 -70.5 28.5s-39.167 9.5 -58.5 9.5c-32.667 0 -62 -6 -88 -18s-51.667 -31.333 -77 -58v116c41.333 44.667 97 67 167 67
c25.333 0 49.166 -3.5 71.499 -10.5s51.5 -18.167 87.5 -33.5c27.333 -12.667 50.833 -22.167 70.5 -28.5s39.167 -9.5 58.5 -9.5c32 0 61.167 6.16699 87.5 18.5s52.166 31.5 77.499 57.5v-116c-42.667 -44.667 -98.334 -67 -167.001 -67
c-25.333 0 -49.166 3.5 -71.499 10.5z" />
    <glyph glyph-name="odieresis" unicode="&#xf6;" horiz-adv-x="1111" 
d="M215.5 118.5c-81 91.667 -121.502 232.499 -121.502 422.499s40.333 331 121 423s194 138 340 138c146.667 0 260.334 -45.667 341.001 -137s121 -232.333 121 -423c0 -189.333 -40.667 -330.166 -122 -422.499s-194.666 -138.5 -339.999 -138.5
s-258.5 45.833 -339.5 137.5zM776.998 209.499c50.667 65.667 76 175.499 76 329.499c0 156.667 -25.333 267.834 -76 333.501s-124.667 98.5 -222 98.5c-96.667 0 -170.5 -32.667 -221.5 -98s-76.5 -175 -76.5 -329c0 -156 25.333 -267.167 76 -333.5
s124.667 -99.5 222 -99.5s171.333 32.833 222 98.5zM262.498 1348.5c-18.333 17.667 -27.5 41.834 -27.5 72.501s9.16699 55 27.5 73s43.5 27 75.5 27c31.333 0 56.166 -9 74.499 -27s27.5 -42.333 27.5 -73s-9.16699 -54.834 -27.5 -72.501s-43.166 -26.5 -74.499 -26.5
c-32 0 -57.167 8.83301 -75.5 26.5zM697.498 1348.5c-18.333 17.667 -27.5 41.834 -27.5 72.501s9.16699 55 27.5 73s43.166 27 74.499 27c32 0 57.167 -9 75.5 -27s27.5 -42.333 27.5 -73s-9.16699 -54.834 -27.5 -72.501s-43.5 -26.5 -75.5 -26.5
c-31.333 0 -56.166 8.83301 -74.499 26.5z" />
    <glyph glyph-name="divide" unicode="&#xf7;" horiz-adv-x="1075" 
d="M459 1039c-20 18.667 -30.001 44 -30.001 76s10 57.667 30 77s46.333 29 79 29s58.834 -9.83301 78.501 -29.5s29.5 -45.167 29.5 -76.5s-10 -56.5 -30 -75.5s-46 -28.5 -78 -28.5c-32.667 0 -59 9.33301 -79 28zM148.999 695v130h777v-130h-777zM458.999 327
c-20 18.667 -30.001 44 -30.001 76s10 57.667 30 77s46.333 29 79 29s58.834 -9.83301 78.501 -29.5s29.5 -45.167 29.5 -76.5s-10 -56.5 -30 -75.5s-46 -28.5 -78 -28.5c-32.667 0 -59 9.33301 -79 28z" />
    <glyph glyph-name="oslash" unicode="&#xf8;" horiz-adv-x="1111" 
d="M1017 542c0 -189.333 -40.666 -330.167 -121.999 -422.5s-194.666 -138.5 -339.999 -138.5c-114.667 0 -208.334 27.667 -281.001 83l-68 -95l-80 58l77 108c-72.667 94.667 -109 230 -109 406c0 190 40.333 331 121 423s194 138 340 138
c113.333 0 206.666 -26.667 279.999 -80l68 94l80 -58l-76 -107c73.333 -94 110 -230.333 110 -409zM331.001 874.499c-51.333 -65.667 -77 -175.833 -77 -330.5c0 -120 15.333 -213.667 46 -281l456 639c-47.333 47.333 -114.333 71 -201 71
c-98 0 -172.667 -32.833 -224 -98.5zM780.001 208.5c51.333 65.667 77 175.833 77 330.5c0 120 -16 214.667 -48 284l-456 -640c48 -48.667 115.333 -73 202 -73c98.667 0 173.667 32.833 225 98.5z" />
    <glyph glyph-name="ugrave" unicode="&#xf9;" horiz-adv-x="1127" 
d="M231.5 73c-61.667 60.667 -92.5 157.667 -92.5 291v721h160v-713c0 -88 19.5 -151.167 58.5 -189.5s93.5 -57.5 163.5 -57.5c53.333 0 106.833 12 160.5 36s98.5 60 134.5 108v816h160v-1085h-135l-12 119h-10c-44.667 -45.333 -95.5 -79.5 -152.5 -102.5
s-117.5 -34.5 -181.5 -34.5c-107.333 0 -191.833 30.333 -253.5 91zM484 1253l-241 363h173l216 -363h-148z" />
    <glyph glyph-name="uacute" unicode="&#xfa;" horiz-adv-x="1127" 
d="M231.5 73c-61.667 60.667 -92.5 157.667 -92.5 291v721h160v-713c0 -88 19.5 -151.167 58.5 -189.5s93.5 -57.5 163.5 -57.5c53.333 0 106.833 12 160.5 36s98.5 60 134.5 108v816h160v-1085h-135l-12 119h-10c-44.667 -45.333 -95.5 -79.5 -152.5 -102.5
s-117.5 -34.5 -181.5 -34.5c-107.333 0 -191.833 30.333 -253.5 91zM484 1253l216 363h173l-241 -363h-148z" />
    <glyph glyph-name="ucircumflex" unicode="&#xfb;" horiz-adv-x="1127" 
d="M231.5 73c-61.667 60.667 -92.5 157.667 -92.5 291v721h160v-713c0 -88 19.5 -151.167 58.5 -189.5s93.5 -57.5 163.5 -57.5c53.333 0 106.833 12 160.5 36s98.5 60 134.5 108v816h160v-1085h-135l-12 119h-10c-44.667 -45.333 -95.5 -79.5 -152.5 -102.5
s-117.5 -34.5 -181.5 -34.5c-107.333 0 -191.833 30.333 -253.5 91zM853 1253h-128l-167 280l-167 -280h-129l224 363h144z" />
    <glyph glyph-name="udieresis" unicode="&#xfc;" horiz-adv-x="1127" 
d="M231.5 73c-61.667 60.667 -92.5 157.667 -92.5 291v721h160v-713c0 -88 19.5 -151.167 58.5 -189.5s93.5 -57.5 163.5 -57.5c53.333 0 106.833 12 160.5 36s98.5 60 134.5 108v816h160v-1085h-135l-12 119h-10c-44.667 -45.333 -95.5 -79.5 -152.5 -102.5
s-117.5 -34.5 -181.5 -34.5c-107.333 0 -191.833 30.333 -253.5 91zM265.5 1348.5c-18.333 17.667 -27.5 41.834 -27.5 72.501s9.16699 55 27.5 73s43.5 27 75.5 27c31.333 0 56.166 -9 74.499 -27s27.5 -42.333 27.5 -73s-9.16699 -54.834 -27.5 -72.501
s-43.166 -26.5 -74.499 -26.5c-32 0 -57.167 8.83301 -75.5 26.5zM700.5 1348.5c-18.333 17.667 -27.5 41.834 -27.5 72.501s9.16699 55 27.5 73s43.166 27 74.499 27c32 0 57.167 -9 75.5 -27s27.5 -42.333 27.5 -73s-9.16699 -54.834 -27.5 -72.501
s-43.5 -26.5 -75.5 -26.5c-31.333 0 -56.166 8.83301 -74.499 26.5z" />
    <glyph glyph-name="yacute" unicode="&#xfd;" horiz-adv-x="1057" 
d="M880 1085h161l-576 -1525h-160l167 440h-47l-409 1085h170l344 -951zM456 1253l216 363h173l-241 -363h-148z" />
    <glyph glyph-name="thorn" unicode="&#xfe;" horiz-adv-x="1129" 
d="M151 1616h159.999v-645h10c34.667 40.667 77.334 72.667 128.001 96s108 35 172 35c79.333 0 150 -18.167 212 -54.5s111.167 -94.666 147.5 -174.999s54.5 -183.5 54.5 -309.5c0 -194.667 -46 -340.334 -138 -437.001s-228.667 -145 -410 -145
c-48 0 -106.667 4.66699 -176 14v-435h-160v2056zM777.499 215.5c63 69 94.499 179.833 94.499 332.5c0 152 -26.333 259.333 -79 322s-126 94 -220 94c-51.333 0 -100.166 -11 -146.499 -33s-84.833 -54.667 -115.5 -98v-702c25.333 -5.33301 54 -9.83301 86 -13.5
s63 -5.5 93 -5.5c128.667 0 224.5 34.5 287.5 103.5z" />
    <glyph glyph-name="ydieresis" unicode="&#xff;" horiz-adv-x="1057" 
d="M880 1085h161l-576 -1525h-160l167 440h-47l-409 1085h170l344 -951zM237.5 1348.5c-18.333 17.667 -27.5 41.834 -27.5 72.501s9.16699 55 27.5 73s43.5 27 75.5 27c31.333 0 56.166 -9 74.499 -27s27.5 -42.333 27.5 -73s-9.16699 -54.834 -27.5 -72.501
s-43.166 -26.5 -74.499 -26.5c-32 0 -57.167 8.83301 -75.5 26.5zM672.5 1348.5c-18.333 17.667 -27.5 41.834 -27.5 72.501s9.16699 55 27.5 73s43.166 27 74.499 27c32 0 57.167 -9 75.5 -27s27.5 -42.333 27.5 -73s-9.16699 -54.834 -27.5 -72.501
s-43.5 -26.5 -75.5 -26.5c-31.333 0 -56.166 8.83301 -74.499 26.5z" />
    <glyph glyph-name="Amacron" unicode="&#x100;" horiz-adv-x="1348" 
d="M1154 0l-169 479h-625l-169 -479h-163l531 1480h229l531 -1480h-165zM408 616h528l-264 746zM368 1696v109h612v-109h-612z" />
    <glyph glyph-name="amacron" unicode="&#x101;" horiz-adv-x="1029" 
d="M707 1065c60.667 -24.667 106.326 -65.668 136.993 -123.001s46 -134.333 46 -231v-711h-134l-12 121h-11c-34.667 -44 -79.5 -78.167 -134.5 -102.5s-114.5 -36.5 -178.5 -36.5c-67.333 0 -125.666 11.833 -174.999 35.5s-87.166 57.834 -113.499 102.501
s-39.5 97.334 -39.5 158.001c0 96 31.333 170.167 94 222.5s162.334 85.166 299.001 98.499l248 27v93c0 64.667 -10.167 115.334 -30.5 152.001s-50.666 62.5 -90.999 77.5s-93.166 22.5 -158.499 22.5c-44.667 0 -92.5 -4 -143.5 -12s-100.833 -20.333 -149.5 -37v132
c44.667 15.333 95.334 27.166 152.001 35.499s110.667 12.5 162 12.5c94.667 0 172.334 -12.333 233.001 -37zM607.992 137.999c47.333 21.333 89.001 54.6689 125.001 100.002v280l-237 -26c-84.667 -8.66699 -146.167 -29.334 -184.5 -62.001
s-57.5 -78.334 -57.5 -137.001c0 -61.333 17.333 -107.833 52 -139.5s86 -47.5 154 -47.5c51.333 0 100.666 10.667 147.999 32zM200.993 1368v108h620v-108h-620z" />
    <glyph glyph-name="Abreve" unicode="&#x102;" horiz-adv-x="1348" 
d="M1154 0l-169 479h-625l-169 -479h-163l531 1480h229l531 -1480h-165zM408 616h528l-264 746zM448 1684.5c-54 45 -85.001 107.167 -93.001 186.5h108c8 -54 28.5 -94 61.5 -120s83.167 -39 150.5 -39s117.333 13 150 39s52.334 66 59.001 120h109
c-8 -80 -38.5 -142.333 -91.5 -187s-128.5 -67 -226.5 -67c-97.333 0 -173 22.5 -227 67.5z" />
    <glyph glyph-name="abreve" unicode="&#x103;" horiz-adv-x="1029" 
d="M707 1065c60.667 -24.667 106.326 -65.668 136.993 -123.001s46 -134.333 46 -231v-711h-134l-12 121h-11c-34.667 -44 -79.5 -78.167 -134.5 -102.5s-114.5 -36.5 -178.5 -36.5c-67.333 0 -125.666 11.833 -174.999 35.5s-87.166 57.834 -113.499 102.501
s-39.5 97.334 -39.5 158.001c0 96 31.333 170.167 94 222.5s162.334 85.166 299.001 98.499l248 27v93c0 64.667 -10.167 115.334 -30.5 152.001s-50.666 62.5 -90.999 77.5s-93.166 22.5 -158.499 22.5c-44.667 0 -92.5 -4 -143.5 -12s-100.833 -20.333 -149.5 -37v132
c44.667 15.333 95.334 27.166 152.001 35.499s110.667 12.5 162 12.5c94.667 0 172.334 -12.333 233.001 -37zM607.992 137.999c47.333 21.333 89.001 54.6689 125.001 100.002v280l-237 -26c-84.667 -8.66699 -146.167 -29.334 -184.5 -62.001
s-57.5 -78.334 -57.5 -137.001c0 -61.333 17.333 -107.833 52 -139.5s86 -47.5 154 -47.5c51.333 0 100.666 10.667 147.999 32zM296.493 1349c-52.333 56.667 -80.833 137 -85.5 241h108c5.33301 -76.667 23.666 -134.334 54.999 -173.001s77.333 -58 138 -58
s106.5 19.333 137.5 58s48.833 96.334 53.5 173.001h107c-4 -104.667 -31.833 -185.167 -83.5 -241.5s-123.167 -84.5 -214.5 -84.5s-163.166 28.333 -215.499 85z" />
    <glyph glyph-name="Aogonek" unicode="&#x104;" horiz-adv-x="1348" 
d="M1330.5 -327.5c25 5.66699 53.832 15.167 86.499 28.5v-80c-56.667 -24.667 -114.667 -37 -174 -37c-76 0 -134.167 16 -174.5 48s-60.5 77.333 -60.5 136c0 45.333 12 86.833 36 124.5s63.667 73.5 119 107.5h-9l-169 479h-625l-169 -479h-163l531 1480h229l531 -1480
c-78 -36.667 -132.333 -72.5 -163 -107.5s-46 -73.5 -46 -115.5c0 -36.667 12.333 -64.667 37 -84s61.334 -29 110.001 -29c24 0 48.5 2.83301 73.5 8.5zM407.999 616h528l-264 746z" />
    <glyph glyph-name="aogonek" unicode="&#x105;" horiz-adv-x="1029" 
d="M972 -296l-0.00878906 -81.001c-22.667 -12 -47.667 -21.5 -75 -28.5s-55 -10.5 -83 -10.5c-68 0 -120.833 16.333 -158.5 49s-56.5 77.667 -56.5 135c0 46.667 12.333 89.667 37 129s64.334 76.333 119.001 111l-11 113h-11c-34.667 -44 -79.5 -78.167 -134.5 -102.5
s-114.5 -36.5 -178.5 -36.5c-67.333 0 -125.666 11.833 -174.999 35.5s-87.166 57.834 -113.499 102.501s-39.5 97.334 -39.5 158.001c0 96 31.333 170.167 94 222.5s162.334 85.166 299.001 98.499l248 27v93c0 64.667 -10.167 115.334 -30.5 152.001
s-50.666 62.5 -90.999 77.5s-93.166 22.5 -158.499 22.5c-44.667 0 -92.5 -4 -143.5 -12s-100.833 -20.333 -149.5 -37v132c44.667 15.333 95.334 27.166 152.001 35.499s110.667 12.5 162 12.5c94.667 0 172.334 -12.333 233.001 -37s106.334 -65.667 137.001 -123
s46 -134.333 46 -231v-711c-68 -36 -116.5 -71.667 -145.5 -107s-43.5 -74 -43.5 -116c0 -35.333 11.167 -63 33.5 -83s53.5 -30 93.5 -30c47.333 0 95.333 13.333 144 40zM607.991 137.999c47.333 21.333 89.001 54.6689 125.001 100.002v280l-237 -26
c-84.667 -8.66699 -146.167 -29.334 -184.5 -62.001s-57.5 -78.334 -57.5 -137.001c0 -61.333 17.333 -107.833 52 -139.5s86 -47.5 154 -47.5c51.333 0 100.666 10.667 147.999 32z" />
    <glyph glyph-name="Cacute" unicode="&#x106;" horiz-adv-x="1151" 
d="M279 159.5c-116 119 -174.002 311.501 -174.002 577.501c0 260.667 59 452.834 177 576.501s287.667 185.5 509 185.5c108 0 214.667 -14.333 320 -43v-142c-102 29.333 -206.667 44 -314 44c-115.333 0 -211.166 -20.333 -287.499 -61s-134.333 -106.334 -174 -197.001
s-59.5 -210.334 -59.5 -359.001c0 -152.667 20 -274.5 60 -365.5s97.333 -156 172 -195s167.667 -58.5 279 -58.5c54.667 0 107.834 4.33301 159.501 13s106.5 23 164.5 43v-142c-104 -36.667 -216 -55 -336 -55c-214.667 0 -380 59.5 -496 178.5zM627.998 1608l178 284h173
l-204 -284h-147z" />
    <glyph glyph-name="cacute" unicode="&#x107;" horiz-adv-x="875" 
d="M216 117c-81.333 90.667 -122.002 232.332 -122.002 424.999s43.833 334.167 131.5 424.5s217.167 135.5 388.5 135.5c80.667 0 155 -9.33301 223 -28v-136c-71.333 18 -139.666 27 -204.999 27c-85.333 0 -155.166 -13.667 -209.499 -41s-95 -71.666 -122 -132.999
s-40.5 -143 -40.5 -245c0 -103.333 12.5 -186.5 37.5 -249.5s62.167 -108.667 111.5 -137s112 -42.5 188 -42.5c70 0 150 15 240 45v-136c-84.667 -30 -172.334 -45 -263.001 -45c-157.333 0 -276.666 45.333 -357.999 136zM438.998 1253l216 363h173l-241 -363h-148z" />
    <glyph glyph-name="Ccircumflex" unicode="&#x108;" horiz-adv-x="1151" 
d="M279 159.5c-116 119 -174.002 311.501 -174.002 577.501c0 260.667 59 452.834 177 576.501s287.667 185.5 509 185.5c108 0 214.667 -14.333 320 -43v-142c-102 29.333 -206.667 44 -314 44c-115.333 0 -211.166 -20.333 -287.499 -61s-134.333 -106.334 -174 -197.001
s-59.5 -210.334 -59.5 -359.001c0 -152.667 20 -274.5 60 -365.5s97.333 -156 172 -195s167.667 -58.5 279 -58.5c54.667 0 107.834 4.33301 159.501 13s106.5 23 164.5 43v-142c-104 -36.667 -216 -55 -336 -55c-214.667 0 -380 59.5 -496 178.5zM1021 1608h-140l-179 214
l-179 -214h-140l245 284h148z" />
    <glyph glyph-name="ccircumflex" unicode="&#x109;" horiz-adv-x="875" 
d="M216 117c-81.333 90.667 -122.002 232.332 -122.002 424.999s43.833 334.167 131.5 424.5s217.167 135.5 388.5 135.5c80.667 0 155 -9.33301 223 -28v-136c-71.333 18 -139.666 27 -204.999 27c-85.333 0 -155.166 -13.667 -209.499 -41s-95 -71.666 -122 -132.999
s-40.5 -143 -40.5 -245c0 -103.333 12.5 -186.5 37.5 -249.5s62.167 -108.667 111.5 -137s112 -42.5 188 -42.5c70 0 150 15 240 45v-136c-84.667 -30 -172.334 -45 -263.001 -45c-157.333 0 -276.666 45.333 -357.999 136zM807.998 1253h-128l-167 280l-167 -280h-129
l224 363h144z" />
    <glyph glyph-name="Cdotaccent" unicode="&#x10a;" horiz-adv-x="1151" 
d="M279 159.5c-116 119 -174.002 311.501 -174.002 577.501c0 260.667 59 452.834 177 576.501s287.667 185.5 509 185.5c108 0 214.667 -14.333 320 -43v-142c-102 29.333 -206.667 44 -314 44c-115.333 0 -211.166 -20.333 -287.499 -61s-134.333 -106.334 -174 -197.001
s-59.5 -210.334 -59.5 -359.001c0 -152.667 20 -274.5 60 -365.5s97.333 -156 172 -195s167.667 -58.5 279 -58.5c54.667 0 107.834 4.33301 159.501 13s106.5 23 164.5 43v-142c-104 -36.667 -216 -55 -336 -55c-214.667 0 -380 59.5 -496 178.5zM620.498 1683
c-19.667 16 -29.5 38.667 -29.5 68s9.83301 52.5 29.5 69.5s46.834 25.5 81.501 25.5s61.834 -8.5 81.501 -25.5s29.5 -40.167 29.5 -69.5s-9.83301 -52 -29.5 -68s-46.834 -24 -81.501 -24s-61.834 8 -81.501 24z" />
    <glyph glyph-name="cdotaccent" unicode="&#x10b;" horiz-adv-x="875" 
d="M216 117c-81.333 90.667 -122.002 232.332 -122.002 424.999s43.833 334.167 131.5 424.5s217.167 135.5 388.5 135.5c80.667 0 155 -9.33301 223 -28v-136c-71.333 18 -139.666 27 -204.999 27c-85.333 0 -155.166 -13.667 -209.499 -41s-95 -71.666 -122 -132.999
s-40.5 -143 -40.5 -245c0 -103.333 12.5 -186.5 37.5 -249.5s62.167 -108.667 111.5 -137s112 -42.5 188 -42.5c70 0 150 15 240 45v-136c-84.667 -30 -172.334 -45 -263.001 -45c-157.333 0 -276.666 45.333 -357.999 136zM429.998 1346.5
c-19.333 17.667 -29 42.5 -29 74.5s9.83301 57 29.5 75s47.167 27 82.5 27s62.666 -9 81.999 -27s29 -43 29 -75s-9.66699 -56.833 -29 -74.5s-46.666 -26.5 -81.999 -26.5c-36 0 -63.667 8.83301 -83 26.5z" />
    <glyph glyph-name="Ccaron" unicode="&#x10c;" horiz-adv-x="1151" 
d="M279 159.5c-116 119 -174.002 311.501 -174.002 577.501c0 260.667 59 452.834 177 576.501s287.667 185.5 509 185.5c108 0 214.667 -14.333 320 -43v-142c-102 29.333 -206.667 44 -314 44c-115.333 0 -211.166 -20.333 -287.499 -61s-134.333 -106.334 -174 -197.001
s-59.5 -210.334 -59.5 -359.001c0 -152.667 20 -274.5 60 -365.5s97.333 -156 172 -195s167.667 -58.5 279 -58.5c54.667 0 107.834 4.33301 159.501 13s106.5 23 164.5 43v-142c-104 -36.667 -216 -55 -336 -55c-214.667 0 -380 59.5 -496 178.5zM880.998 1892h140
l-245 -284h-148l-245 284h140l179 -214z" />
    <glyph glyph-name="ccaron" unicode="&#x10d;" horiz-adv-x="875" 
d="M216 117c-81.333 90.667 -122.002 232.332 -122.002 424.999s43.833 334.167 131.5 424.5s217.167 135.5 388.5 135.5c80.667 0 155 -9.33301 223 -28v-136c-71.333 18 -139.666 27 -204.999 27c-85.333 0 -155.166 -13.667 -209.499 -41s-95 -71.666 -122 -132.999
s-40.5 -143 -40.5 -245c0 -103.333 12.5 -186.5 37.5 -249.5s62.167 -108.667 111.5 -137s112 -42.5 188 -42.5c70 0 150 15 240 45v-136c-84.667 -30 -172.334 -45 -263.001 -45c-157.333 0 -276.666 45.333 -357.999 136zM682.998 1616h129l-227 -363h-144l-227 363h129
l170 -281z" />
    <glyph glyph-name="Dcaron" unicode="&#x10e;" horiz-adv-x="1400" 
d="M169 9l0.000976562 1447c61.333 12 125.666 21.5 192.999 28.5s132 10.5 194 10.5c245.333 0 429.666 -62.167 552.999 -186.5s185 -313.833 185 -568.5c0 -258 -64.167 -447.833 -192.5 -569.5s-322.166 -182.5 -581.499 -182.5c-110.667 0 -227.667 7 -351 21z
M873.001 190c84.667 42 148.166 108.167 190.499 198.5s63.5 207.5 63.5 351.5c0 213.333 -46.333 369.333 -139 468s-235 148 -427 148c-70 0 -146.667 -6.33301 -230 -19v-1197c66.667 -8.66699 140.334 -13 221.001 -13c129.333 0 236.333 21 321 63zM813 1892h140
l-245 -284h-148l-245 284h140l179 -214z" />
    <glyph glyph-name="dcaron" unicode="&#x10f;" horiz-adv-x="1129" 
d="M301 36c-64 36.667 -114.5 95.168 -151.5 175.501s-55.5 183.166 -55.5 308.499c0 194 46.167 339.5 138.5 436.5s228.833 145.5 409.5 145.5c52 0 110.667 -5 176 -15v529h160v-1616h-137l-11 118h-10c-34 -42 -76.667 -75.333 -128 -100s-108.333 -37 -171 -37
c-82.667 0 -156 18.333 -220 55zM703 152.501c46 22.333 84.333 55.833 115 100.5v699c-25.333 5.33301 -54 9.83301 -86 13.5s-63 5.5 -93 5.5c-128.667 0 -224.5 -34.5 -287.5 -103.5s-94.5 -179.833 -94.5 -332.5c0 -151.333 26.167 -258.5 78.5 -321.5
s126.5 -94.5 222.5 -94.5c50.667 0 99 11.167 145 33.5zM1090 1616h119c0 -73.333 -4.16699 -148.166 -12.5 -224.499s-20.5 -146.833 -36.5 -211.5h-92c14.667 117.333 22 262.666 22 435.999z" />
    <glyph glyph-name="Dcroat" unicode="&#x110;" horiz-adv-x="1400" 
d="M1109 1308.5c123.333 -124.333 185.001 -313.833 185.001 -568.5c0 -258 -64.167 -447.833 -192.5 -569.5s-322.166 -182.5 -581.499 -182.5c-110.667 0 -227.667 7 -351 21v696h-166v114h166v637c61.333 12 125.666 21.5 192.999 28.5s132 10.5 194 10.5
c245.333 0 429.666 -62.167 552.999 -186.5zM873.001 190c84.667 42 148.166 108.167 190.499 198.5s63.5 207.5 63.5 351.5c0 213.333 -46.333 369.333 -139 468s-235 148 -427 148c-70 0 -146.667 -6.33301 -230 -19v-518h331v-114h-331v-565
c66.667 -8.66699 140.334 -13 221.001 -13c129.333 0 236.333 21 321 63z" />
    <glyph glyph-name="dcroat" unicode="&#x111;" horiz-adv-x="1129" 
d="M1120 1299l-142 0.000976562v-1299h-137l-11 118h-10c-34 -42 -76.667 -75.333 -128 -100s-108.333 -37 -171 -37c-82.667 0 -156 18.333 -220 55s-114.5 95.167 -151.5 175.5s-55.5 183.166 -55.5 308.499c0 194 46.167 339.5 138.5 436.5s228.833 145.5 409.5 145.5
c52 0 110.667 -5 176 -15v212h-353v112h353v205h160v-205h142v-112zM818 952.001c-25.333 5.33301 -54 9.83301 -86 13.5s-63 5.5 -93 5.5c-128.667 0 -224.5 -34.5 -287.5 -103.5s-94.5 -179.833 -94.5 -332.5c0 -151.333 26.167 -258.5 78.5 -321.5
s126.5 -94.5 222.5 -94.5c50.667 0 99 11.167 145 33.5s84.333 55.833 115 100.5v699z" />
    <glyph glyph-name="Emacron" unicode="&#x112;" horiz-adv-x="1166" 
d="M330 138h764v-138h-925v1480h915v-138h-754v-514h657v-137h-657v-553zM343 1696v109h612v-109h-612z" />
    <glyph glyph-name="emacron" unicode="&#x113;" horiz-adv-x="1030" 
d="M951 489l-695.001 -0.000976562c2.66699 -91.333 17.834 -164.666 45.501 -219.999s68.167 -95.333 121.5 -120s121.333 -37 204 -37c78.667 0 168.667 14.667 270 44v-131c-98.667 -29.333 -195 -44 -289 -44c-172.667 0 -301.5 44.667 -386.5 134
s-127.5 232 -127.5 428c0 186 38.5 325.667 115.5 419s184.833 140 323.5 140c135.333 0 238.833 -46.5 310.5 -139.5s107.5 -234.167 107.5 -423.5v-50zM329.999 894.999c-46.667 -60 -71.333 -158.667 -74 -296h541c-2.66699 138 -26.167 236.833 -70.5 296.5
s-109.5 89.5 -195.5 89.5c-87.333 0 -154.333 -30 -201 -90zM221 1368v108h620v-108h-620z" />
    <glyph glyph-name="Ebreve" unicode="&#x114;" horiz-adv-x="1166" 
d="M330 138h764v-138h-925v1480h915v-138h-754v-514h657v-137h-657v-553zM423 1684.5c-54 45 -85.001 107.167 -93.001 186.5h108c8 -54 28.5 -94 61.5 -120s83.167 -39 150.5 -39s117.333 13 150 39s52.334 66 59.001 120h109c-8 -80 -38.5 -142.333 -91.5 -187
s-128.5 -67 -226.5 -67c-97.333 0 -173 22.5 -227 67.5z" />
    <glyph glyph-name="ebreve" unicode="&#x115;" horiz-adv-x="1030" 
d="M951 489l-695.001 -0.000976562c2.66699 -91.333 17.834 -164.666 45.501 -219.999s68.167 -95.333 121.5 -120s121.333 -37 204 -37c78.667 0 168.667 14.667 270 44v-131c-98.667 -29.333 -195 -44 -289 -44c-172.667 0 -301.5 44.667 -386.5 134
s-127.5 232 -127.5 428c0 186 38.5 325.667 115.5 419s184.833 140 323.5 140c135.333 0 238.833 -46.5 310.5 -139.5s107.5 -234.167 107.5 -423.5v-50zM329.999 894.999c-46.667 -60 -71.333 -158.667 -74 -296h541c-2.66699 138 -26.167 236.833 -70.5 296.5
s-109.5 89.5 -195.5 89.5c-87.333 0 -154.333 -30 -201 -90zM316.5 1349c-52.333 56.667 -80.833 137 -85.5 241h108c5.33301 -76.667 23.666 -134.334 54.999 -173.001s77.333 -58 138 -58s106.5 19.333 137.5 58s48.833 96.334 53.5 173.001h107
c-4 -104.667 -31.833 -185.167 -83.5 -241.5s-123.167 -84.5 -214.5 -84.5s-163.166 28.333 -215.499 85z" />
    <glyph glyph-name="Edotaccent" unicode="&#x116;" horiz-adv-x="1166" 
d="M330 138h764v-138h-925v1480h915v-138h-754v-514h657v-137h-657v-553zM567.5 1683c-19.667 16 -29.5 38.667 -29.5 68s9.83301 52.5 29.5 69.5s46.834 25.5 81.501 25.5s61.834 -8.5 81.501 -25.5s29.5 -40.167 29.5 -69.5s-9.83301 -52 -29.5 -68
s-46.834 -24 -81.501 -24s-61.834 8 -81.501 24z" />
    <glyph glyph-name="edotaccent" unicode="&#x117;" horiz-adv-x="1030" 
d="M951 489l-695.001 -0.000976562c2.66699 -91.333 17.834 -164.666 45.501 -219.999s68.167 -95.333 121.5 -120s121.333 -37 204 -37c78.667 0 168.667 14.667 270 44v-131c-98.667 -29.333 -195 -44 -289 -44c-172.667 0 -301.5 44.667 -386.5 134
s-127.5 232 -127.5 428c0 186 38.5 325.667 115.5 419s184.833 140 323.5 140c135.333 0 238.833 -46.5 310.5 -139.5s107.5 -234.167 107.5 -423.5v-50zM329.999 894.999c-46.667 -60 -71.333 -158.667 -74 -296h541c-2.66699 138 -26.167 236.833 -70.5 296.5
s-109.5 89.5 -195.5 89.5c-87.333 0 -154.333 -30 -201 -90zM448 1346.5c-19.333 17.667 -29 42.5 -29 74.5s9.83301 57 29.5 75s47.167 27 82.5 27s62.666 -9 81.999 -27s29 -43 29 -75s-9.66699 -56.833 -29 -74.5s-46.666 -26.5 -81.999 -26.5
c-36 0 -63.667 8.83301 -83 26.5z" />
    <glyph glyph-name="Eogonek" unicode="&#x118;" horiz-adv-x="1166" 
d="M1023.5 -327.5c25 5.66699 53.832 15.167 86.499 28.5v-80c-56.667 -24.667 -114.667 -37 -174 -37c-76 0 -134.167 16 -174.5 48s-60.5 77.333 -60.5 136c0 45.333 12 86.833 36 124.5s63.667 73.5 119 107.5h-687v1480h915v-138h-754v-514h657v-137h-657v-553h764v-138
h-82c-78 -36.667 -132.333 -72.5 -163 -107.5s-46 -73.5 -46 -115.5c0 -36.667 12.333 -64.667 37 -84s61.334 -29 110.001 -29c24 0 48.5 2.83301 73.5 8.5z" />
    <glyph glyph-name="eogonek" unicode="&#x119;" horiz-adv-x="1030" 
d="M951 489h-695.001c2.66699 -91.333 17.834 -164.666 45.501 -219.999s68.167 -95.333 121.5 -120s121.333 -37 204 -37c78.667 0 168.667 14.667 270 44v-131c-100.667 -33.333 -171 -71 -211 -113s-60 -86.667 -60 -134c0 -36 11.167 -64 33.5 -84s53.5 -30 93.5 -30
c47.333 0 95.333 13.333 144 40v-81c-22.667 -12 -47.667 -21.5 -75 -28.5s-55 -10.5 -83 -10.5c-68 0 -120.833 16.333 -158.5 49s-56.5 77.667 -56.5 135c0 87.333 42 158.666 126 213.999c-10 -0.666992 -24 -1 -42 -1c-172.667 0 -301.5 44.667 -386.5 134
s-127.5 232 -127.5 428c0 186 38.5 325.667 115.5 419s184.833 140 323.5 140c135.333 0 238.833 -46.5 310.5 -139.5s107.5 -234.167 107.5 -423.5v-50zM330.499 893c-47 -60 -71.833 -158.667 -74.5 -296h541c-2.66699 138 -26.167 236.833 -70.5 296.5
s-109.5 89.5 -195.5 89.5c-86.667 0 -153.5 -30 -200.5 -90z" />
    <glyph glyph-name="Ecaron" unicode="&#x11a;" horiz-adv-x="1166" 
d="M330 138h764v-138h-925v1480h915v-138h-754v-514h657v-137h-657v-553zM828 1892h140l-245 -284h-148l-245 284h140l179 -214z" />
    <glyph glyph-name="ecaron" unicode="&#x11b;" horiz-adv-x="1030" 
d="M951 489l-695.001 -0.000976562c2.66699 -91.333 17.834 -164.666 45.501 -219.999s68.167 -95.333 121.5 -120s121.333 -37 204 -37c78.667 0 168.667 14.667 270 44v-131c-98.667 -29.333 -195 -44 -289 -44c-172.667 0 -301.5 44.667 -386.5 134
s-127.5 232 -127.5 428c0 186 38.5 325.667 115.5 419s184.833 140 323.5 140c135.333 0 238.833 -46.5 310.5 -139.5s107.5 -234.167 107.5 -423.5v-50zM329.999 894.999c-46.667 -60 -71.333 -158.667 -74 -296h541c-2.66699 138 -26.167 236.833 -70.5 296.5
s-109.5 89.5 -195.5 89.5c-87.333 0 -154.333 -30 -201 -90zM701 1616h129l-227 -363h-144l-227 363h129l170 -281z" />
    <glyph glyph-name="Gcircumflex" unicode="&#x11c;" horiz-adv-x="1347" 
d="M1196 720l0.000976562 -703.999c-62 -10.667 -119 -18.167 -171 -22.5s-105.667 -6.5 -161 -6.5c-253.333 0 -443 60.667 -569 182s-189.333 311 -190 569c0 260 63.333 451.833 190 575.5s305 185.5 535 185.5c110 0 220.667 -14.667 332 -44v-142
c-57.333 16 -112 27.5 -164 34.5s-104.667 10.5 -158 10.5c-184.667 0 -325 -48.333 -421 -145s-144 -255.334 -144 -476.001c0 -143.333 21.5 -260 64.5 -350s107.167 -155.833 192.5 -197.5s193 -62.5 323 -62.5c67.333 0 129.666 4 186.999 12v581h154zM1063 1608h-140
l-179 214l-179 -214h-140l245 284h148z" />
    <glyph glyph-name="gcircumflex" unicode="&#x11d;" horiz-adv-x="1129" 
d="M319 -447.5c-56.667 8.33301 -108.668 20.499 -156.001 36.499v134c108.667 -34 212.334 -51 311.001 -51c80 0 145 11 195 33s87.333 57.667 112 107s37 115.333 37 198v105h-10c-34 -40 -76.667 -71.5 -128 -94.5s-108.666 -34.5 -171.999 -34.5
c-78.667 0 -149 18.167 -211 54.5s-111.333 94.333 -148 174s-55 181.834 -55 306.501c0 193.333 46.167 338.333 138.5 435s229.5 145.334 411.5 146.001c56 0 113.5 -4.33301 172.5 -13s112.833 -20.667 161.5 -36v-1018c0 -117.333 -18.333 -212.333 -55 -285
s-91.334 -125.834 -164.001 -159.501s-165 -50.5 -277 -50.5c-52 0 -106.333 4.16699 -163 12.5zM701.999 154.499c46.667 21 85.332 52.166 115.999 93.499v701c-60 14.667 -122.333 22 -187 22c-124.667 0 -218.167 -34.667 -280.5 -104s-93.5 -179.666 -93.5 -330.999
s26.167 -258 78.5 -320s125.833 -93 220.5 -93c50.667 0 99.334 10.5 146.001 31.5zM878.997 1253h-128l-167 280l-167 -280h-129l224 363h144z" />
    <glyph glyph-name="Gbreve" unicode="&#x11e;" horiz-adv-x="1347" 
d="M1196 720l0.000976562 -703.999c-62 -10.667 -119 -18.167 -171 -22.5s-105.667 -6.5 -161 -6.5c-253.333 0 -443 60.667 -569 182s-189.333 311 -190 569c0 260 63.333 451.833 190 575.5s305 185.5 535 185.5c110 0 220.667 -14.667 332 -44v-142
c-57.333 16 -112 27.5 -164 34.5s-104.667 10.5 -158 10.5c-184.667 0 -325 -48.333 -421 -145s-144 -255.334 -144 -476.001c0 -143.333 21.5 -260 64.5 -350s107.167 -155.833 192.5 -197.5s193 -62.5 323 -62.5c67.333 0 129.666 4 186.999 12v581h154zM518.001 1684.5
c-54 45 -85.001 107.167 -93.001 186.5h108c8 -54 28.5 -94 61.5 -120s83.167 -39 150.5 -39s117.333 13 150 39s52.334 66 59.001 120h109c-8 -80 -38.5 -142.333 -91.5 -187s-128.5 -67 -226.5 -67c-97.333 0 -173 22.5 -227 67.5z" />
    <glyph glyph-name="gbreve" unicode="&#x11f;" horiz-adv-x="1129" 
d="M319 -447.5c-56.667 8.33301 -108.668 20.499 -156.001 36.499v134c108.667 -34 212.334 -51 311.001 -51c80 0 145 11 195 33s87.333 57.667 112 107s37 115.333 37 198v105h-10c-34 -40 -76.667 -71.5 -128 -94.5s-108.666 -34.5 -171.999 -34.5
c-78.667 0 -149 18.167 -211 54.5s-111.333 94.333 -148 174s-55 181.834 -55 306.501c0 193.333 46.167 338.333 138.5 435s229.5 145.334 411.5 146.001c56 0 113.5 -4.33301 172.5 -13s112.833 -20.667 161.5 -36v-1018c0 -117.333 -18.333 -212.333 -55 -285
s-91.334 -125.834 -164.001 -159.501s-165 -50.5 -277 -50.5c-52 0 -106.333 4.16699 -163 12.5zM701.999 154.499c46.667 21 85.332 52.166 115.999 93.499v701c-60 14.667 -122.333 22 -187 22c-124.667 0 -218.167 -34.667 -280.5 -104s-93.5 -179.666 -93.5 -330.999
s26.167 -258 78.5 -320s125.833 -93 220.5 -93c50.667 0 99.334 10.5 146.001 31.5zM369.497 1349c-52.333 56.667 -80.833 137 -85.5 241h108c5.33301 -76.667 23.666 -134.334 54.999 -173.001s77.333 -58 138 -58s106.5 19.333 137.5 58s48.833 96.334 53.5 173.001h107
c-4 -104.667 -31.833 -185.167 -83.5 -241.5s-123.167 -84.5 -214.5 -84.5s-163.166 28.333 -215.499 85z" />
    <glyph glyph-name="Gdotaccent" unicode="&#x120;" horiz-adv-x="1347" 
d="M1196 720l0.000976562 -703.999c-62 -10.667 -119 -18.167 -171 -22.5s-105.667 -6.5 -161 -6.5c-253.333 0 -443 60.667 -569 182s-189.333 311 -190 569c0 260 63.333 451.833 190 575.5s305 185.5 535 185.5c110 0 220.667 -14.667 332 -44v-142
c-57.333 16 -112 27.5 -164 34.5s-104.667 10.5 -158 10.5c-184.667 0 -325 -48.333 -421 -145s-144 -255.334 -144 -476.001c0 -143.333 21.5 -260 64.5 -350s107.167 -155.833 192.5 -197.5s193 -62.5 323 -62.5c67.333 0 129.666 4 186.999 12v581h154zM662.501 1683
c-19.667 16 -29.5 38.667 -29.5 68s9.83301 52.5 29.5 69.5s46.834 25.5 81.501 25.5s61.834 -8.5 81.501 -25.5s29.5 -40.167 29.5 -69.5s-9.83301 -52 -29.5 -68s-46.834 -24 -81.501 -24s-61.834 8 -81.501 24z" />
    <glyph glyph-name="gdotaccent" unicode="&#x121;" horiz-adv-x="1129" 
d="M319 -447.5c-56.667 8.33301 -108.668 20.499 -156.001 36.499v134c108.667 -34 212.334 -51 311.001 -51c80 0 145 11 195 33s87.333 57.667 112 107s37 115.333 37 198v105h-10c-34 -40 -76.667 -71.5 -128 -94.5s-108.666 -34.5 -171.999 -34.5
c-78.667 0 -149 18.167 -211 54.5s-111.333 94.333 -148 174s-55 181.834 -55 306.501c0 193.333 46.167 338.333 138.5 435s229.5 145.334 411.5 146.001c56 0 113.5 -4.33301 172.5 -13s112.833 -20.667 161.5 -36v-1018c0 -117.333 -18.333 -212.333 -55 -285
s-91.334 -125.834 -164.001 -159.501s-165 -50.5 -277 -50.5c-52 0 -106.333 4.16699 -163 12.5zM701.999 154.499c46.667 21 85.332 52.166 115.999 93.499v701c-60 14.667 -122.333 22 -187 22c-124.667 0 -218.167 -34.667 -280.5 -104s-93.5 -179.666 -93.5 -330.999
s26.167 -258 78.5 -320s125.833 -93 220.5 -93c50.667 0 99.334 10.5 146.001 31.5zM500.997 1346.5c-19.333 17.667 -29 42.5 -29 74.5s9.83301 57 29.5 75s47.167 27 82.5 27s62.666 -9 81.999 -27s29 -43 29 -75s-9.66699 -56.833 -29 -74.5s-46.666 -26.5 -81.999 -26.5
c-36 0 -63.667 8.83301 -83 26.5z" />
    <glyph glyph-name="Gcommaaccent" unicode="&#x122;" horiz-adv-x="1347" 
d="M1196 720l0.000976562 -703.999c-62 -10.667 -119 -18.167 -171 -22.5s-105.667 -6.5 -161 -6.5c-253.333 0 -443 60.667 -569 182s-189.333 311 -190 569c0 260 63.333 451.833 190 575.5s305 185.5 535 185.5c110 0 220.667 -14.667 332 -44v-142
c-57.333 16 -112 27.5 -164 34.5s-104.667 10.5 -158 10.5c-184.667 0 -325 -48.333 -421 -145s-144 -255.334 -144 -476.001c0 -143.333 21.5 -260 64.5 -350s107.167 -155.833 192.5 -197.5s193 -62.5 323 -62.5c67.333 0 129.666 4 186.999 12v581h154zM821.501 -190.999
c18.333 -18.667 27.499 -45.999 27.499 -81.999c0 -28.667 -5.16699 -60.5 -15.5 -95.5s-24.166 -67.5 -41.499 -97.5h-100c22.667 52 36.667 98.667 42 140c-30.667 1.33301 -54.167 9.33301 -70.5 24s-24.5 34 -24.5 58c0 25.333 8.83301 45.166 26.5 59.499
s42.834 21.5 75.501 21.5c35.333 0 62.166 -9.33301 80.499 -28z" />
    <glyph glyph-name="gcommaaccent" unicode="&#x123;" horiz-adv-x="1129" 
d="M319 -447.5c-56.667 8.33301 -108.668 20.499 -156.001 36.499v134c108.667 -34 212.334 -51 311.001 -51c80 0 145 11 195 33s87.333 57.667 112 107s37 115.333 37 198v105h-10c-34 -40 -76.667 -71.5 -128 -94.5s-108.666 -34.5 -171.999 -34.5
c-78.667 0 -149 18.167 -211 54.5s-111.333 94.333 -148 174s-55 181.834 -55 306.501c0 193.333 46.167 338.333 138.5 435s229.5 145.334 411.5 146.001c56 0 113.5 -4.33301 172.5 -13s112.833 -20.667 161.5 -36v-1018c0 -117.333 -18.333 -212.333 -55 -285
s-91.334 -125.834 -164.001 -159.501s-165 -50.5 -277 -50.5c-52 0 -106.333 4.16699 -163 12.5zM701.999 154.499c46.667 21 85.332 52.166 115.999 93.499v701c-60 14.667 -122.333 22 -187 22c-124.667 0 -218.167 -34.667 -280.5 -104s-93.5 -179.666 -93.5 -330.999
s26.167 -258 78.5 -320s125.833 -93 220.5 -93c50.667 0 99.334 10.5 146.001 31.5zM664.497 1460c16.333 -14.667 24.501 -33.999 24.501 -57.999c0 -24.667 -8.83301 -44.334 -26.5 -59.001s-42.834 -22 -75.501 -22c-35.333 0 -62.166 9.33301 -80.499 28
s-27.5 46 -27.5 82c0 28.667 5.16699 60.5 15.5 95.5s24.166 67.5 41.499 97.5h100c-22.667 -49.333 -36.667 -96 -42 -140c30.667 -1.33301 54.167 -9.33301 70.5 -24z" />
    <glyph glyph-name="Hcircumflex" unicode="&#x124;" horiz-adv-x="1444" 
d="M169 0v1480h162v-647h782v647h162v-1480h-162v686h-782v-686h-162zM1041 1608h-140l-179 214l-179 -214h-140l245 284h148z" />
    <glyph glyph-name="hcircumflex" unicode="&#x125;" horiz-adv-x="1137" 
d="M151 1616h160.001v-652h10c43.333 45.333 93.333 79.666 150 102.999s118 35 184 35c106 0 189.5 -30.5 250.5 -91.5s91.5 -158.5 91.5 -292.5v-718h-160v711c0 88.667 -19.5 151.834 -58.5 189.501s-95.167 56.5 -168.5 56.5c-55.333 0 -109.833 -11.667 -163.5 -35
s-98.834 -59.333 -135.501 -108v-814h-160v1616zM894.001 1704h-140l-179 214l-179 -214h-140l245 284h148z" />
    <glyph glyph-name="Hbar" unicode="&#x126;" horiz-adv-x="1444" 
d="M1441 1214v-112h-166v-1102h-162v686h-782v-686h-162v1102h-167v112h167v266h162v-266h782v266h162v-266h166zM1113 833v269h-782v-269h782z" />
    <glyph glyph-name="hbar" unicode="&#x127;" horiz-adv-x="1137" 
d="M905.5 1010.5c61 -61 91.501 -158.5 91.501 -292.5v-718h-160v711c0 88.667 -19.5 151.834 -58.5 189.501s-95.167 56.5 -168.5 56.5c-55.333 0 -109.833 -11.667 -163.5 -35s-98.834 -59.333 -135.501 -108v-814h-160v1298h-143v112h143v206h160v-206h353v-112h-353
v-334h10c43.333 45.333 93.333 79.666 150 102.999s118 35 184 35c106 0 189.5 -30.5 250.5 -91.5z" />
    <glyph glyph-name="Itilde" unicode="&#x128;" horiz-adv-x="500" 
d="M169 0v1480h162v-1480h-162zM326.5 1678c-23.667 6.66699 -54.167 16.667 -91.5 30c-30 12 -55.667 21 -77 27s-43 9 -65 9c-35.333 0 -66.333 -5.66699 -93 -17s-52.667 -29.333 -78 -54v111c42 43.333 99.667 65 173 65c28.667 0 55.334 -3.5 80.001 -10.5
s54.667 -17.167 90 -30.5c30 -12 55.667 -21 77 -27s42.666 -9 63.999 -9c35.333 0 66.333 5.66699 93 17s53 29.333 79 54v-110c-21.333 -22 -46 -38.333 -74 -49s-61.333 -16 -100 -16c-28 0 -53.833 3.33301 -77.5 10z" />
    <glyph glyph-name="itilde" unicode="&#x129;" horiz-adv-x="463" 
d="M151 0v1085h160v-1085h-160zM302.5 1355.5c-22.333 7 -51.498 18.167 -87.498 33.5c-27.333 12.667 -50.833 22.167 -70.5 28.5s-39.167 9.5 -58.5 9.5c-32.667 0 -62 -6 -88 -18s-51.667 -31.333 -77 -58v116c41.333 44.667 97 67 167 67
c25.333 0 49.166 -3.5 71.499 -10.5s51.5 -18.167 87.5 -33.5c27.333 -12.667 50.833 -22.167 70.5 -28.5s39.167 -9.5 58.5 -9.5c32 0 61.167 6.16699 87.5 18.5s52.166 31.5 77.499 57.5v-116c-42.667 -44.667 -98.334 -67 -167.001 -67
c-25.333 0 -49.166 3.5 -71.499 10.5z" />
    <glyph glyph-name="Imacron" unicode="&#x12a;" horiz-adv-x="500" 
d="M169 0v1480h162v-1480h-162zM-56 1696v109h612v-109h-612z" />
    <glyph glyph-name="imacron" unicode="&#x12b;" horiz-adv-x="463" 
d="M151 0v1085h160v-1085h-160zM-79 1368v108h620v-108h-620z" />
    <glyph glyph-name="Ibreve" unicode="&#x12c;" horiz-adv-x="500" 
d="M169 0v1480h162v-1480h-162zM24 1684.5c-54 45 -85.001 107.167 -93.001 186.5h108c8 -54 28.5 -94 61.5 -120s83.167 -39 150.5 -39s117.333 13 150 39s52.334 66 59.001 120h109c-8 -80 -38.5 -142.333 -91.5 -187s-128.5 -67 -226.5 -67
c-97.333 0 -173 22.5 -227 67.5z" />
    <glyph glyph-name="ibreve" unicode="&#x12d;" horiz-adv-x="463" 
d="M151 0v1085h160v-1085h-160zM16.5 1349c-52.333 56.667 -80.833 137 -85.5 241h108c5.33301 -76.667 23.666 -134.334 54.999 -173.001s77.333 -58 138 -58s106.5 19.333 137.5 58s48.833 96.334 53.5 173.001h107c-4 -104.667 -31.833 -185.167 -83.5 -241.5
s-123.167 -84.5 -214.5 -84.5s-163.166 28.333 -215.499 85z" />
    <glyph glyph-name="Iogonek" unicode="&#x12e;" horiz-adv-x="500" 
d="M342.5 -327.5c25 5.66699 53.832 15.167 86.499 28.5v-80c-56.667 -24.667 -114.667 -37 -174 -37c-76 0 -134.167 16 -174.5 48s-60.5 77.333 -60.5 136c0 45.333 12 86.833 36 124.5s63.667 73.5 119 107.5h-6v1480h162v-1480c-78 -36.667 -132.333 -72.5 -163 -107.5
s-46 -73.5 -46 -115.5c0 -36.667 12.333 -64.667 37 -84s61.334 -29 110.001 -29c24 0 48.5 2.83301 73.5 8.5z" />
    <glyph glyph-name="iogonek" unicode="&#x12f;" horiz-adv-x="463" 
d="M148 1346.5c-19.333 17.667 -29 42.5 -29 74.5s9.83301 57 29.5 75s47.167 27 82.5 27s62.666 -9 81.999 -27s29 -43 29 -75s-9.66699 -56.833 -29 -74.5s-46.666 -26.5 -81.999 -26.5c-36 0 -63.667 8.83301 -83 26.5zM393 -296v-81
c-22.667 -12 -47.667 -21.5 -75 -28.5s-55 -10.5 -83 -10.5c-68 0 -120.833 16.333 -158.5 49s-56.5 77.667 -56.5 135c0 45.333 11.5 86.833 34.5 124.5s59.5 73.5 109.5 107.5h-13v1085h160v-1085c-68 -36 -116.5 -71.667 -145.5 -107s-43.5 -74 -43.5 -116
c0 -35.333 11.167 -63 33.5 -83s53.5 -30 93.5 -30c47.333 0 95.333 13.333 144 40z" />
    <glyph glyph-name="Idotaccent" unicode="&#x130;" horiz-adv-x="500" 
d="M169 0v1480h162v-1480h-162zM168.5 1683c-19.667 16 -29.5 38.667 -29.5 68s9.83301 52.5 29.5 69.5s46.834 25.5 81.501 25.5s61.834 -8.5 81.501 -25.5s29.5 -40.167 29.5 -69.5s-9.83301 -52 -29.5 -68s-46.834 -24 -81.501 -24s-61.834 8 -81.501 24z" />
    <glyph glyph-name="dotlessi" unicode="&#x131;" horiz-adv-x="463" 
d="M151 0v1085h160v-1085h-160z" />
    <glyph glyph-name="Jcircumflex" unicode="&#x134;" horiz-adv-x="500" 
d="M-9 -271c64 86.667 109.667 173.168 137 259.501s41 187.166 41 302.499v1189h162v-1210c-4 -120 -23.667 -227.333 -59 -322s-93.333 -192 -174 -292zM569 1608h-140l-179 214l-179 -214h-140l245 284h148z" />
    <glyph glyph-name="jcircumflex" unicode="&#x135;" horiz-adv-x="463" 
d="M-28 -392c64 86.667 109.833 173.168 137.5 259.501s41.5 187.166 41.5 302.499v915h160v-906c0 -128.667 -18 -242.5 -54 -341.5s-95.333 -199.5 -178 -301.5zM525 1258h-128l-167 280l-167 -280h-129l224 363h144z" />
    <glyph glyph-name="Kcommaaccent" unicode="&#x136;" horiz-adv-x="1237" 
d="M1077 0l-527 686h-219v-686h-162v1480h162v-648h222l487 648h178l-542 -718l584 -762h-183zM722.5 -191c18.333 -18.667 27.499 -45.999 27.499 -81.999c0 -28.667 -5.16699 -60.5 -15.5 -95.5s-24.166 -67.5 -41.499 -97.5h-100c22.667 52 36.667 98.667 42 140
c-30.667 1.33301 -54.167 9.33301 -70.5 24s-24.5 34 -24.5 58c0 25.333 8.83301 45.166 26.5 59.499s42.834 21.5 75.501 21.5c35.333 0 62.166 -9.33301 80.499 -28z" />
    <glyph glyph-name="kcommaaccent" unicode="&#x137;" horiz-adv-x="1038" 
d="M878 0l-383 489h-184v-489h-160v1616h160v-993h183l354 462h178l-399 -527l432 -558h-181zM634.5 -191c18.333 -18.667 27.499 -45.999 27.499 -81.999c0 -28.667 -5.16699 -60.5 -15.5 -95.5s-24.166 -67.5 -41.499 -97.5h-100c22.667 52 36.667 98.667 42 140
c-30.667 1.33301 -54.167 9.33301 -70.5 24s-24.5 34 -24.5 58c0 25.333 8.83301 45.166 26.5 59.499s42.834 21.5 75.501 21.5c35.333 0 62.166 -9.33301 80.499 -28z" />
    <glyph glyph-name="kgreenlandic" unicode="&#x138;" horiz-adv-x="1038" 
d="M878 0l-383 489h-184v-489h-160v1085h160v-462h183l354 462h178l-399 -527l432 -558h-181z" />
    <glyph glyph-name="Lacute" unicode="&#x139;" horiz-adv-x="1071" 
d="M169 0v1480h162v-1338h728v-142h-890zM177 1608l178 284h173l-204 -284h-147z" />
    <glyph glyph-name="lacute" unicode="&#x13a;" horiz-adv-x="462" 
d="M151 0v1616h160v-1616h-160zM157 1704l178 284h173l-204 -284h-147z" />
    <glyph glyph-name="Lcommaaccent" unicode="&#x13b;" horiz-adv-x="1071" 
d="M169 0v1480h162v-1338h728v-142h-890zM692.5 -191c18.333 -18.667 27.499 -45.999 27.499 -81.999c0 -28.667 -5.16699 -60.5 -15.5 -95.5s-24.166 -67.5 -41.499 -97.5h-100c22.667 52 36.667 98.667 42 140c-30.667 1.33301 -54.167 9.33301 -70.5 24
s-24.5 34 -24.5 58c0 25.333 8.83301 45.166 26.5 59.499s42.834 21.5 75.501 21.5c35.333 0 62.166 -9.33301 80.499 -28z" />
    <glyph glyph-name="lcommaaccent" unicode="&#x13c;" horiz-adv-x="462" 
d="M151 0v1616h160v-1616h-160zM308.5 -191c18.333 -18.667 27.499 -45.999 27.499 -81.999c0 -28.667 -5.16699 -60.5 -15.5 -95.5s-24.166 -67.5 -41.499 -97.5h-100c22.667 52 36.667 98.667 42 140c-30.667 1.33301 -54.167 9.33301 -70.5 24s-24.5 34 -24.5 58
c0 25.333 8.83301 45.166 26.5 59.499s42.834 21.5 75.501 21.5c35.333 0 62.166 -9.33301 80.499 -28z" />
    <glyph glyph-name="Lcaron" unicode="&#x13d;" horiz-adv-x="1071" 
d="M169 0v1480h162v-1338h728v-142h-890zM694.5 1355.5c3 76.333 4.5 163.168 4.5 260.501h119c0 -187.333 -16 -346 -48 -476h-93c8.66699 67.333 14.5 139.166 17.5 215.499z" />
    <glyph glyph-name="lcaron" unicode="&#x13e;" horiz-adv-x="462" 
d="M151 0v1616h160v-1616h-160zM424 1616h119c0 -73.333 -4.16699 -148.166 -12.5 -224.499s-20.5 -146.833 -36.5 -211.5h-92c14.667 117.333 22 262.666 22 435.999z" />
    <glyph glyph-name="Ldot" unicode="&#x13f;" horiz-adv-x="1071" 
d="M169 0v1480h162v-1338h728v-142h-890zM694 733.5c-19.333 17.667 -29 42.167 -29 73.5c0 32 9.66699 57 29 75s46.666 27 81.999 27c36 0 63.667 -9 83 -27s29 -43 29 -75c0 -31.333 -9.66699 -55.833 -29 -73.5s-47 -26.5 -83 -26.5
c-35.333 0 -62.666 8.83301 -81.999 26.5z" />
    <glyph glyph-name="ldot" unicode="&#x140;" horiz-adv-x="576" 
d="M151 0v1616h160v-1616h-160zM428 718.5c-19.333 17.667 -29 42.5 -29 74.5c0 31.333 9.66699 56.166 29 74.499s47 27.5 83 27.5c35.333 0 62.666 -9.16699 81.999 -27.5s29 -43.166 29 -74.499c0 -32 -9.66699 -56.833 -29 -74.5s-46.666 -26.5 -81.999 -26.5
c-36 0 -63.667 8.83301 -83 26.5z" />
    <glyph glyph-name="Lslash" unicode="&#x141;" horiz-adv-x="1071" 
d="M331 142h728v-142h-890v661l-127 -92l-60 97l187 136v678h162v-560l273 199l60 -97l-333 -243v-637z" />
    <glyph glyph-name="lslash" unicode="&#x142;" horiz-adv-x="462" 
d="M478 822l-167 -119v-703h-160v589l-107 -76l-58 93l165 117v893h160v-779l109 78z" />
    <glyph glyph-name="Nacute" unicode="&#x143;" horiz-adv-x="1469" 
d="M1146 1480h154v-1480h-167l-810 1232v-1232h-154v1480h167l810 -1232v1232zM661 1608l178 284h173l-204 -284h-147z" />
    <glyph glyph-name="nacute" unicode="&#x144;" horiz-adv-x="1137" 
d="M151 1085l134.999 -0.00195312l11 -123h11c44.667 45.333 96.167 80 154.5 104s120.5 36 186.5 36c108.667 0 193.834 -30.5 255.501 -91.5s92.5 -158.833 92.5 -293.5v-717h-160v710c0 88.667 -19.5 152.334 -58.5 191.001s-95.167 58 -168.5 58
c-54 0 -108 -11.667 -162 -35s-99.667 -59.666 -137 -108.999v-815h-160v1085zM500.999 1253l216 363h173l-241 -363h-148z" />
    <glyph glyph-name="Ncommaaccent" unicode="&#x145;" horiz-adv-x="1469" 
d="M1146 1480h154v-1480h-167l-810 1232v-1232h-154v1480h167l810 -1232v1232zM812.5 -191c18.333 -18.667 27.499 -45.999 27.499 -81.999c0 -28.667 -5.16699 -60.5 -15.5 -95.5s-24.166 -67.5 -41.499 -97.5h-100c22.667 52 36.667 98.667 42 140
c-30.667 1.33301 -54.167 9.33301 -70.5 24s-24.5 34 -24.5 58c0 25.333 8.83301 45.166 26.5 59.499s42.834 21.5 75.501 21.5c35.333 0 62.166 -9.33301 80.499 -28z" />
    <glyph glyph-name="ncommaaccent" unicode="&#x146;" horiz-adv-x="1137" 
d="M151 1085l134.999 -0.00195312l11 -123h11c44.667 45.333 96.167 80 154.5 104s120.5 36 186.5 36c108.667 0 193.834 -30.5 255.501 -91.5s92.5 -158.833 92.5 -293.5v-717h-160v710c0 88.667 -19.5 152.334 -58.5 191.001s-95.167 58 -168.5 58
c-54 0 -108 -11.667 -162 -35s-99.667 -59.666 -137 -108.999v-815h-160v1085zM652.499 -191.002c18.333 -18.667 27.499 -45.999 27.499 -81.999c0 -28.667 -5.16699 -60.5 -15.5 -95.5s-24.166 -67.5 -41.499 -97.5h-100c22.667 52 36.667 98.667 42 140
c-30.667 1.33301 -54.167 9.33301 -70.5 24s-24.5 34 -24.5 58c0 25.333 8.83301 45.166 26.5 59.499s42.834 21.5 75.501 21.5c35.333 0 62.166 -9.33301 80.499 -28z" />
    <glyph glyph-name="Ncaron" unicode="&#x147;" horiz-adv-x="1469" 
d="M1146 1480h154v-1480h-167l-810 1232v-1232h-154v1480h167l810 -1232v1232zM914 1892h140l-245 -284h-148l-245 284h140l179 -214z" />
    <glyph glyph-name="ncaron" unicode="&#x148;" horiz-adv-x="1137" 
d="M151 1085l134.999 -0.00195312l11 -123h11c44.667 45.333 96.167 80 154.5 104s120.5 36 186.5 36c108.667 0 193.834 -30.5 255.501 -91.5s92.5 -158.833 92.5 -293.5v-717h-160v710c0 88.667 -19.5 152.334 -58.5 191.001s-95.167 58 -168.5 58
c-54 0 -108 -11.667 -162 -35s-99.667 -59.666 -137 -108.999v-815h-160v1085zM744.999 1616h129l-227 -363h-144l-227 363h129l170 -281z" />
    <glyph glyph-name="napostrophe" unicode="&#x149;" horiz-adv-x="1137" 
d="M151 1085l134.999 -0.00195312l11 -123h11c44.667 45.333 96.167 80 154.5 104s120.5 36 186.5 36c108.667 0 193.834 -30.5 255.501 -91.5s92.5 -158.833 92.5 -293.5v-717h-160v710c0 88.667 -19.5 152.334 -58.5 191.001s-95.167 58 -168.5 58
c-54 0 -108 -11.667 -162 -35s-99.667 -59.666 -137 -108.999v-815h-160v1085zM221.999 1515c0 -29.333 -5.00098 -61.332 -15.001 -95.999s-23.667 -67.334 -41 -98.001h-100c22 50 35.667 96.667 41 140c-30.667 2 -54 10.333 -70 25s-24 34 -24 58
c0 24.667 8.83301 44.167 26.5 58.5s42.834 21.5 75.501 21.5c71.333 0 107 -36.333 107 -109z" />
    <glyph glyph-name="Eng" unicode="&#x14a;" horiz-adv-x="1469" 
d="M1300 1480v-1291c0 -132.667 -18 -249 -54 -349s-95.333 -201.333 -178 -304l-107 72c48 64 85.833 127.167 113.5 189.5s47.167 128.833 58.5 199.5l-810 1234v-1231h-154v1480h167l810 -1230v1230h154z" />
    <glyph glyph-name="eng" unicode="&#x14b;" horiz-adv-x="1137" 
d="M659 -392c64 86.667 109.668 173.168 137.001 259.501s41 187.166 41 302.499v542c0 88.667 -19.667 152.167 -59 190.5s-95.333 57.5 -168 57.5c-55.333 0 -109.833 -11.833 -163.5 -35.5s-98.834 -59.834 -135.501 -108.501v-816h-160v1085h135l11 -123h11
c44.667 46.667 96.167 81.667 154.5 105s120.833 35 187.5 35c108 0 192.833 -30.5 254.5 -91.5s92.5 -158.5 92.5 -292.5v-569c-4 -120.667 -23.5 -228.167 -58.5 -322.5s-92.833 -191.166 -173.5 -290.499z" />
    <glyph glyph-name="Omacron" unicode="&#x14c;" horiz-adv-x="1439" 
d="M267.5 167c-108.333 124 -162.501 315 -162.501 573c0 174 25.167 317.333 75.5 430s121.333 195.667 213 249s200.167 80 325.5 80c192.667 0 343.167 -62 451.5 -186s162.5 -315 162.5 -573c0 -173.333 -25.167 -316.5 -75.5 -429.5s-121.166 -196.167 -212.499 -249.5
s-200 -80 -326 -80c-192.667 0 -343.167 62 -451.5 186zM1049 265.5c77.333 96.333 116 252.833 116 469.5c0 221.333 -38.667 380.666 -116 477.999s-187.333 146 -330 146c-142 0 -251.833 -48.167 -329.5 -144.5s-116.5 -252.833 -116.5 -469.5
c0 -221.333 38.667 -380.666 116 -477.999s187.333 -146 330 -146s252.667 48.167 330 144.5zM412.999 1696v109h612v-109h-612z" />
    <glyph glyph-name="omacron" unicode="&#x14d;" horiz-adv-x="1111" 
d="M215.5 118.5c-81 91.667 -121.502 232.499 -121.502 422.499s40.333 331 121 423s194 138 340 138c146.667 0 260.334 -45.667 341.001 -137s121 -232.333 121 -423c0 -189.333 -40.667 -330.166 -122 -422.499s-194.666 -138.5 -339.999 -138.5
s-258.5 45.833 -339.5 137.5zM776.998 209.499c50.667 65.667 76 175.499 76 329.499c0 156.667 -25.333 267.834 -76 333.501s-124.667 98.5 -222 98.5c-96.667 0 -170.5 -32.667 -221.5 -98s-76.5 -175 -76.5 -329c0 -156 25.333 -267.167 76 -333.5
s124.667 -99.5 222 -99.5s171.333 32.833 222 98.5zM244.998 1368v108h620v-108h-620z" />
    <glyph glyph-name="Obreve" unicode="&#x14e;" horiz-adv-x="1439" 
d="M267.5 167c-108.333 124 -162.501 315 -162.501 573c0 174 25.167 317.333 75.5 430s121.333 195.667 213 249s200.167 80 325.5 80c192.667 0 343.167 -62 451.5 -186s162.5 -315 162.5 -573c0 -173.333 -25.167 -316.5 -75.5 -429.5s-121.166 -196.167 -212.499 -249.5
s-200 -80 -326 -80c-192.667 0 -343.167 62 -451.5 186zM1049 265.5c77.333 96.333 116 252.833 116 469.5c0 221.333 -38.667 380.666 -116 477.999s-187.333 146 -330 146c-142 0 -251.833 -48.167 -329.5 -144.5s-116.5 -252.833 -116.5 -469.5
c0 -221.333 38.667 -380.666 116 -477.999s187.333 -146 330 -146s252.667 48.167 330 144.5zM492.999 1684.5c-54 45 -85.001 107.167 -93.001 186.5h108c8 -54 28.5 -94 61.5 -120s83.167 -39 150.5 -39s117.333 13 150 39s52.334 66 59.001 120h109
c-8 -80 -38.5 -142.333 -91.5 -187s-128.5 -67 -226.5 -67c-97.333 0 -173 22.5 -227 67.5z" />
    <glyph glyph-name="obreve" unicode="&#x14f;" horiz-adv-x="1111" 
d="M215.5 118.5c-81 91.667 -121.502 232.499 -121.502 422.499s40.333 331 121 423s194 138 340 138c146.667 0 260.334 -45.667 341.001 -137s121 -232.333 121 -423c0 -189.333 -40.667 -330.166 -122 -422.499s-194.666 -138.5 -339.999 -138.5
s-258.5 45.833 -339.5 137.5zM776.998 209.499c50.667 65.667 76 175.499 76 329.499c0 156.667 -25.333 267.834 -76 333.501s-124.667 98.5 -222 98.5c-96.667 0 -170.5 -32.667 -221.5 -98s-76.5 -175 -76.5 -329c0 -156 25.333 -267.167 76 -333.5
s124.667 -99.5 222 -99.5s171.333 32.833 222 98.5zM340.498 1349c-52.333 56.667 -80.833 137 -85.5 241h108c5.33301 -76.667 23.666 -134.334 54.999 -173.001s77.333 -58 138 -58s106.5 19.333 137.5 58s48.833 96.334 53.5 173.001h107
c-4 -104.667 -31.833 -185.167 -83.5 -241.5s-123.167 -84.5 -214.5 -84.5s-163.166 28.333 -215.499 85z" />
    <glyph glyph-name="Ohungarumlaut" unicode="&#x150;" horiz-adv-x="1439" 
d="M267.5 167c-108.333 124 -162.501 315 -162.501 573c0 174 25.167 317.333 75.5 430s121.333 195.667 213 249s200.167 80 325.5 80c192.667 0 343.167 -62 451.5 -186s162.5 -315 162.5 -573c0 -173.333 -25.167 -316.5 -75.5 -429.5s-121.166 -196.167 -212.499 -249.5
s-200 -80 -326 -80c-192.667 0 -343.167 62 -451.5 186zM1049 265.5c77.333 96.333 116 252.833 116 469.5c0 221.333 -38.667 380.666 -116 477.999s-187.333 146 -330 146c-142 0 -251.833 -48.167 -329.5 -144.5s-116.5 -252.833 -116.5 -469.5
c0 -221.333 38.667 -380.666 116 -477.999s187.333 -146 330 -146s252.667 48.167 330 144.5zM487.999 1608l128 284h136l-138 -284h-126zM823.999 1608l129 284h136l-139 -284h-126z" />
    <glyph glyph-name="ohungarumlaut" unicode="&#x151;" horiz-adv-x="1111" 
d="M215.5 118.5c-81 91.667 -121.502 232.499 -121.502 422.499s40.333 331 121 423s194 138 340 138c146.667 0 260.334 -45.667 341.001 -137s121 -232.333 121 -423c0 -189.333 -40.667 -330.166 -122 -422.499s-194.666 -138.5 -339.999 -138.5
s-258.5 45.833 -339.5 137.5zM776.998 209.499c50.667 65.667 76 175.499 76 329.499c0 156.667 -25.333 267.834 -76 333.501s-124.667 98.5 -222 98.5c-96.667 0 -170.5 -32.667 -221.5 -98s-76.5 -175 -76.5 -329c0 -156 25.333 -267.167 76 -333.5
s124.667 -99.5 222 -99.5s171.333 32.833 222 98.5zM325.998 1253l140 363h134l-150 -363h-124zM659.998 1253l140 363h135l-151 -363h-124z" />
    <glyph glyph-name="OE" unicode="&#x152;" horiz-adv-x="2007" 
d="M1935 138v-137.999h-771c-36.667 0 -82.667 -1.66699 -138 -5c-92 -3.33301 -148.333 -5 -169 -5c-250.667 0 -438.667 61 -564 183s-188 311 -188 567c0 253.333 62.667 442.166 188 566.499s309.333 186.5 552 186.5c31.333 0 64.833 -1 100.5 -3
s58.167 -3.33301 67.5 -4c66.667 -4 113.667 -6 141 -6h771v-138h-722v-514h625v-137h-625v-553h732zM1042 1342c-64.667 8 -137.001 11.999 -217.001 11.999c-186 0 -324.5 -49.333 -415.5 -148s-136.5 -254 -136.5 -466c0 -213.333 46.333 -368.666 139 -465.999
s233 -146 421 -146c82.667 0 152.334 3 209.001 9v1205z" />
    <glyph glyph-name="oe" unicode="&#x153;" horiz-adv-x="1776" 
d="M1698 489l-686.997 0.000976562c2.66699 -91.333 17.667 -164.5 45 -219.5s67.166 -95 119.499 -120s119.166 -37.5 200.499 -37.5c78.667 0 168 14.667 268 44v-131c-97.333 -29.333 -192.666 -44 -285.999 -44c-108.667 0 -198.834 18.333 -270.501 55
s-126.167 93.667 -163.5 171c-35.333 -75.333 -84.833 -131.833 -148.5 -169.5s-139.834 -56.5 -228.501 -56.5c-141.333 0 -252.166 46 -332.499 138s-120.5 232.667 -120.5 422c0 190 39.833 331 119.5 423s190.834 138 333.501 138c91.333 0 169.166 -19.5 233.499 -58.5
s113.833 -97.833 148.5 -176.5c32 78 78.5 136.667 139.5 176s133.833 59 218.5 59c131.333 0 232.666 -46.333 303.999 -139s107 -233.334 107 -422.001v-52zM1083.5 895.501c-45.667 -60.333 -69.833 -159.168 -72.5 -296.501h533
c-2.66699 138.667 -26.167 237.834 -70.5 297.501s-108.5 89.5 -192.5 89.5c-86 0 -151.833 -30.167 -197.5 -90.5zM772.004 209.499c50.667 65.667 76 175.5 76 329.5c0 156 -25.333 267 -76 333s-124 99 -220 99c-95.333 0 -168.333 -32.667 -219 -98s-76 -175 -76 -329
c0 -156 25.167 -267.167 75.5 -333.5s123.5 -99.5 219.5 -99.5s169.333 32.833 220 98.5z" />
    <glyph glyph-name="Racute" unicode="&#x154;" horiz-adv-x="1307" 
d="M1074 0l-460 613.001c-33.333 -1.33301 -59.666 -2 -78.999 -2c-66.667 0 -135.334 2.66699 -206.001 8v-619h-160v1456c136.667 26.667 268.334 40 395.001 40c196 0 341.333 -35.667 436 -107s142 -182 142 -332c0.666992 -114 -29.833 -206.333 -91.5 -277
s-152.834 -119.334 -273.501 -146.001l479 -634h-182zM433.5 743.001c29 -1.33301 63.168 -2.00098 102.501 -2.00098c157.333 0 272 25.333 344 76s108 130 108 238c0 74 -14.333 133.667 -43 179s-73.334 78.5 -134.001 99.5s-139.667 31.5 -237 31.5
c-48 0 -90.5 -1.66699 -127.5 -5s-76.167 -8.66602 -117.5 -15.999v-593c40.667 -4 75.5 -6.66699 104.5 -8zM556.001 1608l178 284h173l-204 -284h-147z" />
    <glyph glyph-name="racute" unicode="&#x155;" horiz-adv-x="724" 
d="M151 1085l134 -0.000976562l13 -145h10c36 50 82.167 88.5 138.5 115.5s115.833 40.5 178.5 40.5c29.333 0 58.333 -2.66699 87 -8v-149c-28.667 4.66699 -60 7 -94 7c-56.667 0 -113.5 -13.167 -170.5 -39.5s-102.5 -64.166 -136.5 -113.499v-793h-160v1085zM349 1253
l216 363h173l-241 -363h-148z" />
    <glyph glyph-name="Rcommaaccent" unicode="&#x156;" horiz-adv-x="1307" 
d="M1074 0l-460 613.001c-33.333 -1.33301 -59.666 -2 -78.999 -2c-66.667 0 -135.334 2.66699 -206.001 8v-619h-160v1456c136.667 26.667 268.334 40 395.001 40c196 0 341.333 -35.667 436 -107s142 -182 142 -332c0.666992 -114 -29.833 -206.333 -91.5 -277
s-152.834 -119.334 -273.501 -146.001l479 -634h-182zM433.5 743.001c29 -1.33301 63.168 -2.00098 102.501 -2.00098c157.333 0 272 25.333 344 76s108 130 108 238c0 74 -14.333 133.667 -43 179s-73.334 78.5 -134.001 99.5s-139.667 31.5 -237 31.5
c-48 0 -90.5 -1.66699 -127.5 -5s-76.167 -8.66602 -117.5 -15.999v-593c40.667 -4 75.5 -6.66699 104.5 -8zM760.501 -191c18.333 -18.667 27.499 -45.999 27.499 -81.999c0 -28.667 -5.16699 -60.5 -15.5 -95.5s-24.166 -67.5 -41.499 -97.5h-100
c22.667 52 36.667 98.667 42 140c-30.667 1.33301 -54.167 9.33301 -70.5 24s-24.5 34 -24.5 58c0 25.333 8.83301 45.166 26.5 59.499s42.834 21.5 75.501 21.5c35.333 0 62.166 -9.33301 80.499 -28z" />
    <glyph glyph-name="rcommaaccent" unicode="&#x157;" horiz-adv-x="724" 
d="M151 1085l134 -0.000976562l13 -145h10c36 50 82.167 88.5 138.5 115.5s115.833 40.5 178.5 40.5c29.333 0 58.333 -2.66699 87 -8v-149c-28.667 4.66699 -60 7 -94 7c-56.667 0 -113.5 -13.167 -170.5 -39.5s-102.5 -64.166 -136.5 -113.499v-793h-160v1085z
M308.5 -191.001c18.333 -18.667 27.499 -45.999 27.499 -81.999c0 -28.667 -5.16699 -60.5 -15.5 -95.5s-24.166 -67.5 -41.499 -97.5h-100c22.667 52 36.667 98.667 42 140c-30.667 1.33301 -54.167 9.33301 -70.5 24s-24.5 34 -24.5 58
c0 25.333 8.83301 45.166 26.5 59.499s42.834 21.5 75.501 21.5c35.333 0 62.166 -9.33301 80.499 -28z" />
    <glyph glyph-name="Rcaron" unicode="&#x158;" horiz-adv-x="1307" 
d="M1074 0l-460 613.001c-33.333 -1.33301 -59.666 -2 -78.999 -2c-66.667 0 -135.334 2.66699 -206.001 8v-619h-160v1456c136.667 26.667 268.334 40 395.001 40c196 0 341.333 -35.667 436 -107s142 -182 142 -332c0.666992 -114 -29.833 -206.333 -91.5 -277
s-152.834 -119.334 -273.501 -146.001l479 -634h-182zM433.5 743.001c29 -1.33301 63.168 -2.00098 102.501 -2.00098c157.333 0 272 25.333 344 76s108 130 108 238c0 74 -14.333 133.667 -43 179s-73.334 78.5 -134.001 99.5s-139.667 31.5 -237 31.5
c-48 0 -90.5 -1.66699 -127.5 -5s-76.167 -8.66602 -117.5 -15.999v-593c40.667 -4 75.5 -6.66699 104.5 -8zM809.001 1892h140l-245 -284h-148l-245 284h140l179 -214z" />
    <glyph glyph-name="rcaron" unicode="&#x159;" horiz-adv-x="724" 
d="M151 1085l134 -0.000976562l13 -145h10c36 50 82.167 88.5 138.5 115.5s115.833 40.5 178.5 40.5c29.333 0 58.333 -2.66699 87 -8v-149c-28.667 4.66699 -60 7 -94 7c-56.667 0 -113.5 -13.167 -170.5 -39.5s-102.5 -64.166 -136.5 -113.499v-793h-160v1085zM593 1616
h129l-227 -363h-144l-227 363h129l170 -281z" />
    <glyph glyph-name="Sacute" unicode="&#x15a;" horiz-adv-x="1063" 
d="M277 -3.5c-63.333 10.333 -123.332 25.168 -179.999 44.501v140c60 -20.667 121.5 -36 184.5 -46s123.833 -15 182.5 -15c240.667 0 361 90.333 361 271c0 50 -9.83301 91.833 -29.5 125.5s-50.667 62 -93 85s-99.833 43.833 -172.5 62.5l-80 21
c-126.667 32.667 -221 81.5 -283 146.5s-93 150.5 -93 256.5c0 85.333 19.833 158.833 59.5 220.5s98.667 108.834 177 141.501s175.166 49 290.499 49c57.333 0 114 -3.83301 170 -11.5s107 -18.834 153 -33.501v-140c-100 30.667 -206 46 -318 46
c-124.667 0 -217.167 -22.5 -277.5 -67.5s-90.5 -109.833 -90.5 -194.5c0 -48.667 8.83301 -89.667 26.5 -123s46.167 -61.5 85.5 -84.5s93 -43.5 161 -61.5l80 -20c137.333 -34.667 238 -84.667 302 -150s96 -151.333 96 -258c0 -88.667 -20.667 -164.334 -62 -227.001
s-101.333 -110.5 -180 -143.5s-173.667 -49.5 -285 -49.5c-60 0 -121.667 5.16699 -185 15.5zM466.001 1608l178 284h173l-204 -284h-147z" />
    <glyph glyph-name="sacute" unicode="&#x15b;" horiz-adv-x="900" 
d="M109 25l0.00195312 129c99.333 -30 199.666 -45 300.999 -45c178.667 0 268 60.667 268 182c0 49.333 -12.833 87 -38.5 113s-68.5 45.667 -128.5 59l-147 30c-96.667 20.667 -166.667 55 -210 103s-65 112 -65 192c0 62 15.667 116.667 47 164
s79.166 84.166 143.499 110.499s143.833 39.5 238.5 39.5c87.333 0 172.666 -10.667 255.999 -32v-130c-44 12 -86 20.667 -126 26s-82 8 -126 8c-98 0 -169.167 -16.5 -213.5 -49.5s-66.5 -77.167 -66.5 -132.5c0 -44.667 12.333 -80.667 37 -108
s66.334 -47.333 125.001 -60l147 -30c98.667 -20.667 170.167 -54.667 214.5 -102s66.5 -111.666 66.5 -192.999c0 -100 -36.333 -178 -109 -234s-177 -84 -313 -84c-110 0 -210.333 14.667 -301 44zM381.002 1253l216 363h173l-241 -363h-148z" />
    <glyph glyph-name="Scircumflex" unicode="&#x15c;" horiz-adv-x="1063" 
d="M277 -3.5c-63.333 10.333 -123.332 25.168 -179.999 44.501v140c60 -20.667 121.5 -36 184.5 -46s123.833 -15 182.5 -15c240.667 0 361 90.333 361 271c0 50 -9.83301 91.833 -29.5 125.5s-50.667 62 -93 85s-99.833 43.833 -172.5 62.5l-80 21
c-126.667 32.667 -221 81.5 -283 146.5s-93 150.5 -93 256.5c0 85.333 19.833 158.833 59.5 220.5s98.667 108.834 177 141.501s175.166 49 290.499 49c57.333 0 114 -3.83301 170 -11.5s107 -18.834 153 -33.501v-140c-100 30.667 -206 46 -318 46
c-124.667 0 -217.167 -22.5 -277.5 -67.5s-90.5 -109.833 -90.5 -194.5c0 -48.667 8.83301 -89.667 26.5 -123s46.167 -61.5 85.5 -84.5s93 -43.5 161 -61.5l80 -20c137.333 -34.667 238 -84.667 302 -150s96 -151.333 96 -258c0 -88.667 -20.667 -164.334 -62 -227.001
s-101.333 -110.5 -180 -143.5s-173.667 -49.5 -285 -49.5c-60 0 -121.667 5.16699 -185 15.5zM859.001 1608h-140l-179 214l-179 -214h-140l245 284h148z" />
    <glyph glyph-name="scircumflex" unicode="&#x15d;" horiz-adv-x="900" 
d="M109 25l0.00195312 129c99.333 -30 199.666 -45 300.999 -45c178.667 0 268 60.667 268 182c0 49.333 -12.833 87 -38.5 113s-68.5 45.667 -128.5 59l-147 30c-96.667 20.667 -166.667 55 -210 103s-65 112 -65 192c0 62 15.667 116.667 47 164
s79.166 84.166 143.499 110.499s143.833 39.5 238.5 39.5c87.333 0 172.666 -10.667 255.999 -32v-130c-44 12 -86 20.667 -126 26s-82 8 -126 8c-98 0 -169.167 -16.5 -213.5 -49.5s-66.5 -77.167 -66.5 -132.5c0 -44.667 12.333 -80.667 37 -108
s66.334 -47.333 125.001 -60l147 -30c98.667 -20.667 170.167 -54.667 214.5 -102s66.5 -111.666 66.5 -192.999c0 -100 -36.333 -178 -109 -234s-177 -84 -313 -84c-110 0 -210.333 14.667 -301 44zM750.002 1253h-128l-167 280l-167 -280h-129l224 363h144z" />
    <glyph glyph-name="Scedilla" unicode="&#x15e;" horiz-adv-x="1063" 
d="M882.5 119c-71 -71.333 -172.166 -115 -303.499 -131v-90c56.667 -4.66699 100.5 -20.167 131.5 -46.5s46.5 -62.5 46.5 -108.5c0 -51.333 -19.167 -90.666 -57.5 -117.999s-92.833 -41 -163.5 -41c-33.333 0 -66.833 3.16699 -100.5 9.5s-64.5 15.5 -92.5 27.5v81
c62.667 -26 125 -39 187 -39c86.667 0 130 28 130 84c0 56.667 -44 85 -132 85h-41v149h-25c-60 0 -121.667 5.16699 -185 15.5s-123.333 25.166 -180 44.499v140c60 -20.667 121.5 -36 184.5 -46s123.833 -15 182.5 -15c240.667 0 361 90.333 361 271
c0 50 -9.83301 91.833 -29.5 125.5s-50.667 62 -93 85s-99.833 43.833 -172.5 62.5l-80 21c-126.667 32.667 -221 81.5 -283 146.5s-93 150.5 -93 256.5c0 85.333 19.833 158.833 59.5 220.5s98.667 108.834 177 141.501s175.166 49 290.499 49
c57.333 0 114 -3.83301 170 -11.5s107 -18.834 153 -33.501v-140c-100 30.667 -206 46 -318 46c-124.667 0 -217.167 -22.5 -277.5 -67.5s-90.5 -109.833 -90.5 -194.5c0 -48.667 8.83301 -89.667 26.5 -123s46.167 -61.5 85.5 -84.5s93 -43.5 161 -61.5l80 -20
c137.333 -34.667 238 -84.667 302 -150s96 -151.333 96 -258c0 -116.667 -35.5 -210.667 -106.5 -282z" />
    <glyph glyph-name="scedilla" unicode="&#x15f;" horiz-adv-x="900" 
d="M748.5 86.5c-55.667 -54.333 -136.498 -87.834 -242.498 -100.501v-90c50.667 -6 89.167 -22.333 115.5 -49s39.5 -62 39.5 -106c0 -49.333 -17.667 -87.833 -53 -115.5s-86 -41.5 -152 -41.5c-30 0 -60.167 3.16699 -90.5 9.5s-56.5 14.833 -78.5 25.5v81
c50 -24.667 105.333 -37 166 -37c38 0 66.167 6.83301 84.5 20.5s27.5 34.5 27.5 62.5c0 57.333 -38 86 -114 86h-37v149h-4c-110 0 -210.333 14.667 -301 44v129c99.333 -30 199.666 -45 300.999 -45c178.667 0 268 60.667 268 182c0 49.333 -12.833 87 -38.5 113
s-68.5 45.667 -128.5 59l-147 30c-96.667 20.667 -166.667 55 -210 103s-65 112 -65 192c0 62 15.667 116.667 47 164s79.166 84.166 143.499 110.499s143.833 39.5 238.5 39.5c87.333 0 172.666 -10.667 255.999 -32v-130c-44 12 -86 20.667 -126 26s-82 8 -126 8
c-98 0 -169.167 -16.5 -213.5 -49.5s-66.5 -77.167 -66.5 -132.5c0 -44.667 12.333 -80.667 37 -108s66.334 -47.333 125.001 -60l147 -30c98.667 -20.667 170.167 -54.667 214.5 -102s66.5 -111.666 66.5 -192.999c0 -87.333 -27.833 -158.166 -83.5 -212.499z" />
    <glyph glyph-name="Scaron" unicode="&#x160;" horiz-adv-x="1063" 
d="M277 -3.5c-63.333 10.333 -123.332 25.168 -179.999 44.501v140c60 -20.667 121.5 -36 184.5 -46s123.833 -15 182.5 -15c240.667 0 361 90.333 361 271c0 50 -9.83301 91.833 -29.5 125.5s-50.667 62 -93 85s-99.833 43.833 -172.5 62.5l-80 21
c-126.667 32.667 -221 81.5 -283 146.5s-93 150.5 -93 256.5c0 85.333 19.833 158.833 59.5 220.5s98.667 108.834 177 141.501s175.166 49 290.499 49c57.333 0 114 -3.83301 170 -11.5s107 -18.834 153 -33.501v-140c-100 30.667 -206 46 -318 46
c-124.667 0 -217.167 -22.5 -277.5 -67.5s-90.5 -109.833 -90.5 -194.5c0 -48.667 8.83301 -89.667 26.5 -123s46.167 -61.5 85.5 -84.5s93 -43.5 161 -61.5l80 -20c137.333 -34.667 238 -84.667 302 -150s96 -151.333 96 -258c0 -88.667 -20.667 -164.334 -62 -227.001
s-101.333 -110.5 -180 -143.5s-173.667 -49.5 -285 -49.5c-60 0 -121.667 5.16699 -185 15.5zM719.001 1892h140l-245 -284h-148l-245 284h140l179 -214z" />
    <glyph glyph-name="scaron" unicode="&#x161;" horiz-adv-x="900" 
d="M109 25l0.00195312 129c99.333 -30 199.666 -45 300.999 -45c178.667 0 268 60.667 268 182c0 49.333 -12.833 87 -38.5 113s-68.5 45.667 -128.5 59l-147 30c-96.667 20.667 -166.667 55 -210 103s-65 112 -65 192c0 62 15.667 116.667 47 164
s79.166 84.166 143.499 110.499s143.833 39.5 238.5 39.5c87.333 0 172.666 -10.667 255.999 -32v-130c-44 12 -86 20.667 -126 26s-82 8 -126 8c-98 0 -169.167 -16.5 -213.5 -49.5s-66.5 -77.167 -66.5 -132.5c0 -44.667 12.333 -80.667 37 -108
s66.334 -47.333 125.001 -60l147 -30c98.667 -20.667 170.167 -54.667 214.5 -102s66.5 -111.666 66.5 -192.999c0 -100 -36.333 -178 -109 -234s-177 -84 -313 -84c-110 0 -210.333 14.667 -301 44zM625.002 1616h129l-227 -363h-144l-227 363h129l170 -281z" />
    <glyph glyph-name="uni0162" unicode="&#x162;" horiz-adv-x="1175" 
d="M627 0v-102.001c56.667 -4.66699 100.5 -20.167 131.5 -46.5s46.5 -62.5 46.5 -108.5c0 -51.333 -19.167 -90.666 -57.5 -117.999s-92.833 -41 -163.5 -41c-33.333 0 -66.833 3.16699 -100.5 9.5s-64.5 15.5 -92.5 27.5v81c62.667 -26 125 -39 187 -39
c86.667 0 130 28 130 84c0 56.667 -44 85 -132 85h-41v168h-29v1338h-492v142h1148v-142h-493v-1338h-42z" />
    <glyph glyph-name="uni0163" unicode="&#x163;" horiz-adv-x="749" 
d="M525 -18l0.00292969 -85.999c50.667 -6 89.167 -22.333 115.5 -49s39.5 -62 39.5 -106c0 -49.333 -17.667 -87.833 -53 -115.5s-86 -41.5 -152 -41.5c-30 0 -60.167 3.16699 -90.5 9.5s-56.5 14.833 -78.5 25.5v81c50 -24.667 105.333 -37 166 -37
c38 0 66.167 6.83301 84.5 20.5s27.5 34.5 27.5 62.5c0 57.333 -38 86 -114 86h-37v165c-145.333 39.333 -218 154 -218 344v612h-205v132h205l26 395h134v-395h341v-132h-341v-587c0 -88.667 18.167 -151.834 54.5 -189.501s93.166 -56.5 170.499 -56.5
c38 0 82.333 5.33301 133 16v-135c-56.667 -13.333 -112.334 -20 -167.001 -20c-18.667 0 -32.334 0.333008 -41.001 1z" />
    <glyph glyph-name="Tcaron" unicode="&#x164;" horiz-adv-x="1175" 
d="M506 0v1338h-492v142h1148v-142h-493v-1338h-163zM767 1892h140l-245 -284h-148l-245 284h140l179 -214z" />
    <glyph glyph-name="tcaron" unicode="&#x165;" horiz-adv-x="749" 
d="M733 136l0.00195312 -134.999c-56.667 -13.333 -112.334 -20 -167.001 -20c-234 0 -351 120 -351 360v612h-205v132h205l26 395h134v-395h341v-132h-341v-587c0 -88.667 18.167 -151.834 54.5 -189.501s93.166 -56.5 170.499 -56.5c38 0 82.333 5.33301 133 16z
M550.002 1616h119c0 -73.333 -4.16699 -148.166 -12.5 -224.499s-20.5 -146.833 -36.5 -211.5h-92c14.667 117.333 22 262.666 22 435.999z" />
    <glyph glyph-name="Tbar" unicode="&#x166;" horiz-adv-x="1175" 
d="M1162 1338h-493v-507h324v-114h-324v-717h-163v717h-323v114h323v507h-492v142h1148v-142z" />
    <glyph glyph-name="tbar" unicode="&#x167;" horiz-adv-x="749" 
d="M733 136l0.00195312 -134.999c-56.667 -13.333 -112.334 -20 -167.001 -20c-234 0 -351 120 -351 360v237h-145v110h145v265h-205v132h205l26 395h134v-395h341v-132h-341v-265h293v-110h-293v-212c0 -88.667 18.167 -151.834 54.5 -189.501s93.166 -56.5 170.499 -56.5
c38 0 82.333 5.33301 133 16z" />
    <glyph glyph-name="Utilde" unicode="&#x168;" horiz-adv-x="1417" 
d="M400 43c-80.667 41.333 -140.5 104.5 -179.5 189.5s-58.5 194.167 -58.5 327.5v920h162v-938c0 -146 31 -252.667 93 -320s159.667 -101 293 -101s231 33.667 293 101s93 174 93 320v938h159v-920c0 -133.333 -19.333 -242.5 -58 -327.5s-98 -148.167 -178 -189.5
s-183 -62 -309 -62s-229.333 20.667 -310 62zM786.5 1678c-23.667 6.66699 -54.167 16.667 -91.5 30c-30 12 -55.667 21 -77 27s-43 9 -65 9c-35.333 0 -66.333 -5.66699 -93 -17s-52.667 -29.333 -78 -54v111c42 43.333 99.667 65 173 65
c28.667 0 55.334 -3.5 80.001 -10.5s54.667 -17.167 90 -30.5c30 -12 55.667 -21 77 -27s42.666 -9 63.999 -9c35.333 0 66.333 5.66699 93 17s53 29.333 79 54v-110c-21.333 -22 -46 -38.333 -74 -49s-61.333 -16 -100 -16c-28 0 -53.833 3.33301 -77.5 10z" />
    <glyph glyph-name="utilde" unicode="&#x169;" horiz-adv-x="1127" 
d="M231.5 73c-61.667 60.667 -92.5 157.667 -92.5 291v721h160v-713c0 -88 19.5 -151.167 58.5 -189.5s93.5 -57.5 163.5 -57.5c53.333 0 106.833 12 160.5 36s98.5 60 134.5 108v816h160v-1085h-135l-12 119h-10c-44.667 -45.333 -95.5 -79.5 -152.5 -102.5
s-117.5 -34.5 -181.5 -34.5c-107.333 0 -191.833 30.333 -253.5 91zM629.5 1355.5c-22.333 7 -51.498 18.167 -87.498 33.5c-27.333 12.667 -50.833 22.167 -70.5 28.5s-39.167 9.5 -58.5 9.5c-32.667 0 -62 -6 -88 -18s-51.667 -31.333 -77 -58v116
c41.333 44.667 97 67 167 67c25.333 0 49.166 -3.5 71.499 -10.5s51.5 -18.167 87.5 -33.5c27.333 -12.667 50.833 -22.167 70.5 -28.5s39.167 -9.5 58.5 -9.5c32 0 61.167 6.16699 87.5 18.5s52.166 31.5 77.499 57.5v-116c-42.667 -44.667 -98.334 -67 -167.001 -67
c-25.333 0 -49.166 3.5 -71.499 10.5z" />
    <glyph glyph-name="Umacron" unicode="&#x16a;" horiz-adv-x="1417" 
d="M400 43c-80.667 41.333 -140.5 104.5 -179.5 189.5s-58.5 194.167 -58.5 327.5v920h162v-938c0 -146 31 -252.667 93 -320s159.667 -101 293 -101s231 33.667 293 101s93 174 93 320v938h159v-920c0 -133.333 -19.333 -242.5 -58 -327.5s-98 -148.167 -178 -189.5
s-183 -62 -309 -62s-229.333 20.667 -310 62zM404 1696v109h612v-109h-612z" />
    <glyph glyph-name="umacron" unicode="&#x16b;" horiz-adv-x="1127" 
d="M231.5 73c-61.667 60.667 -92.5 157.667 -92.5 291v721h160v-713c0 -88 19.5 -151.167 58.5 -189.5s93.5 -57.5 163.5 -57.5c53.333 0 106.833 12 160.5 36s98.5 60 134.5 108v816h160v-1085h-135l-12 119h-10c-44.667 -45.333 -95.5 -79.5 -152.5 -102.5
s-117.5 -34.5 -181.5 -34.5c-107.333 0 -191.833 30.333 -253.5 91zM248 1368v108h620v-108h-620z" />
    <glyph glyph-name="Ubreve" unicode="&#x16c;" horiz-adv-x="1417" 
d="M400 43c-80.667 41.333 -140.5 104.5 -179.5 189.5s-58.5 194.167 -58.5 327.5v920h162v-938c0 -146 31 -252.667 93 -320s159.667 -101 293 -101s231 33.667 293 101s93 174 93 320v938h159v-920c0 -133.333 -19.333 -242.5 -58 -327.5s-98 -148.167 -178 -189.5
s-183 -62 -309 -62s-229.333 20.667 -310 62zM484 1684.5c-54 45 -85.001 107.167 -93.001 186.5h108c8 -54 28.5 -94 61.5 -120s83.167 -39 150.5 -39s117.333 13 150 39s52.334 66 59.001 120h109c-8 -80 -38.5 -142.333 -91.5 -187s-128.5 -67 -226.5 -67
c-97.333 0 -173 22.5 -227 67.5z" />
    <glyph glyph-name="ubreve" unicode="&#x16d;" horiz-adv-x="1127" 
d="M231.5 73c-61.667 60.667 -92.5 157.667 -92.5 291v721h160v-713c0 -88 19.5 -151.167 58.5 -189.5s93.5 -57.5 163.5 -57.5c53.333 0 106.833 12 160.5 36s98.5 60 134.5 108v816h160v-1085h-135l-12 119h-10c-44.667 -45.333 -95.5 -79.5 -152.5 -102.5
s-117.5 -34.5 -181.5 -34.5c-107.333 0 -191.833 30.333 -253.5 91zM343.5 1349c-52.333 56.667 -80.833 137 -85.5 241h108c5.33301 -76.667 23.666 -134.334 54.999 -173.001s77.333 -58 138 -58s106.5 19.333 137.5 58s48.833 96.334 53.5 173.001h107
c-4 -104.667 -31.833 -185.167 -83.5 -241.5s-123.167 -84.5 -214.5 -84.5s-163.166 28.333 -215.499 85z" />
    <glyph glyph-name="Uring" unicode="&#x16e;" horiz-adv-x="1417" 
d="M400 43c-80.667 41.333 -140.5 104.5 -179.5 189.5s-58.5 194.167 -58.5 327.5v920h162v-938c0 -146 31 -252.667 93 -320s159.667 -101 293 -101s231 33.667 293 101s93 174 93 320v938h159v-920c0 -133.333 -19.333 -242.5 -58 -327.5s-98 -148.167 -178 -189.5
s-183 -62 -309 -62s-229.333 20.667 -310 62zM609.5 1625c-29.667 16.667 -53 39.834 -70 69.501s-25.5 62.834 -25.5 99.501s8.5 69.667 25.5 99s40.333 52.333 70 69s63.167 25 100.5 25s70.833 -8.33301 100.5 -25s52.834 -39.667 69.501 -69s25 -62.333 25 -99
s-8.33301 -69.834 -25 -99.501s-39.834 -52.834 -69.501 -69.501s-63.167 -25 -100.5 -25s-70.833 8.33301 -100.5 25zM794 1707c21.333 21.333 32 50.333 32 87c0 36 -10.667 64.833 -32 86.5s-49.333 32.5 -84 32.5s-62.834 -10.833 -84.501 -32.5
s-32.5 -50.5 -32.5 -86.5c0 -36.667 10.833 -65.667 32.5 -87s49.834 -32 84.501 -32s62.667 10.667 84 32z" />
    <glyph glyph-name="uring" unicode="&#x16f;" horiz-adv-x="1127" 
d="M231.5 73c-61.667 60.667 -92.5 157.667 -92.5 291v721h160v-713c0 -88 19.5 -151.167 58.5 -189.5s93.5 -57.5 163.5 -57.5c53.333 0 106.833 12 160.5 36s98.5 60 134.5 108v816h160v-1085h-135l-12 119h-10c-44.667 -45.333 -95.5 -79.5 -152.5 -102.5
s-117.5 -34.5 -181.5 -34.5c-107.333 0 -191.833 30.333 -253.5 91zM457.5 1273c-29.667 16.667 -53 39.667 -70 69s-25.5 62.333 -25.5 99s8.5 69.834 25.5 99.501s40.333 52.834 70 69.501s63.167 25 100.5 25s70.833 -8.33301 100.5 -25s52.834 -39.834 69.501 -69.501
s25 -62.834 25 -99.501s-8.33301 -69.667 -25 -99s-39.834 -52.333 -69.501 -69s-63.167 -25 -100.5 -25s-70.833 8.33301 -100.5 25zM642 1354.5c21.333 21.667 32 50.5 32 86.5c0 36.667 -10.667 65.667 -32 87s-49.333 32 -84 32s-62.834 -10.667 -84.501 -32
s-32.5 -50.333 -32.5 -87c0 -36 10.833 -64.833 32.5 -86.5s49.834 -32.5 84.501 -32.5s62.667 10.833 84 32.5z" />
    <glyph glyph-name="Uhungarumlaut" unicode="&#x170;" horiz-adv-x="1417" 
d="M400 43c-80.667 41.333 -140.5 104.5 -179.5 189.5s-58.5 194.167 -58.5 327.5v920h162v-938c0 -146 31 -252.667 93 -320s159.667 -101 293 -101s231 33.667 293 101s93 174 93 320v938h159v-920c0 -133.333 -19.333 -242.5 -58 -327.5s-98 -148.167 -178 -189.5
s-183 -62 -309 -62s-229.333 20.667 -310 62zM479 1608l128 284h136l-138 -284h-126zM815 1608l129 284h136l-139 -284h-126z" />
    <glyph glyph-name="uhungarumlaut" unicode="&#x171;" horiz-adv-x="1127" 
d="M231.5 73c-61.667 60.667 -92.5 157.667 -92.5 291v721h160v-713c0 -88 19.5 -151.167 58.5 -189.5s93.5 -57.5 163.5 -57.5c53.333 0 106.833 12 160.5 36s98.5 60 134.5 108v816h160v-1085h-135l-12 119h-10c-44.667 -45.333 -95.5 -79.5 -152.5 -102.5
s-117.5 -34.5 -181.5 -34.5c-107.333 0 -191.833 30.333 -253.5 91zM329 1253l140 363h134l-150 -363h-124zM663 1253l140 363h135l-151 -363h-124z" />
    <glyph glyph-name="Uogonek" unicode="&#x172;" horiz-adv-x="1417" 
d="M1255 1480l-0.000976562 -920.002c0 -152 -25.833 -273.5 -77.5 -364.5s-133.5 -153.167 -245.5 -186.5c-96 -29.333 -164 -63.166 -204 -101.499s-60 -80.5 -60 -126.5c0 -38 12.333 -66.667 37 -86s61.334 -29 110.001 -29c24 0 48.5 2.83301 73.5 8.5
s53.833 15.167 86.5 28.5v-80c-56.667 -24.667 -114.667 -37 -174 -37c-77.333 0 -135.833 16 -175.5 48s-59.5 78 -59.5 138c0 86 44 155.667 132 209c-123.333 1.33301 -224.5 22.833 -303.5 64.5s-137.5 104.834 -175.5 189.501s-57 193 -57 325v920h162v-938
c0 -146 31 -252.667 93 -320s159.667 -101 293 -101s231 33.667 293 101s93 174 93 320v938h159z" />
    <glyph glyph-name="uogonek" unicode="&#x173;" horiz-adv-x="1127" 
d="M1058 -296v-81c-22.667 -12 -47.667 -21.5 -75 -28.5s-55 -10.5 -83 -10.5c-68 0 -120.833 16.333 -158.5 49s-56.5 77.667 -56.5 135c0 46.667 12.333 89.5 37 128.5s64 75.833 118 110.5l-11 112h-10c-44.667 -45.333 -95.5 -79.5 -152.5 -102.5
s-117.5 -34.5 -181.5 -34.5c-107.333 0 -191.833 30.333 -253.5 91s-92.5 157.667 -92.5 291v721h160v-713c0 -88 19.5 -151.167 58.5 -189.5s93.5 -57.5 163.5 -57.5c53.333 0 106.833 12 160.5 36s98.5 60 134.5 108v816h160v-1085c-68 -36 -116.5 -71.667 -145.5 -107
s-43.5 -74 -43.5 -116c0 -35.333 11.167 -63 33.5 -83s53.5 -30 93.5 -30c47.333 0 95.333 13.333 144 40z" />
    <glyph glyph-name="Wcircumflex" unicode="&#x174;" horiz-adv-x="2114" 
d="M1902 1480h156l-416 -1480h-213l-370 1303l-375 -1303h-212l-417 1480h166l366 -1331l378 1331h191l375 -1335zM1377 1608h-140l-179 214l-179 -214h-140l245 284h148z" />
    <glyph glyph-name="wcircumflex" unicode="&#x175;" horiz-adv-x="1691" 
d="M1480 1085h151l-316 -1085h-189l-279 927l-281 -927h-188l-318 1085h157l263 -919l275 919h188l274 -914zM1142 1253h-128l-167 280l-167 -280h-129l224 363h144z" />
    <glyph glyph-name="Ycircumflex" unicode="&#x176;" horiz-adv-x="1175" 
d="M1197 1480l-528 -822v-658h-162v658l-538 822h179l443 -679l438 679h168zM907 1608h-140l-179 214l-179 -214h-140l245 284h148z" />
    <glyph glyph-name="ycircumflex" unicode="&#x177;" horiz-adv-x="1057" 
d="M880 1085h161l-576 -1525h-160l167 440h-47l-409 1085h170l344 -951zM825 1253h-128l-167 280l-167 -280h-129l224 363h144z" />
    <glyph glyph-name="Ydieresis" unicode="&#x178;" horiz-adv-x="1175" 
d="M1197 1480l-528 -822v-658h-162v658l-538 822h179l443 -679l438 679h168zM278 1683.5c-18 16.333 -27 38.833 -27 67.5c0 29.333 9.16699 52.5 27.5 69.5s43.5 25.5 75.5 25.5s57 -8.5 75 -25.5s27 -40.167 27 -69.5c0 -28.667 -9 -51.167 -27 -67.5s-43 -24.5 -75 -24.5
c-32.667 0 -58 8.16699 -76 24.5zM747 1683.5c-18 16.333 -27 38.833 -27 67.5c0 29.333 9 52.5 27 69.5s43 25.5 75 25.5s57.167 -8.5 75.5 -25.5s27.5 -40.167 27.5 -69.5c0 -28.667 -9 -51.167 -27 -67.5s-43.333 -24.5 -76 -24.5c-32 0 -57 8.16699 -75 24.5z" />
    <glyph glyph-name="Zacute" unicode="&#x179;" horiz-adv-x="1153" 
d="M275 140h817v-140h-1031v91l805 1249h-793v140h1007v-91zM503 1608l178 284h173l-204 -284h-147z" />
    <glyph glyph-name="zacute" unicode="&#x17a;" horiz-adv-x="918" 
d="M264 133h600v-133h-802v99l589 854h-577v132h778v-99zM389 1253l216 363h173l-241 -363h-148z" />
    <glyph glyph-name="Zdotaccent" unicode="&#x17b;" horiz-adv-x="1153" 
d="M275 140h817v-140h-1031v91l805 1249h-793v140h1007v-91zM495.5 1683c-19.667 16 -29.5 38.667 -29.5 68s9.83301 52.5 29.5 69.5s46.834 25.5 81.501 25.5s61.834 -8.5 81.501 -25.5s29.5 -40.167 29.5 -69.5s-9.83301 -52 -29.5 -68s-46.834 -24 -81.501 -24
s-61.834 8 -81.501 24z" />
    <glyph glyph-name="zdotaccent" unicode="&#x17c;" horiz-adv-x="918" 
d="M264 133h600v-133h-802v99l589 854h-577v132h778v-99zM380 1346.5c-19.333 17.667 -29 42.5 -29 74.5s9.83301 57 29.5 75s47.167 27 82.5 27s62.666 -9 81.999 -27s29 -43 29 -75s-9.66699 -56.833 -29 -74.5s-46.666 -26.5 -81.999 -26.5
c-36 0 -63.667 8.83301 -83 26.5z" />
    <glyph glyph-name="Zcaron" unicode="&#x17d;" horiz-adv-x="1153" 
d="M275 140h817v-140h-1031v91l805 1249h-793v140h1007v-91zM756 1892h140l-245 -284h-148l-245 284h140l179 -214z" />
    <glyph glyph-name="zcaron" unicode="&#x17e;" horiz-adv-x="918" 
d="M264 133h600v-133h-802v99l589 854h-577v132h778v-99zM633 1616h129l-227 -363h-144l-227 363h129l170 -281z" />
    <glyph glyph-name="uni018F" unicode="&#x18f;" horiz-adv-x="1432" 
d="M1136.5 1315.5c127 -122.333 190.5 -316.167 190.5 -581.5c0 -256 -54 -445.5 -162 -568.5s-257.333 -184.5 -448 -184.5c-196 0 -348.667 61 -458 183s-164 310.333 -164 565v73h1067c-6.66699 136.667 -33.334 246 -80.001 328s-112.667 141 -198 177
s-191.666 54 -318.999 54c-62.667 0 -128 -4 -196 -12s-132 -20 -192 -36v140c125.333 30.667 258.333 46 399 46c246.667 0 433.5 -61.167 560.5 -183.5zM1039 245.999c76 86 117.334 228.334 124.001 427.001h-899c4.66699 -134.667 25.167 -242.834 61.5 -324.501
s87.166 -140.667 152.499 -177s145.333 -54.5 240 -54.5c138 0 245 43 321 129z" />
    <glyph glyph-name="florin" unicode="&#x192;" horiz-adv-x="717" 
d="M443 1446.5c-40.667 -36.333 -60.999 -94.833 -60.999 -175.5v-186h341v-134h-341v-1035c0 -123.333 -33.5 -216.833 -100.5 -280.5s-164.833 -95.5 -293.5 -95.5c-54 0 -103.667 4 -149 12v135c53.333 -8 98 -12 134 -12c85.333 0 148.333 18.167 189 54.5
s61 94.833 61 175.5v1046h-205v134h205v175c0 123.333 33.333 216.833 100 280.5s164.334 95.5 293.001 95.5c54 0 103.667 -4 149 -12v-135c-52.667 8 -97.334 12 -134.001 12c-84.667 0 -147.334 -18.167 -188.001 -54.5z" />
    <glyph glyph-name="Ohorn" unicode="&#x1a0;" horiz-adv-x="1439" 
d="M1274 1132c39.333 -106 59 -236.666 59 -391.999c0 -259.333 -54 -450.666 -162 -573.999s-258.667 -185 -452 -185c-192.667 0 -343.167 62 -451.5 186s-162.5 315 -162.5 573c0 174 25.167 317.333 75.5 430s121.333 195.667 213 249s200.167 80 325.5 80
c38.667 0 90 -4 154 -12l55 -6c30.667 -3.33301 62 -5 94 -5c129.333 0 194 53 194 159c0 24 -1.83301 47 -5.5 69s-9.16699 46 -16.5 72h121c8 -24.667 13.833 -48.334 17.5 -71.001s5.5 -48.334 5.5 -77.001c0 -72.667 -20.667 -130.167 -62 -172.5s-99 -67.5 -173 -75.5
c74.667 -59.333 131.667 -142 171 -248zM1049 265.501c77.333 96.333 116 252.833 116 469.5c0 221.333 -38.667 380.666 -116 477.999s-187.333 146 -330 146c-142 0 -251.833 -48.167 -329.5 -144.5s-116.5 -252.833 -116.5 -469.5
c0 -221.333 38.667 -380.666 116 -477.999s187.333 -146 330 -146s252.667 48.167 330 144.5z" />
    <glyph glyph-name="ohorn" unicode="&#x1a1;" horiz-adv-x="1111" 
d="M1017 542c0 -189.333 -40.668 -330.165 -122.001 -422.498s-194.666 -138.5 -339.999 -138.5s-258.5 45.833 -339.5 137.5s-121.5 232.5 -121.5 422.5s40.5 331 121.5 423s195.167 138 342.5 138c30 0 67 -2 111 -6c33.333 -2.66699 56 -4 68 -4
c128 0 192 54.333 192 163c0 24 -1.83301 47 -5.5 69s-9.16699 46 -16.5 72h116c8 -24.667 13.833 -48.334 17.5 -71.001s5.5 -48 5.5 -76c0 -66.667 -16.667 -120.834 -50 -162.501s-80 -69.167 -140 -82.5c107.333 -91.333 161 -245.333 161 -462zM776.999 209.501
c50.667 65.667 76 175.499 76 329.499c0 156.667 -25.333 267.834 -76 333.501s-124.667 98.5 -222 98.5c-96.667 0 -170.5 -32.667 -221.5 -98s-76.5 -175 -76.5 -329c0 -156 25.333 -267.167 76 -333.5s124.667 -99.5 222 -99.5s171.333 32.833 222 98.5z" />
    <glyph glyph-name="Uhorn" unicode="&#x1af;" horiz-adv-x="1418" 
d="M400 43c-80.667 41.333 -140.5 104.5 -179.5 189.5s-58.5 194.167 -58.5 327.5v920h162v-938c0 -146 31 -252.667 93 -320s159.667 -101 293 -101s231 33.667 293 101s93 174 93 320v938h60c63.333 0 111.5 12.333 144.5 37s49.5 64 49.5 118c0 24 -1.83301 47 -5.5 69
s-9.16699 46 -16.5 72h121c8.66699 -24 14.667 -47.333 18 -70s5 -48.667 5 -78c0 -68.667 -19.167 -123.167 -57.5 -163.5s-91.5 -64.5 -159.5 -72.5v-832c0 -133.333 -19.333 -242.5 -58 -327.5s-98 -148.167 -178 -189.5s-183 -62 -309 -62s-229.333 20.667 -310 62z" />
    <glyph glyph-name="uhorn" unicode="&#x1b0;" horiz-adv-x="1152" 
d="M1134.5 1072c-37.667 -42.667 -90.5 -69.3301 -158.5 -79.9971v-992h-135l-12 119h-10c-44.667 -45.333 -95.5 -79.5 -152.5 -102.5s-117.5 -34.5 -181.5 -34.5c-107.333 0 -191.833 30.333 -253.5 91s-92.5 157.667 -92.5 291v721h160v-713
c0 -88 19.5 -151.167 58.5 -189.5s93.5 -57.5 163.5 -57.5c53.333 0 106.833 12 160.5 36s98.5 60 134.5 108v816h66c61.333 0 108.666 13.167 141.999 39.5s50 67.5 50 123.5c0 24 -1.83301 46.667 -5.5 68s-9.5 45.666 -17.5 72.999h116
c8.66699 -24.667 14.834 -48.334 18.501 -71.001s5.5 -48 5.5 -76c0 -70.667 -18.833 -127.334 -56.5 -170.001z" />
    <glyph glyph-name="uni01C4" unicode="&#x1c4;" horiz-adv-x="2504" 
d="M169 9l0.000976562 1447c61.333 12 125.666 21.5 192.999 28.5s132 10.5 194 10.5c245.333 0 429.666 -62.167 552.999 -186.5s185 -313.833 185 -568.5c0 -258 -64.167 -447.833 -192.5 -569.5s-322.166 -182.5 -581.499 -182.5c-110.667 0 -227.667 7 -351 21z
M873.001 190c84.667 42 148.166 108.167 190.499 198.5s63.5 207.5 63.5 351.5c0 213.333 -46.333 369.333 -139 468s-235 148 -427 148c-70 0 -146.667 -6.33301 -230 -19v-1197c66.667 -8.66699 140.334 -13 221.001 -13c129.333 0 236.333 21 321 63zM1626 140h817v-140
h-1031v91l805 1249h-793v140h1007v-91zM2107 1892h140l-245 -284h-148l-245 284h140l179 -214z" />
    <glyph glyph-name="uni01C5" unicode="&#x1c5;" horiz-adv-x="2318" 
d="M169 9l0.000976562 1447c61.333 12 125.666 21.5 192.999 28.5s132 10.5 194 10.5c245.333 0 429.666 -62.167 552.999 -186.5s185 -313.833 185 -568.5c0 -258 -64.167 -447.833 -192.5 -569.5s-322.166 -182.5 -581.499 -182.5c-110.667 0 -227.667 7 -351 21z
M873.001 190c84.667 42 148.166 108.167 190.499 198.5s63.5 207.5 63.5 351.5c0 213.333 -46.333 369.333 -139 468s-235 148 -427 148c-70 0 -146.667 -6.33301 -230 -19v-1197c66.667 -8.66699 140.334 -13 221.001 -13c129.333 0 236.333 21 321 63zM1664 133h600v-133
h-802v99l589 854h-577v132h778v-99zM2042 1572h140l-245 -284h-148l-245 284h140l179 -214z" />
    <glyph glyph-name="uni01C6" unicode="&#x1c6;" horiz-adv-x="2047" 
d="M301 36c-64 36.667 -114.5 95.168 -151.5 175.501s-55.5 183.166 -55.5 308.499c0 194 46.167 339.5 138.5 436.5s228.833 145.5 409.5 145.5c52 0 110.667 -5 176 -15v529h160v-1616h-137l-11 118h-10c-34 -42 -76.667 -75.333 -128 -100s-108.333 -37 -171 -37
c-82.667 0 -156 18.333 -220 55zM703 152.501c46 22.333 84.333 55.833 115 100.5v699c-25.333 5.33301 -54 9.83301 -86 13.5s-63 5.5 -93 5.5c-128.667 0 -224.5 -34.5 -287.5 -103.5s-94.5 -179.833 -94.5 -332.5c0 -151.333 26.167 -258.5 78.5 -321.5
s126.5 -94.5 222.5 -94.5c50.667 0 99 11.167 145 33.5zM1393 133.001h600v-133h-802v99l589 854h-577v132h778v-99zM1762 1616h129l-227 -363h-144l-227 363h129l170 -281z" />
    <glyph glyph-name="uni01C7" unicode="&#x1c7;" horiz-adv-x="1571" 
d="M169 0v1480h162v-1338h728v-142h-890zM1062 -271c64 86.667 109.667 173.168 137 259.501s41 187.166 41 302.499v1189h162v-1210c-4 -120 -23.667 -227.333 -59 -322s-93.333 -192 -174 -292z" />
    <glyph glyph-name="uni01C8" unicode="&#x1c8;" horiz-adv-x="1534" 
d="M169 0v1480h162v-1338h728v-142h-890zM1043 -392c64 86.667 109.833 173.168 137.5 259.501s41.5 187.166 41.5 302.499v915h160v-906c0 -128.667 -18 -242.5 -54 -341.5s-95.333 -199.5 -178 -301.5zM1218 1351.5c-19.333 17.667 -29 42.5 -29 74.5s9.83301 57 29.5 75
s47.167 27 82.5 27s62.666 -9 81.999 -27s29 -43 29 -75s-9.66699 -56.833 -29 -74.5s-46.666 -26.5 -81.999 -26.5c-36 0 -63.667 8.83301 -83 26.5z" />
    <glyph glyph-name="uni01C9" unicode="&#x1c9;" horiz-adv-x="925" 
d="M151 0v1616h160v-1616h-160zM434 -392c64 86.667 109.833 173.168 137.5 259.501s41.5 187.166 41.5 302.499v915h160v-906c0 -128.667 -18 -242.5 -54 -341.5s-95.333 -199.5 -178 -301.5zM609 1351.5c-19.333 17.667 -29 42.5 -29 74.5s9.83301 57 29.5 75
s47.167 27 82.5 27s62.666 -9 81.999 -27s29 -43 29 -75s-9.66699 -56.833 -29 -74.5s-46.666 -26.5 -81.999 -26.5c-36 0 -63.667 8.83301 -83 26.5z" />
    <glyph glyph-name="uni01CA" unicode="&#x1ca;" horiz-adv-x="1969" 
d="M1146 1480h154v-1480h-167l-810 1232v-1232h-154v1480h167l810 -1232v1232zM1460 -271c64 86.667 109.667 173.168 137 259.501s41 187.166 41 302.499v1189h162v-1210c-4 -120 -23.667 -227.333 -59 -322s-93.333 -192 -174 -292z" />
    <glyph glyph-name="uni01CB" unicode="&#x1cb;" horiz-adv-x="1932" 
d="M1146 1480h154v-1480h-167l-810 1232v-1232h-154v1480h167l810 -1232v1232zM1441 -392c64 86.667 109.833 173.168 137.5 259.501s41.5 187.166 41.5 302.499v915h160v-906c0 -128.667 -18 -242.5 -54 -341.5s-95.333 -199.5 -178 -301.5zM1616 1351.5
c-19.333 17.667 -29 42.5 -29 74.5s9.83301 57 29.5 75s47.167 27 82.5 27s62.666 -9 81.999 -27s29 -43 29 -75s-9.66699 -56.833 -29 -74.5s-46.666 -26.5 -81.999 -26.5c-36 0 -63.667 8.83301 -83 26.5z" />
    <glyph glyph-name="uni01CC" unicode="&#x1cc;" horiz-adv-x="1600" 
d="M151 1085l134.999 -0.00195312l11 -123h11c44.667 45.333 96.167 80 154.5 104s120.5 36 186.5 36c108.667 0 193.834 -30.5 255.501 -91.5s92.5 -158.833 92.5 -293.5v-717h-160v710c0 88.667 -19.5 152.334 -58.5 191.001s-95.167 58 -168.5 58
c-54 0 -108 -11.667 -162 -35s-99.667 -59.666 -137 -108.999v-815h-160v1085zM1109 -392.002c64 86.667 109.833 173.168 137.5 259.501s41.5 187.166 41.5 302.499v915h160v-906c0 -128.667 -18 -242.5 -54 -341.5s-95.333 -199.5 -178 -301.5zM1284 1351.5
c-19.333 17.667 -29 42.5 -29 74.5s9.83301 57 29.5 75s47.167 27 82.5 27s62.666 -9 81.999 -27s29 -43 29 -75s-9.66699 -56.833 -29 -74.5s-46.666 -26.5 -81.999 -26.5c-36 0 -63.667 8.83301 -83 26.5z" />
    <glyph glyph-name="Gcaron" unicode="&#x1e6;" horiz-adv-x="1347" 
d="M1196 720l0.000976562 -703.999c-62 -10.667 -119 -18.167 -171 -22.5s-105.667 -6.5 -161 -6.5c-253.333 0 -443 60.667 -569 182s-189.333 311 -190 569c0 260 63.333 451.833 190 575.5s305 185.5 535 185.5c110 0 220.667 -14.667 332 -44v-142
c-57.333 16 -112 27.5 -164 34.5s-104.667 10.5 -158 10.5c-184.667 0 -325 -48.333 -421 -145s-144 -255.334 -144 -476.001c0 -143.333 21.5 -260 64.5 -350s107.167 -155.833 192.5 -197.5s193 -62.5 323 -62.5c67.333 0 129.666 4 186.999 12v581h154zM923.001 1892h140
l-245 -284h-148l-245 284h140l179 -214z" />
    <glyph glyph-name="gcaron" unicode="&#x1e7;" horiz-adv-x="1129" 
d="M319 -447.5c-56.667 8.33301 -108.668 20.499 -156.001 36.499v134c108.667 -34 212.334 -51 311.001 -51c80 0 145 11 195 33s87.333 57.667 112 107s37 115.333 37 198v105h-10c-34 -40 -76.667 -71.5 -128 -94.5s-108.666 -34.5 -171.999 -34.5
c-78.667 0 -149 18.167 -211 54.5s-111.333 94.333 -148 174s-55 181.834 -55 306.501c0 193.333 46.167 338.333 138.5 435s229.5 145.334 411.5 146.001c56 0 113.5 -4.33301 172.5 -13s112.833 -20.667 161.5 -36v-1018c0 -117.333 -18.333 -212.333 -55 -285
s-91.334 -125.834 -164.001 -159.501s-165 -50.5 -277 -50.5c-52 0 -106.333 4.16699 -163 12.5zM701.999 154.499c46.667 21 85.332 52.166 115.999 93.499v701c-60 14.667 -122.333 22 -187 22c-124.667 0 -218.167 -34.667 -280.5 -104s-93.5 -179.666 -93.5 -330.999
s26.167 -258 78.5 -320s125.833 -93 220.5 -93c50.667 0 99.334 10.5 146.001 31.5zM753.997 1616h129l-227 -363h-144l-227 363h129l170 -281z" />
    <glyph glyph-name="uni01EA" unicode="&#x1ea;" horiz-adv-x="1439" 
d="M746.5 -93.5c-39 -39.667 -58.5 -82.832 -58.5 -129.499c0 -36.667 12.333 -64.667 37 -84s61.334 -29 110.001 -29c24 0 48.5 2.83301 73.5 8.5s54.167 15.167 87.5 28.5v-80c-57.333 -24.667 -115.333 -37 -174 -37c-76.667 0 -135.334 16 -176.001 48
s-61 77.333 -61 136c0 42 10.333 80.667 31 116s54.334 67.666 101.001 96.999c-192.667 1.33301 -342.834 63.833 -450.501 187.5s-161.5 314.167 -161.5 571.5c0 174 25.167 317.333 75.5 430s121.333 195.667 213 249s200.167 80 325.5 80
c192.667 0 343.167 -61.667 451.5 -185s162.5 -314.666 162.5 -573.999c0 -206.667 -34.667 -368.667 -104 -486s-164 -197 -284 -239c-93.333 -32.667 -159.5 -68.834 -198.5 -108.501zM389 267.002c77.333 -97.333 187.333 -146 330 -146s252.667 48.167 330 144.5
s116 252.833 116 469.5c0 221.333 -38.667 380.666 -116 477.999s-187.333 146 -330 146c-142 0 -251.833 -48.167 -329.5 -144.5s-116.5 -252.833 -116.5 -469.5c0 -221.333 38.667 -380.666 116 -477.999z" />
    <glyph glyph-name="uni01EB" unicode="&#x1eb;" horiz-adv-x="1111" 
d="M543 -95c-34.667 -39.333 -52.002 -81.3359 -52.002 -126.003c0 -36.667 11.333 -65 34 -85s53.667 -30 93 -30c44 0 87.667 10.667 131 32l14 -75c-48 -24.667 -100.667 -37 -158 -37c-67.333 0 -120.166 16.167 -158.499 48.5s-57.5 77.5 -57.5 135.5
c0 88.667 41.667 160 125 214c-133.333 8.66699 -236.666 58.834 -309.999 150.501s-110 227.834 -110 408.501c0 190 40.333 331 121 423s194 138 340 138c146.667 0 260.334 -45.667 341.001 -137s121 -232.333 121 -423c0 -293.333 -99.333 -472.666 -298 -537.999
c-82.667 -26.667 -141.334 -59.667 -176.001 -99zM332.998 210.497c50.667 -66.333 124.667 -99.501 222 -99.501s171.333 32.833 222 98.5s76 175.5 76 329.5c0 156.667 -25.333 267.834 -76 333.501s-124.667 98.5 -222 98.5c-96.667 0 -170.5 -32.667 -221.5 -98
s-76.5 -175 -76.5 -329c0 -156 25.333 -267.167 76 -333.5z" />
    <glyph glyph-name="uni01F1" unicode="&#x1f1;" horiz-adv-x="2504" 
d="M169 9l0.000976562 1447c61.333 12 125.666 21.5 192.999 28.5s132 10.5 194 10.5c245.333 0 429.666 -62.167 552.999 -186.5s185 -313.833 185 -568.5c0 -258 -64.167 -447.833 -192.5 -569.5s-322.166 -182.5 -581.499 -182.5c-110.667 0 -227.667 7 -351 21z
M873.001 190c84.667 42 148.166 108.167 190.499 198.5s63.5 207.5 63.5 351.5c0 213.333 -46.333 369.333 -139 468s-235 148 -427 148c-70 0 -146.667 -6.33301 -230 -19v-1197c66.667 -8.66699 140.334 -13 221.001 -13c129.333 0 236.333 21 321 63zM1626 140h817v-140
h-1031v91l805 1249h-793v140h1007v-91z" />
    <glyph glyph-name="uni01F2" unicode="&#x1f2;" horiz-adv-x="2318" 
d="M169 9l0.000976562 1447c61.333 12 125.666 21.5 192.999 28.5s132 10.5 194 10.5c245.333 0 429.666 -62.167 552.999 -186.5s185 -313.833 185 -568.5c0 -258 -64.167 -447.833 -192.5 -569.5s-322.166 -182.5 -581.499 -182.5c-110.667 0 -227.667 7 -351 21z
M873.001 190c84.667 42 148.166 108.167 190.499 198.5s63.5 207.5 63.5 351.5c0 213.333 -46.333 369.333 -139 468s-235 148 -427 148c-70 0 -146.667 -6.33301 -230 -19v-1197c66.667 -8.66699 140.334 -13 221.001 -13c129.333 0 236.333 21 321 63zM1664 133h600v-133
h-802v99l589 854h-577v132h778v-99z" />
    <glyph glyph-name="uni01F3" unicode="&#x1f3;" horiz-adv-x="2047" 
d="M301 36c-64 36.667 -114.5 95.168 -151.5 175.501s-55.5 183.166 -55.5 308.499c0 194 46.167 339.5 138.5 436.5s228.833 145.5 409.5 145.5c52 0 110.667 -5 176 -15v529h160v-1616h-137l-11 118h-10c-34 -42 -76.667 -75.333 -128 -100s-108.333 -37 -171 -37
c-82.667 0 -156 18.333 -220 55zM703 152.501c46 22.333 84.333 55.833 115 100.5v699c-25.333 5.33301 -54 9.83301 -86 13.5s-63 5.5 -93 5.5c-128.667 0 -224.5 -34.5 -287.5 -103.5s-94.5 -179.833 -94.5 -332.5c0 -151.333 26.167 -258.5 78.5 -321.5
s126.5 -94.5 222.5 -94.5c50.667 0 99 11.167 145 33.5zM1393 133.001h600v-133h-802v99l589 854h-577v132h778v-99z" />
    <glyph glyph-name="uni01F4" unicode="&#x1f4;" horiz-adv-x="1347" 
d="M1196 720l0.000976562 -703.999c-62 -10.667 -119 -18.167 -171 -22.5s-105.667 -6.5 -161 -6.5c-253.333 0 -443 60.667 -569 182s-189.333 311 -190 569c0 260 63.333 451.833 190 575.5s305 185.5 535 185.5c110 0 220.667 -14.667 332 -44v-142
c-57.333 16 -112 27.5 -164 34.5s-104.667 10.5 -158 10.5c-184.667 0 -325 -48.333 -421 -145s-144 -255.334 -144 -476.001c0 -143.333 21.5 -260 64.5 -350s107.167 -155.833 192.5 -197.5s193 -62.5 323 -62.5c67.333 0 129.666 4 186.999 12v581h154zM670.001 1608
l178 284h173l-204 -284h-147z" />
    <glyph glyph-name="uni01F5" unicode="&#x1f5;" horiz-adv-x="1129" 
d="M319 -447.5c-56.667 8.33301 -108.668 20.499 -156.001 36.499v134c108.667 -34 212.334 -51 311.001 -51c80 0 145 11 195 33s87.333 57.667 112 107s37 115.333 37 198v105h-10c-34 -40 -76.667 -71.5 -128 -94.5s-108.666 -34.5 -171.999 -34.5
c-78.667 0 -149 18.167 -211 54.5s-111.333 94.333 -148 174s-55 181.834 -55 306.501c0 193.333 46.167 338.333 138.5 435s229.5 145.334 411.5 146.001c56 0 113.5 -4.33301 172.5 -13s112.833 -20.667 161.5 -36v-1018c0 -117.333 -18.333 -212.333 -55 -285
s-91.334 -125.834 -164.001 -159.501s-165 -50.5 -277 -50.5c-52 0 -106.333 4.16699 -163 12.5zM701.999 154.499c46.667 21 85.332 52.166 115.999 93.499v701c-60 14.667 -122.333 22 -187 22c-124.667 0 -218.167 -34.667 -280.5 -104s-93.5 -179.666 -93.5 -330.999
s26.167 -258 78.5 -320s125.833 -93 220.5 -93c50.667 0 99.334 10.5 146.001 31.5zM509.997 1253l216 363h173l-241 -363h-148z" />
    <glyph glyph-name="Aringacute" unicode="&#x1fa;" horiz-adv-x="1348" 
d="M985 479l-625 -0.00292969l-169 -479h-163l531 1480h46c-37.333 14 -67.333 37 -90 69s-34 69.333 -34 112c0 36.667 8.5 69.834 25.5 99.501s40.333 52.834 70 69.501s63.167 25 100.5 25c32 0 60.667 -6 86 -18l124 131h136l-186 -192c23.333 -34 35 -72.333 35 -115
s-11.167 -80.167 -33.5 -112.5s-52.5 -55.166 -90.5 -68.499h40l531 -1480h-165zM592.5 1574.5c21.667 -21.667 49.834 -32.5 84.501 -32.5s62.667 10.833 84 32.5s32 50.5 32 86.5c0 36.667 -10.667 65.667 -32 87s-49.333 32 -84 32s-62.834 -10.667 -84.501 -32
s-32.5 -50.333 -32.5 -87c0 -36 10.833 -64.833 32.5 -86.5zM408 615.997h528l-264 746z" />
    <glyph glyph-name="aringacute" unicode="&#x1fb;" horiz-adv-x="1029" 
d="M707 1065c60.667 -24.667 106.326 -65.668 136.993 -123.001s46 -134.333 46 -231v-711h-134l-12 121h-11c-34.667 -44 -79.5 -78.167 -134.5 -102.5s-114.5 -36.5 -178.5 -36.5c-67.333 0 -125.666 11.833 -174.999 35.5s-87.166 57.834 -113.499 102.501
s-39.5 97.334 -39.5 158.001c0 96 31.333 170.167 94 222.5s162.334 85.166 299.001 98.499l248 27v93c0 64.667 -10.167 115.334 -30.5 152.001s-50.666 62.5 -90.999 77.5s-93.166 22.5 -158.499 22.5c-44.667 0 -92.5 -4 -143.5 -12s-100.833 -20.333 -149.5 -37v132
c44.667 15.333 95.334 27.166 152.001 35.499s110.667 12.5 162 12.5c94.667 0 172.334 -12.333 233.001 -37zM607.992 137.999c47.333 21.333 89.001 54.6689 125.001 100.002v280l-237 -26c-84.667 -8.66699 -146.167 -29.334 -184.5 -62.001
s-57.5 -78.334 -57.5 -137.001c0 -61.333 17.333 -107.833 52 -139.5s86 -47.5 154 -47.5c51.333 0 100.666 10.667 147.999 32zM666.993 1562c26 -33.333 39.001 -73.6689 39.001 -121.002c0 -36.667 -8.33301 -69.667 -25 -99s-39.834 -52.333 -69.501 -69
s-63.167 -25 -100.5 -25s-70.833 8.33301 -100.5 25s-53 39.667 -70 69s-25.5 62.333 -25.5 99s8.5 69.834 25.5 99.501s40.333 52.834 70 69.501s63.167 25 100.5 25c30 0 57 -5.33301 81 -16l131 161h135zM594.994 1354.5c21.333 21.667 32 50.5 32 86.5
c0 36.667 -10.667 65.667 -32 87s-49.333 32 -84 32s-62.834 -10.667 -84.501 -32s-32.5 -50.333 -32.5 -87c0 -36 10.833 -64.833 32.5 -86.5s49.834 -32.5 84.501 -32.5s62.667 10.833 84 32.5z" />
    <glyph glyph-name="AEacute" unicode="&#x1fc;" horiz-adv-x="1846" 
d="M1091 138h683v-138h-834l-33 479h-542l-173 -479h-164l540 1480h1196v-138h-758l36 -514h625v-137h-615zM415 616h483l-50 726h-171zM845 1608l178 284h173l-204 -284h-147z" />
    <glyph glyph-name="aeacute" unicode="&#x1fd;" horiz-adv-x="1655" 
d="M1577 489l-686.992 0.00390625c2.66699 -91.333 17.667 -164.5 45 -219.5s67.166 -95 119.499 -120s119.166 -37.5 200.499 -37.5c79.333 0 168.666 14.667 267.999 44v-131c-97.333 -29.333 -192.666 -44 -285.999 -44c-100.667 0 -186 15.667 -256 47
s-125 79.666 -165 144.999c-56 -68.667 -115.833 -117.667 -179.5 -147s-131.834 -44 -204.501 -44c-70 0 -130.667 11.667 -182 35s-90.5 57.333 -117.5 102s-40.5 97.667 -40.5 159c0 99.333 33.667 177.666 101 234.999s173 86 317 86h224v121
c0 64.667 -10.333 115.167 -31 151.5s-51.334 62 -92.001 77s-93.334 22.5 -158.001 22.5c-44.667 0 -92.334 -4 -143.001 -12s-100.334 -20.333 -149.001 -37v132c46 15.333 96 27.166 150 35.499s106.667 12.5 158 12.5c96 0 174 -14.333 234 -43
s103.667 -74.667 131 -138c34.667 60.667 80 106 136 136s121.333 45 196 45c131.333 0 232.666 -46.333 303.999 -139s107 -233.334 107 -422.001v-52zM962.508 895.504c-45.667 -60.333 -69.833 -159.168 -72.5 -296.501h533
c-2.66699 138.667 -26.167 237.834 -70.5 297.501s-108.5 89.5 -192.5 89.5c-86 0 -151.833 -30.167 -197.5 -90.5zM628.509 146.502c52.333 27 98.833 71.168 139.5 132.501c-19.333 65.333 -30.333 136.333 -33 213h-217c-176 0 -264 -66.667 -264 -200
c0 -60.667 17.667 -106.834 53 -138.501s87.333 -47.5 156 -47.5c58 0 113.167 13.5 165.5 40.5zM740.009 1253l216 363h173l-241 -363h-148z" />
    <glyph glyph-name="Oslashacute" unicode="&#x1fe;" horiz-adv-x="1439" 
d="M1333 740c0 -173.333 -25.167 -316.501 -75.5 -429.501s-121.166 -196.167 -212.499 -249.5s-200 -80 -326 -80c-166.667 0 -300.334 44.667 -401.001 134l-106 -143l-82 61l118 159c-95.333 128.667 -143 311.334 -143 548.001c0 174 25.167 317.333 75.5 430
s121.333 195.667 213 249s200.167 80 325.5 80c166.667 0 300 -44.667 400 -134l106 143l82 -61l-118 -158c96 -128.667 144 -311.667 144 -549zM350 329.999l676 909.999c-72.667 79.333 -175 119 -307 119c-142 0 -251.833 -48.167 -329.5 -144.5
s-116.5 -252.833 -116.5 -469.5c0 -177.333 25.667 -315.666 77 -414.999zM1049 265.498c77.333 96.333 115.999 252.832 115.999 469.499c0 176.667 -26 315.334 -78 416.001l-676 -911c72.667 -79.333 175.334 -119 308.001 -119c142.667 0 252.667 48.167 330 144.5z
M641.999 1608l178 284h173l-204 -284h-147z" />
    <glyph glyph-name="oslashacute" unicode="&#x1ff;" horiz-adv-x="1111" 
d="M1017 542c0 -189.333 -40.666 -330.167 -121.999 -422.5s-194.666 -138.5 -339.999 -138.5c-114.667 0 -208.334 27.667 -281.001 83l-68 -95l-80 58l77 108c-72.667 94.667 -109 230 -109 406c0 190 40.333 331 121 423s194 138 340 138
c113.333 0 206.666 -26.667 279.999 -80l68 94l80 -58l-76 -107c73.333 -94 110 -230.333 110 -409zM331.001 874.499c-51.333 -65.667 -77 -175.833 -77 -330.5c0 -120 15.333 -213.667 46 -281l456 639c-47.333 47.333 -114.333 71 -201 71
c-98 0 -172.667 -32.833 -224 -98.5zM780.001 208.5c51.333 65.667 77 175.833 77 330.5c0 120 -16 214.667 -48 284l-456 -640c48 -48.667 115.333 -73 202 -73c98.667 0 173.667 32.833 225 98.5zM476.001 1253l216 363h173l-241 -363h-148z" />
    <glyph glyph-name="uni0200" unicode="&#x200;" horiz-adv-x="1348" 
d="M1154 0l-169 479h-625l-169 -479h-163l531 1480h229l531 -1480h-165zM408 616h528l-264 746zM443 1608l-139 284h136l129 -284h-126zM779 1608l-138 284h136l128 -284h-126z" />
    <glyph glyph-name="uni0201" unicode="&#x201;" horiz-adv-x="1029" 
d="M707 1065c60.667 -24.667 106.326 -65.668 136.993 -123.001s46 -134.333 46 -231v-711h-134l-12 121h-11c-34.667 -44 -79.5 -78.167 -134.5 -102.5s-114.5 -36.5 -178.5 -36.5c-67.333 0 -125.666 11.833 -174.999 35.5s-87.166 57.834 -113.499 102.501
s-39.5 97.334 -39.5 158.001c0 96 31.333 170.167 94 222.5s162.334 85.166 299.001 98.499l248 27v93c0 64.667 -10.167 115.334 -30.5 152.001s-50.666 62.5 -90.999 77.5s-93.166 22.5 -158.499 22.5c-44.667 0 -92.5 -4 -143.5 -12s-100.833 -20.333 -149.5 -37v132
c44.667 15.333 95.334 27.166 152.001 35.499s110.667 12.5 162 12.5c94.667 0 172.334 -12.333 233.001 -37zM607.992 137.999c47.333 21.333 89.001 54.6689 125.001 100.002v280l-237 -26c-84.667 -8.66699 -146.167 -29.334 -184.5 -62.001
s-57.5 -78.334 -57.5 -137.001c0 -61.333 17.333 -107.833 52 -139.5s86 -47.5 154 -47.5c51.333 0 100.666 10.667 147.999 32zM279.993 1253l-151 363h138l139 -363h-126zM615.993 1253l-150 363h137l139 -363h-126z" />
    <glyph glyph-name="uni0202" unicode="&#x202;" horiz-adv-x="1348" 
d="M1154 0l-169 479h-625l-169 -479h-163l531 1480h229l531 -1480h-165zM408 616h528l-264 746zM446.5 1816c53 44.667 128.165 67 225.498 67c98 0 174 -22.5 228 -67.5s85 -107.167 93 -186.5h-109c-8 54 -28.5 94 -61.5 120s-83.167 39 -150.5 39
s-117.166 -13 -149.499 -39s-52.166 -66 -59.499 -120h-108c8 80 38.5 142.333 91.5 187z" />
    <glyph glyph-name="uni0203" unicode="&#x203;" horiz-adv-x="1029" 
d="M707 1065c60.667 -24.667 106.326 -65.668 136.993 -123.001s46 -134.333 46 -231v-711h-134l-12 121h-11c-34.667 -44 -79.5 -78.167 -134.5 -102.5s-114.5 -36.5 -178.5 -36.5c-67.333 0 -125.666 11.833 -174.999 35.5s-87.166 57.834 -113.499 102.501
s-39.5 97.334 -39.5 158.001c0 96 31.333 170.167 94 222.5s162.334 85.166 299.001 98.499l248 27v93c0 64.667 -10.167 115.334 -30.5 152.001s-50.666 62.5 -90.999 77.5s-93.166 22.5 -158.499 22.5c-44.667 0 -92.5 -4 -143.5 -12s-100.833 -20.333 -149.5 -37v132
c44.667 15.333 95.334 27.166 152.001 35.499s110.667 12.5 162 12.5c94.667 0 172.334 -12.333 233.001 -37zM607.992 137.999c47.333 21.333 89.001 54.6689 125.001 100.002v280l-237 -26c-84.667 -8.66699 -146.167 -29.334 -184.5 -62.001
s-57.5 -78.334 -57.5 -137.001c0 -61.333 17.333 -107.833 52 -139.5s86 -47.5 154 -47.5c51.333 0 100.666 10.667 147.999 32zM294.493 1523c51 56 122.503 84 214.503 84s164.167 -28.333 216.5 -85s80.5 -137 84.5 -241h-107
c-5.33301 76.667 -23.833 134.167 -55.5 172.5s-77.834 57.5 -138.501 57.5s-106.334 -19 -137.001 -57s-48.334 -95.667 -53.001 -173h-108c4.66699 105.333 32.5 186 83.5 242z" />
    <glyph glyph-name="uni0204" unicode="&#x204;" horiz-adv-x="1166" 
d="M330 138h764v-138h-925v1480h915v-138h-754v-514h657v-137h-657v-553zM418 1608l-139 284h136l129 -284h-126zM754 1608l-138 284h136l128 -284h-126z" />
    <glyph glyph-name="uni0205" unicode="&#x205;" horiz-adv-x="1030" 
d="M951 489l-695.001 -0.000976562c2.66699 -91.333 17.834 -164.666 45.501 -219.999s68.167 -95.333 121.5 -120s121.333 -37 204 -37c78.667 0 168.667 14.667 270 44v-131c-98.667 -29.333 -195 -44 -289 -44c-172.667 0 -301.5 44.667 -386.5 134
s-127.5 232 -127.5 428c0 186 38.5 325.667 115.5 419s184.833 140 323.5 140c135.333 0 238.833 -46.5 310.5 -139.5s107.5 -234.167 107.5 -423.5v-50zM329.999 894.999c-46.667 -60 -71.333 -158.667 -74 -296h541c-2.66699 138 -26.167 236.833 -70.5 296.5
s-109.5 89.5 -195.5 89.5c-87.333 0 -154.333 -30 -201 -90zM300 1253l-151 363h138l139 -363h-126zM636 1253l-150 363h137l139 -363h-126z" />
    <glyph glyph-name="uni0206" unicode="&#x206;" horiz-adv-x="1166" 
d="M330 138h764v-138h-925v1480h915v-138h-754v-514h657v-137h-657v-553zM421.5 1816c53 44.667 128.165 67 225.498 67c98 0 174 -22.5 228 -67.5s85 -107.167 93 -186.5h-109c-8 54 -28.5 94 -61.5 120s-83.167 39 -150.5 39s-117.166 -13 -149.499 -39
s-52.166 -66 -59.499 -120h-108c8 80 38.5 142.333 91.5 187z" />
    <glyph glyph-name="uni0207" unicode="&#x207;" horiz-adv-x="1030" 
d="M951 489l-695.001 -0.000976562c2.66699 -91.333 17.834 -164.666 45.501 -219.999s68.167 -95.333 121.5 -120s121.333 -37 204 -37c78.667 0 168.667 14.667 270 44v-131c-98.667 -29.333 -195 -44 -289 -44c-172.667 0 -301.5 44.667 -386.5 134
s-127.5 232 -127.5 428c0 186 38.5 325.667 115.5 419s184.833 140 323.5 140c135.333 0 238.833 -46.5 310.5 -139.5s107.5 -234.167 107.5 -423.5v-50zM329.999 894.999c-46.667 -60 -71.333 -158.667 -74 -296h541c-2.66699 138 -26.167 236.833 -70.5 296.5
s-109.5 89.5 -195.5 89.5c-87.333 0 -154.333 -30 -201 -90zM314.5 1523c51 56 122.503 84 214.503 84s164.167 -28.333 216.5 -85s80.5 -137 84.5 -241h-107c-5.33301 76.667 -23.833 134.167 -55.5 172.5s-77.834 57.5 -138.501 57.5s-106.334 -19 -137.001 -57
s-48.334 -95.667 -53.001 -173h-108c4.66699 105.333 32.5 186 83.5 242z" />
    <glyph glyph-name="uni0208" unicode="&#x208;" horiz-adv-x="500" 
d="M169 0v1480h162v-1480h-162zM19 1608l-139 284h136l129 -284h-126zM355 1608l-138 284h136l128 -284h-126z" />
    <glyph glyph-name="uni0209" unicode="&#x209;" horiz-adv-x="463" 
d="M151 0v1085h160v-1085h-160zM0 1253l-151 363h138l139 -363h-126zM336 1253l-150 363h137l139 -363h-126z" />
    <glyph glyph-name="uni020A" unicode="&#x20a;" horiz-adv-x="500" 
d="M169 0v1480h162v-1480h-162zM22.5 1816c53 44.667 128.165 67 225.498 67c98 0 174 -22.5 228 -67.5s85 -107.167 93 -186.5h-109c-8 54 -28.5 94 -61.5 120s-83.167 39 -150.5 39s-117.166 -13 -149.499 -39s-52.166 -66 -59.499 -120h-108c8 80 38.5 142.333 91.5 187z
" />
    <glyph glyph-name="uni020B" unicode="&#x20b;" horiz-adv-x="463" 
d="M151 0v1085h160v-1085h-160zM14.5 1523c51 56 122.503 84 214.503 84s164.167 -28.333 216.5 -85s80.5 -137 84.5 -241h-107c-5.33301 76.667 -23.833 134.167 -55.5 172.5s-77.834 57.5 -138.501 57.5s-106.334 -19 -137.001 -57s-48.334 -95.667 -53.001 -173h-108
c4.66699 105.333 32.5 186 83.5 242z" />
    <glyph glyph-name="uni020C" unicode="&#x20c;" horiz-adv-x="1439" 
d="M267.5 167c-108.333 124 -162.501 315 -162.501 573c0 174 25.167 317.333 75.5 430s121.333 195.667 213 249s200.167 80 325.5 80c192.667 0 343.167 -62 451.5 -186s162.5 -315 162.5 -573c0 -173.333 -25.167 -316.5 -75.5 -429.5s-121.166 -196.167 -212.499 -249.5
s-200 -80 -326 -80c-192.667 0 -343.167 62 -451.5 186zM1049 265.5c77.333 96.333 116 252.833 116 469.5c0 221.333 -38.667 380.666 -116 477.999s-187.333 146 -330 146c-142 0 -251.833 -48.167 -329.5 -144.5s-116.5 -252.833 -116.5 -469.5
c0 -221.333 38.667 -380.666 116 -477.999s187.333 -146 330 -146s252.667 48.167 330 144.5zM487.999 1608l-139 284h136l129 -284h-126zM823.999 1608l-138 284h136l128 -284h-126z" />
    <glyph glyph-name="uni020D" unicode="&#x20d;" horiz-adv-x="1111" 
d="M215.5 118.5c-81 91.667 -121.502 232.499 -121.502 422.499s40.333 331 121 423s194 138 340 138c146.667 0 260.334 -45.667 341.001 -137s121 -232.333 121 -423c0 -189.333 -40.667 -330.166 -122 -422.499s-194.666 -138.5 -339.999 -138.5
s-258.5 45.833 -339.5 137.5zM776.998 209.499c50.667 65.667 76 175.499 76 329.499c0 156.667 -25.333 267.834 -76 333.501s-124.667 98.5 -222 98.5c-96.667 0 -170.5 -32.667 -221.5 -98s-76.5 -175 -76.5 -329c0 -156 25.333 -267.167 76 -333.5
s124.667 -99.5 222 -99.5s171.333 32.833 222 98.5zM323.998 1253l-151 363h138l139 -363h-126zM659.998 1253l-150 363h137l139 -363h-126z" />
    <glyph glyph-name="uni020E" unicode="&#x20e;" horiz-adv-x="1439" 
d="M267.5 167c-108.333 124 -162.501 315 -162.501 573c0 174 25.167 317.333 75.5 430s121.333 195.667 213 249s200.167 80 325.5 80c192.667 0 343.167 -62 451.5 -186s162.5 -315 162.5 -573c0 -173.333 -25.167 -316.5 -75.5 -429.5s-121.166 -196.167 -212.499 -249.5
s-200 -80 -326 -80c-192.667 0 -343.167 62 -451.5 186zM1049 265.5c77.333 96.333 116 252.833 116 469.5c0 221.333 -38.667 380.666 -116 477.999s-187.333 146 -330 146c-142 0 -251.833 -48.167 -329.5 -144.5s-116.5 -252.833 -116.5 -469.5
c0 -221.333 38.667 -380.666 116 -477.999s187.333 -146 330 -146s252.667 48.167 330 144.5zM491.499 1816c53 44.667 128.165 67 225.498 67c98 0 174 -22.5 228 -67.5s85 -107.167 93 -186.5h-109c-8 54 -28.5 94 -61.5 120s-83.167 39 -150.5 39
s-117.166 -13 -149.499 -39s-52.166 -66 -59.499 -120h-108c8 80 38.5 142.333 91.5 187z" />
    <glyph glyph-name="uni020F" unicode="&#x20f;" horiz-adv-x="1111" 
d="M215.5 118.5c-81 91.667 -121.502 232.499 -121.502 422.499s40.333 331 121 423s194 138 340 138c146.667 0 260.334 -45.667 341.001 -137s121 -232.333 121 -423c0 -189.333 -40.667 -330.166 -122 -422.499s-194.666 -138.5 -339.999 -138.5
s-258.5 45.833 -339.5 137.5zM776.998 209.499c50.667 65.667 76 175.499 76 329.499c0 156.667 -25.333 267.834 -76 333.501s-124.667 98.5 -222 98.5c-96.667 0 -170.5 -32.667 -221.5 -98s-76.5 -175 -76.5 -329c0 -156 25.333 -267.167 76 -333.5
s124.667 -99.5 222 -99.5s171.333 32.833 222 98.5zM338.498 1523c51 56 122.503 84 214.503 84s164.167 -28.333 216.5 -85s80.5 -137 84.5 -241h-107c-5.33301 76.667 -23.833 134.167 -55.5 172.5s-77.834 57.5 -138.501 57.5s-106.334 -19 -137.001 -57
s-48.334 -95.667 -53.001 -173h-108c4.66699 105.333 32.5 186 83.5 242z" />
    <glyph glyph-name="uni0210" unicode="&#x210;" horiz-adv-x="1307" 
d="M1074 0l-460 613.001c-33.333 -1.33301 -59.666 -2 -78.999 -2c-66.667 0 -135.334 2.66699 -206.001 8v-619h-160v1456c136.667 26.667 268.334 40 395.001 40c196 0 341.333 -35.667 436 -107s142 -182 142 -332c0.666992 -114 -29.833 -206.333 -91.5 -277
s-152.834 -119.334 -273.501 -146.001l479 -634h-182zM433.5 743.001c29 -1.33301 63.168 -2.00098 102.501 -2.00098c157.333 0 272 25.333 344 76s108 130 108 238c0 74 -14.333 133.667 -43 179s-73.334 78.5 -134.001 99.5s-139.667 31.5 -237 31.5
c-48 0 -90.5 -1.66699 -127.5 -5s-76.167 -8.66602 -117.5 -15.999v-593c40.667 -4 75.5 -6.66699 104.5 -8zM399.001 1608l-139 284h136l129 -284h-126zM735.001 1608l-138 284h136l128 -284h-126z" />
    <glyph glyph-name="uni0211" unicode="&#x211;" horiz-adv-x="724" 
d="M151 1085l134 -0.000976562l13 -145h10c36 50 82.167 88.5 138.5 115.5s115.833 40.5 178.5 40.5c29.333 0 58.333 -2.66699 87 -8v-149c-28.667 4.66699 -60 7 -94 7c-56.667 0 -113.5 -13.167 -170.5 -39.5s-102.5 -64.166 -136.5 -113.499v-793h-160v1085zM192 1253
l-151 363h138l139 -363h-126zM528 1253l-150 363h137l139 -363h-126z" />
    <glyph glyph-name="uni0212" unicode="&#x212;" horiz-adv-x="1307" 
d="M1074 0l-460 613.001c-33.333 -1.33301 -59.666 -2 -78.999 -2c-66.667 0 -135.334 2.66699 -206.001 8v-619h-160v1456c136.667 26.667 268.334 40 395.001 40c196 0 341.333 -35.667 436 -107s142 -182 142 -332c0.666992 -114 -29.833 -206.333 -91.5 -277
s-152.834 -119.334 -273.501 -146.001l479 -634h-182zM433.5 743.001c29 -1.33301 63.168 -2.00098 102.501 -2.00098c157.333 0 272 25.333 344 76s108 130 108 238c0 74 -14.333 133.667 -43 179s-73.334 78.5 -134.001 99.5s-139.667 31.5 -237 31.5
c-48 0 -90.5 -1.66699 -127.5 -5s-76.167 -8.66602 -117.5 -15.999v-593c40.667 -4 75.5 -6.66699 104.5 -8zM402.501 1816c53 44.667 128.165 67 225.498 67c98 0 174 -22.5 228 -67.5s85 -107.167 93 -186.5h-109c-8 54 -28.5 94 -61.5 120s-83.167 39 -150.5 39
s-117.166 -13 -149.499 -39s-52.166 -66 -59.499 -120h-108c8 80 38.5 142.333 91.5 187z" />
    <glyph glyph-name="uni0213" unicode="&#x213;" horiz-adv-x="724" 
d="M151 1085l134 -0.000976562l13 -145h10c36 50 82.167 88.5 138.5 115.5s115.833 40.5 178.5 40.5c29.333 0 58.333 -2.66699 87 -8v-149c-28.667 4.66699 -60 7 -94 7c-56.667 0 -113.5 -13.167 -170.5 -39.5s-102.5 -64.166 -136.5 -113.499v-793h-160v1085zM206.5 1523
c51 56 122.503 84 214.503 84s164.167 -28.333 216.5 -85s80.5 -137 84.5 -241h-107c-5.33301 76.667 -23.833 134.167 -55.5 172.5s-77.834 57.5 -138.501 57.5s-106.334 -19 -137.001 -57s-48.334 -95.667 -53.001 -173h-108c4.66699 105.333 32.5 186 83.5 242z" />
    <glyph glyph-name="uni0214" unicode="&#x214;" horiz-adv-x="1417" 
d="M400 43c-80.667 41.333 -140.5 104.5 -179.5 189.5s-58.5 194.167 -58.5 327.5v920h162v-938c0 -146 31 -252.667 93 -320s159.667 -101 293 -101s231 33.667 293 101s93 174 93 320v938h159v-920c0 -133.333 -19.333 -242.5 -58 -327.5s-98 -148.167 -178 -189.5
s-183 -62 -309 -62s-229.333 20.667 -310 62zM479 1608l-139 284h136l129 -284h-126zM815 1608l-138 284h136l128 -284h-126z" />
    <glyph glyph-name="uni0215" unicode="&#x215;" horiz-adv-x="1127" 
d="M231.5 73c-61.667 60.667 -92.5 157.667 -92.5 291v721h160v-713c0 -88 19.5 -151.167 58.5 -189.5s93.5 -57.5 163.5 -57.5c53.333 0 106.833 12 160.5 36s98.5 60 134.5 108v816h160v-1085h-135l-12 119h-10c-44.667 -45.333 -95.5 -79.5 -152.5 -102.5
s-117.5 -34.5 -181.5 -34.5c-107.333 0 -191.833 30.333 -253.5 91zM327 1253l-151 363h138l139 -363h-126zM663 1253l-150 363h137l139 -363h-126z" />
    <glyph glyph-name="uni0216" unicode="&#x216;" horiz-adv-x="1417" 
d="M400 43c-80.667 41.333 -140.5 104.5 -179.5 189.5s-58.5 194.167 -58.5 327.5v920h162v-938c0 -146 31 -252.667 93 -320s159.667 -101 293 -101s231 33.667 293 101s93 174 93 320v938h159v-920c0 -133.333 -19.333 -242.5 -58 -327.5s-98 -148.167 -178 -189.5
s-183 -62 -309 -62s-229.333 20.667 -310 62zM482.5 1816c53 44.667 128.165 67 225.498 67c98 0 174 -22.5 228 -67.5s85 -107.167 93 -186.5h-109c-8 54 -28.5 94 -61.5 120s-83.167 39 -150.5 39s-117.166 -13 -149.499 -39s-52.166 -66 -59.499 -120h-108
c8 80 38.5 142.333 91.5 187z" />
    <glyph glyph-name="uni0217" unicode="&#x217;" horiz-adv-x="1127" 
d="M231.5 73c-61.667 60.667 -92.5 157.667 -92.5 291v721h160v-713c0 -88 19.5 -151.167 58.5 -189.5s93.5 -57.5 163.5 -57.5c53.333 0 106.833 12 160.5 36s98.5 60 134.5 108v816h160v-1085h-135l-12 119h-10c-44.667 -45.333 -95.5 -79.5 -152.5 -102.5
s-117.5 -34.5 -181.5 -34.5c-107.333 0 -191.833 30.333 -253.5 91zM341.5 1523c51 56 122.503 84 214.503 84s164.167 -28.333 216.5 -85s80.5 -137 84.5 -241h-107c-5.33301 76.667 -23.833 134.167 -55.5 172.5s-77.834 57.5 -138.501 57.5s-106.334 -19 -137.001 -57
s-48.334 -95.667 -53.001 -173h-108c4.66699 105.333 32.5 186 83.5 242z" />
    <glyph glyph-name="Scommaaccent" unicode="&#x218;" horiz-adv-x="1063" 
d="M277 -3.5c-63.333 10.333 -123.332 25.168 -179.999 44.501v140c60 -20.667 121.5 -36 184.5 -46s123.833 -15 182.5 -15c240.667 0 361 90.333 361 271c0 50 -9.83301 91.833 -29.5 125.5s-50.667 62 -93 85s-99.833 43.833 -172.5 62.5l-80 21
c-126.667 32.667 -221 81.5 -283 146.5s-93 150.5 -93 256.5c0 85.333 19.833 158.833 59.5 220.5s98.667 108.834 177 141.501s175.166 49 290.499 49c57.333 0 114 -3.83301 170 -11.5s107 -18.834 153 -33.501v-140c-100 30.667 -206 46 -318 46
c-124.667 0 -217.167 -22.5 -277.5 -67.5s-90.5 -109.833 -90.5 -194.5c0 -48.667 8.83301 -89.667 26.5 -123s46.167 -61.5 85.5 -84.5s93 -43.5 161 -61.5l80 -20c137.333 -34.667 238 -84.667 302 -150s96 -151.333 96 -258c0 -88.667 -20.667 -164.334 -62 -227.001
s-101.333 -110.5 -180 -143.5s-173.667 -49.5 -285 -49.5c-60 0 -121.667 5.16699 -185 15.5zM617.501 -190.998c18.333 -18.667 27.499 -45.999 27.499 -81.999c0 -28.667 -5.16699 -60.5 -15.5 -95.5s-24.166 -67.5 -41.499 -97.5h-100c22.667 52 36.667 98.667 42 140
c-30.667 1.33301 -54.167 9.33301 -70.5 24s-24.5 34 -24.5 58c0 25.333 8.83301 45.166 26.5 59.499s42.834 21.5 75.501 21.5c35.333 0 62.166 -9.33301 80.499 -28z" />
    <glyph glyph-name="scommaaccent" unicode="&#x219;" horiz-adv-x="900" 
d="M109 25l0.00195312 129c99.333 -30 199.666 -45 300.999 -45c178.667 0 268 60.667 268 182c0 49.333 -12.833 87 -38.5 113s-68.5 45.667 -128.5 59l-147 30c-96.667 20.667 -166.667 55 -210 103s-65 112 -65 192c0 62 15.667 116.667 47 164
s79.166 84.166 143.499 110.499s143.833 39.5 238.5 39.5c87.333 0 172.666 -10.667 255.999 -32v-130c-44 12 -86 20.667 -126 26s-82 8 -126 8c-98 0 -169.167 -16.5 -213.5 -49.5s-66.5 -77.167 -66.5 -132.5c0 -44.667 12.333 -80.667 37 -108
s66.334 -47.333 125.001 -60l147 -30c98.667 -20.667 170.167 -54.667 214.5 -102s66.5 -111.666 66.5 -192.999c0 -100 -36.333 -178 -109 -234s-177 -84 -313 -84c-110 0 -210.333 14.667 -301 44zM532.502 -191c18.333 -18.667 27.499 -45.999 27.499 -81.999
c0 -28.667 -5.16699 -60.5 -15.5 -95.5s-24.166 -67.5 -41.499 -97.5h-100c22.667 52 36.667 98.667 42 140c-30.667 1.33301 -54.167 9.33301 -70.5 24s-24.5 34 -24.5 58c0 25.333 8.83301 45.166 26.5 59.499s42.834 21.5 75.501 21.5
c35.333 0 62.166 -9.33301 80.499 -28z" />
    <glyph glyph-name="uni021A" unicode="&#x21a;" horiz-adv-x="1175" 
d="M506 0v1338h-492v142h1148v-142h-493v-1338h-163zM665.5 -191c18.333 -18.667 27.499 -45.999 27.499 -81.999c0 -28.667 -5.16699 -60.5 -15.5 -95.5s-24.166 -67.5 -41.499 -97.5h-100c22.667 52 36.667 98.667 42 140c-30.667 1.33301 -54.167 9.33301 -70.5 24
s-24.5 34 -24.5 58c0 25.333 8.83301 45.166 26.5 59.499s42.834 21.5 75.501 21.5c35.333 0 62.166 -9.33301 80.499 -28z" />
    <glyph glyph-name="uni021B" unicode="&#x21b;" horiz-adv-x="749" 
d="M733 136l0.00195312 -134.999c-56.667 -13.333 -112.334 -20 -167.001 -20c-234 0 -351 120 -351 360v612h-205v132h205l26 395h134v-395h341v-132h-341v-587c0 -88.667 18.167 -151.834 54.5 -189.501s93.166 -56.5 170.499 -56.5c38 0 82.333 5.33301 133 16z
M551.502 -190.999c18.333 -18.667 27.499 -45.999 27.499 -81.999c0 -28.667 -5.16699 -60.5 -15.5 -95.5s-24.166 -67.5 -41.499 -97.5h-100c22.667 52 36.667 98.667 42 140c-30.667 1.33301 -54.167 9.33301 -70.5 24s-24.5 34 -24.5 58
c0 25.333 8.83301 45.166 26.5 59.499s42.834 21.5 75.501 21.5c35.333 0 62.166 -9.33301 80.499 -28z" />
    </font>
</defs>
</svg>
